<svg width="124" height="39" viewBox="0 0 124 39" fill="none" xmlns="http://www.w3.org/2000/svg">
<path d="M54.1528 4.44824C54.0959 4.97233 53.9079 5.37337 53.5889 5.65137C53.2721 5.92936 52.8494 6.06836 52.3208 6.06836C51.9517 6.06836 51.6247 5.97607 51.3398 5.7915C51.0573 5.60693 50.8385 5.34603 50.6836 5.00879C50.5286 4.66927 50.45 4.2819 50.4478 3.84668V3.20068C50.4478 2.75863 50.5252 2.3667 50.6802 2.0249C50.8351 1.68311 51.0573 1.41992 51.3467 1.23535C51.6383 1.0485 51.9733 0.955078 52.3516 0.955078C52.8848 0.955078 53.3052 1.09977 53.6128 1.38916C53.9227 1.67627 54.1027 2.07389 54.1528 2.58203H53.729C53.6242 1.73665 53.165 1.31396 52.3516 1.31396C51.9004 1.31396 51.5404 1.48258 51.2715 1.81982C51.0049 2.15706 50.8716 2.62305 50.8716 3.21777V3.82617C50.8716 4.40039 51.0015 4.8584 51.2612 5.2002C51.5233 5.54199 51.8765 5.71289 52.3208 5.71289C52.7606 5.71289 53.0921 5.60807 53.3154 5.39844C53.5387 5.18652 53.6766 4.86979 53.729 4.44824H54.1528Z" fill="black"/>
<path d="M56.4629 6.32861C56.4629 6.18376 56.4043 6.06738 56.2871 5.97949C56.1715 5.8916 55.9966 5.82324 55.7622 5.77441C55.5278 5.72396 55.3455 5.66699 55.2153 5.60352C55.0868 5.53841 54.9907 5.45947 54.9272 5.3667C54.8654 5.27393 54.8345 5.16162 54.8345 5.02979C54.8345 4.82145 54.9215 4.64974 55.0957 4.51465C55.2699 4.37793 55.4928 4.30957 55.7646 4.30957C56.0592 4.30957 56.2952 4.38281 56.4727 4.5293C56.6517 4.67415 56.7412 4.86377 56.7412 5.09814H56.4482C56.4482 4.94352 56.3831 4.81494 56.2529 4.7124C56.1243 4.60986 55.9616 4.55859 55.7646 4.55859C55.5726 4.55859 55.418 4.60173 55.3008 4.68799C55.1852 4.77262 55.1274 4.8833 55.1274 5.02002C55.1274 5.15186 55.1755 5.25439 55.2715 5.32764C55.3691 5.39925 55.5457 5.46517 55.8013 5.52539C56.0584 5.58561 56.2505 5.6499 56.3774 5.71826C56.506 5.78662 56.6012 5.86882 56.6631 5.96484C56.7249 6.06087 56.7559 6.17725 56.7559 6.31396C56.7559 6.53695 56.6655 6.71517 56.4849 6.84863C56.3058 6.9821 56.0715 7.04883 55.7817 7.04883C55.4741 7.04883 55.2243 6.97477 55.0322 6.82666C54.8418 6.67692 54.7466 6.48812 54.7466 6.26025H55.0396C55.0509 6.43115 55.1226 6.56462 55.2544 6.66064C55.3879 6.75505 55.5636 6.80225 55.7817 6.80225C55.9852 6.80225 56.1496 6.75749 56.2749 6.66797C56.4002 6.57845 56.4629 6.46533 56.4629 6.32861Z" fill="black"/>
<line y1="12.5" x2="51" y2="12.5" stroke="black"/>
<line x1="54" y1="12.5" x2="113" y2="12.5" stroke="black"/>
<path d="M54.1528 4.44824C54.0959 4.97233 53.9079 5.37337 53.5889 5.65137C53.2721 5.92936 52.8494 6.06836 52.3208 6.06836C51.9517 6.06836 51.6247 5.97607 51.3398 5.7915C51.0573 5.60693 50.8385 5.34603 50.6836 5.00879C50.5286 4.66927 50.45 4.2819 50.4478 3.84668V3.20068C50.4478 2.75863 50.5252 2.3667 50.6802 2.0249C50.8351 1.68311 51.0573 1.41992 51.3467 1.23535C51.6383 1.0485 51.9733 0.955078 52.3516 0.955078C52.8848 0.955078 53.3052 1.09977 53.6128 1.38916C53.9227 1.67627 54.1027 2.07389 54.1528 2.58203H53.729C53.6242 1.73665 53.165 1.31396 52.3516 1.31396C51.9004 1.31396 51.5404 1.48258 51.2715 1.81982C51.0049 2.15706 50.8716 2.62305 50.8716 3.21777V3.82617C50.8716 4.40039 51.0015 4.8584 51.2612 5.2002C51.5233 5.54199 51.8765 5.71289 52.3208 5.71289C52.7606 5.71289 53.0921 5.60807 53.3154 5.39844C53.5387 5.18652 53.6766 4.86979 53.729 4.44824H54.1528Z" fill="black"/>
<line x1="51.5" y1="16" x2="51.5" y2="9" stroke="black"/>
<line x1="53.5" y1="16" x2="53.5" y2="9" stroke="black"/>
<line y1="38.5" x2="34" y2="38.5" stroke="black"/>
<line x1="34" y1="38.5" x2="113" y2="38.5" stroke="black"/>
<line y1="38.5" x2="34" y2="38.5" stroke="black"/>
<line x1="34" y1="38.5" x2="113" y2="38.5" stroke="black"/>
<rect x="110.5" y="19.5" width="4" height="11" stroke="black"/>
<path d="M112.5 13V20" stroke="black"/>
<path d="M81.5 13V20" stroke="black"/>
<path d="M81.5 31V38" stroke="black"/>
<path d="M81.5 26V33" stroke="black"/>
<path d="M81.5 17V24" stroke="black"/>
<line x1="112.5" y1="31" x2="112.5" y2="38" stroke="black"/>
<line y1="12.5" x2="45" y2="12.5" stroke="black"/>
<line x1="60" y1="12.5" x2="113" y2="12.5" stroke="black"/>
<path d="M116.817 27.6445H119.89V28H116.308V27.6821L119.261 23.3823H116.396V23.0234H119.78V23.3242L116.817 27.6445Z" fill="black"/>
<path d="M121.752 29.7461H123.507V30H121.449V26.4453H121.752V29.7461Z" fill="black"/>
<path d="M73.6528 25.4482C73.5959 25.9723 73.4079 26.3734 73.0889 26.6514C72.7721 26.9294 72.3494 27.0684 71.8208 27.0684C71.4517 27.0684 71.1247 26.9761 70.8398 26.7915C70.5573 26.6069 70.3385 26.346 70.1836 26.0088C70.0286 25.6693 69.95 25.2819 69.9478 24.8467V24.2007C69.9478 23.7586 70.0252 23.3667 70.1802 23.0249C70.3351 22.6831 70.5573 22.4199 70.8467 22.2354C71.1383 22.0485 71.4733 21.9551 71.8516 21.9551C72.3848 21.9551 72.8052 22.0998 73.1128 22.3892C73.4227 22.6763 73.6027 23.0739 73.6528 23.582H73.229C73.1242 22.7367 72.665 22.314 71.8516 22.314C71.4004 22.314 71.0404 22.4826 70.7715 22.8198C70.5049 23.1571 70.3716 23.623 70.3716 24.2178V24.8262C70.3716 25.4004 70.5015 25.8584 70.7612 26.2002C71.0233 26.542 71.3765 26.7129 71.8208 26.7129C72.2606 26.7129 72.5921 26.6081 72.8154 26.3984C73.0387 26.1865 73.1766 25.8698 73.229 25.4482H73.6528Z" fill="black"/>
<line x1="78" y1="25.5" x2="85" y2="25.5" stroke="black"/>
<line x1="78" y1="23.5" x2="85" y2="23.5" stroke="black"/>
<path d="M76.5049 26.7061C76.5049 27.1178 76.4137 27.445 76.2314 27.6875C76.0492 27.9284 75.805 28.0488 75.499 28.0488C75.1377 28.0488 74.861 27.9219 74.6689 27.668V29.0156H74.3784V25.3584H74.6494L74.6641 25.7319C74.8545 25.4504 75.1304 25.3096 75.4917 25.3096C75.8075 25.3096 76.0549 25.4292 76.2339 25.6685C76.4146 25.9077 76.5049 26.2397 76.5049 26.6646V26.7061ZM76.2119 26.6548C76.2119 26.3179 76.1427 26.0518 76.0044 25.8564C75.866 25.6611 75.6732 25.5635 75.4258 25.5635C75.2467 25.5635 75.0929 25.6066 74.9644 25.6929C74.8358 25.7791 74.7373 25.9045 74.6689 26.0688V27.3359C74.7389 27.4873 74.839 27.6029 74.9692 27.6826C75.0994 27.7624 75.2533 27.8022 75.4307 27.8022C75.6764 27.8022 75.8677 27.7046 76.0044 27.5093C76.1427 27.3123 76.2119 27.0275 76.2119 26.6548Z" fill="black"/>
<path d="M81.5 13V20" stroke="black"/>
<path d="M81.5 31V38" stroke="black"/>
<path d="M81.5 26V33" stroke="black"/>
<path d="M81.5 17V24" stroke="black"/>
<line y1="12.5" x2="45" y2="12.5" stroke="black"/>
<line x1="60" y1="12.5" x2="113" y2="12.5" stroke="black"/>
<path d="M73.6528 25.4482C73.5959 25.9723 73.4079 26.3734 73.0889 26.6514C72.7721 26.9294 72.3494 27.0684 71.8208 27.0684C71.4517 27.0684 71.1247 26.9761 70.8398 26.7915C70.5573 26.6069 70.3385 26.346 70.1836 26.0088C70.0286 25.6693 69.95 25.2819 69.9478 24.8467V24.2007C69.9478 23.7586 70.0252 23.3667 70.1802 23.0249C70.3351 22.6831 70.5573 22.4199 70.8467 22.2354C71.1383 22.0485 71.4733 21.9551 71.8516 21.9551C72.3848 21.9551 72.8052 22.0998 73.1128 22.3892C73.4227 22.6763 73.6027 23.0739 73.6528 23.582H73.229C73.1242 22.7367 72.665 22.314 71.8516 22.314C71.4004 22.314 71.0404 22.4826 70.7715 22.8198C70.5049 23.1571 70.3716 23.623 70.3716 24.2178V24.8262C70.3716 25.4004 70.5015 25.8584 70.7612 26.2002C71.0233 26.542 71.3765 26.7129 71.8208 26.7129C72.2606 26.7129 72.5921 26.6081 72.8154 26.3984C73.0387 26.1865 73.1766 25.8698 73.229 25.4482H73.6528Z" fill="black"/>
<line x1="78" y1="25.5" x2="85" y2="25.5" stroke="black"/>
<line x1="78" y1="23.5" x2="85" y2="23.5" stroke="black"/>
<path d="M76.5049 26.7061C76.5049 27.1178 76.4137 27.445 76.2314 27.6875C76.0492 27.9284 75.805 28.0488 75.499 28.0488C75.1377 28.0488 74.861 27.9219 74.6689 27.668V29.0156H74.3784V25.3584H74.6494L74.6641 25.7319C74.8545 25.4504 75.1304 25.3096 75.4917 25.3096C75.8075 25.3096 76.0549 25.4292 76.2339 25.6685C76.4146 25.9077 76.5049 26.2397 76.5049 26.6646V26.7061ZM76.2119 26.6548C76.2119 26.3179 76.1427 26.0518 76.0044 25.8564C75.866 25.6611 75.6732 25.5635 75.4258 25.5635C75.2467 25.5635 75.0929 25.6066 74.9644 25.6929C74.8358 25.7791 74.7373 25.9045 74.6689 26.0688V27.3359C74.7389 27.4873 74.839 27.6029 74.9692 27.6826C75.0994 27.7624 75.2533 27.8022 75.4307 27.8022C75.6764 27.8022 75.8677 27.7046 76.0044 27.5093C76.1427 27.3123 76.2119 27.0275 76.2119 26.6548Z" fill="black"/>
</svg>
