<svg width="124" height="39" viewBox="0 0 124 39" fill="none" xmlns="http://www.w3.org/2000/svg">
<path d="M81 27C81.2626 27 81.5227 27.0517 81.7654 27.1522C82.008 27.2528 82.2285 27.4001 82.4142 27.5858C82.5999 27.7715 82.7472 27.992 82.8478 28.2346C82.9483 28.4773 83 28.7374 83 29C83 29.2626 82.9483 29.5227 82.8478 29.7654C82.7472 30.008 82.5999 30.2285 82.4142 30.4142C82.2285 30.5999 82.008 30.7472 81.7654 30.8478C81.5227 30.9483 81.2626 31 81 31V30.8664C81.2451 30.8664 81.4878 30.8182 81.7143 30.7244C81.9407 30.6306 82.1465 30.4931 82.3198 30.3198C82.4931 30.1465 82.6306 29.9407 82.7244 29.7143C82.8182 29.4878 82.8664 29.2451 82.8664 29C82.8664 28.7549 82.8182 28.5122 82.7244 28.2857C82.6306 28.0593 82.4931 27.8535 82.3198 27.6802C82.1465 27.5069 81.9407 27.3694 81.7143 27.2756C81.4878 27.1818 81.2451 27.1336 81 27.1336V27Z" stroke="black" stroke-width="0.8"/>
<path d="M81 23C81.2626 23 81.5227 23.0517 81.7654 23.1522C82.008 23.2528 82.2285 23.4001 82.4142 23.5858C82.5999 23.7715 82.7472 23.992 82.8478 24.2346C82.9483 24.4773 83 24.7374 83 25C83 25.2626 82.9483 25.5227 82.8478 25.7654C82.7472 26.008 82.5999 26.2285 82.4142 26.4142C82.2285 26.5999 82.008 26.7472 81.7654 26.8478C81.5227 26.9483 81.2626 27 81 27V26.8664C81.2451 26.8664 81.4878 26.8182 81.7143 26.7244C81.9407 26.6306 82.1465 26.4931 82.3198 26.3198C82.4931 26.1465 82.6306 25.9407 82.7244 25.7143C82.8182 25.4878 82.8664 25.2451 82.8664 25C82.8664 24.7549 82.8182 24.5122 82.7244 24.2857C82.6306 24.0593 82.4931 23.8535 82.3198 23.6802C82.1465 23.5069 81.9407 23.3694 81.7143 23.2756C81.4878 23.1818 81.2451 23.1336 81 23.1336V23Z" stroke="black" stroke-width="0.8"/>
<path d="M81 19C81.2626 19 81.5227 19.0517 81.7654 19.1522C82.008 19.2528 82.2285 19.4001 82.4142 19.5858C82.5999 19.7715 82.7472 19.992 82.8478 20.2346C82.9483 20.4773 83 20.7374 83 21C83 21.2626 82.9483 21.5227 82.8478 21.7654C82.7472 22.008 82.5999 22.2285 82.4142 22.4142C82.2285 22.5999 82.008 22.7472 81.7654 22.8478C81.5227 22.9483 81.2626 23 81 23V22.8664C81.2451 22.8664 81.4878 22.8182 81.7143 22.7244C81.9407 22.6306 82.1465 22.4931 82.3198 22.3198C82.4931 22.1465 82.6306 21.9407 82.7244 21.7143C82.8182 21.4878 82.8664 21.2451 82.8664 21C82.8664 20.7549 82.8182 20.5122 82.7244 20.2857C82.6306 20.0593 82.4931 19.8535 82.3198 19.6802C82.1465 19.5069 81.9407 19.3694 81.7143 19.2756C81.4878 19.1818 81.2451 19.1336 81 19.1336V19Z" stroke="black" stroke-width="0.8"/>
<rect x="110.5" y="19.5" width="4" height="11" stroke="black"/>
<path d="M112.5 13V20" stroke="black"/>
<path d="M81.5 13V19" stroke="black"/>
<path d="M81.5 31V38" stroke="black"/>
<line x1="112.5" y1="31" x2="112.5" y2="38" stroke="black"/>
<line y1="12.5" x2="45" y2="12.5" stroke="black"/>
<line x1="60" y1="12.5" x2="113" y2="12.5" stroke="black"/>
<line y1="38.5" x2="34" y2="38.5" stroke="black"/>
<line x1="34" y1="38.5" x2="113" y2="38.5" stroke="black"/>
<path d="M116.817 27.6445H119.89V28H116.308V27.6821L119.261 23.3823H116.396V23.0234H119.78V23.3242L116.817 27.6445Z" fill="black"/>
<path d="M121.752 29.7461H123.507V30H121.449V26.4453H121.752V29.7461Z" fill="black"/>
<path d="M54.1528 4.44824C54.0959 4.97233 53.9079 5.37337 53.5889 5.65137C53.2721 5.92936 52.8494 6.06836 52.3208 6.06836C51.9517 6.06836 51.6247 5.97607 51.3398 5.7915C51.0573 5.60693 50.8385 5.34603 50.6836 5.00879C50.5286 4.66927 50.45 4.2819 50.4478 3.84668V3.20068C50.4478 2.75863 50.5252 2.3667 50.6802 2.0249C50.8351 1.68311 51.0573 1.41992 51.3467 1.23535C51.6383 1.0485 51.9733 0.955078 52.3516 0.955078C52.8848 0.955078 53.3052 1.09977 53.6128 1.38916C53.9227 1.67627 54.1027 2.07389 54.1528 2.58203H53.729C53.6242 1.73665 53.165 1.31396 52.3516 1.31396C51.9004 1.31396 51.5404 1.48258 51.2715 1.81982C51.0049 2.15706 50.8716 2.62305 50.8716 3.21777V3.82617C50.8716 4.40039 51.0015 4.8584 51.2612 5.2002C51.5233 5.54199 51.8765 5.71289 52.3208 5.71289C52.7606 5.71289 53.0921 5.60807 53.3154 5.39844C53.5387 5.18652 53.6766 4.86979 53.729 4.44824H54.1528Z" fill="black"/>
<path d="M56.4629 6.32861C56.4629 6.18376 56.4043 6.06738 56.2871 5.97949C56.1715 5.8916 55.9966 5.82324 55.7622 5.77441C55.5278 5.72396 55.3455 5.66699 55.2153 5.60352C55.0868 5.53841 54.9907 5.45947 54.9272 5.3667C54.8654 5.27393 54.8345 5.16162 54.8345 5.02979C54.8345 4.82145 54.9215 4.64974 55.0957 4.51465C55.2699 4.37793 55.4928 4.30957 55.7646 4.30957C56.0592 4.30957 56.2952 4.38281 56.4727 4.5293C56.6517 4.67415 56.7412 4.86377 56.7412 5.09814H56.4482C56.4482 4.94352 56.3831 4.81494 56.2529 4.7124C56.1243 4.60986 55.9616 4.55859 55.7646 4.55859C55.5726 4.55859 55.418 4.60173 55.3008 4.68799C55.1852 4.77262 55.1274 4.8833 55.1274 5.02002C55.1274 5.15186 55.1755 5.25439 55.2715 5.32764C55.3691 5.39925 55.5457 5.46517 55.8013 5.52539C56.0584 5.58561 56.2505 5.6499 56.3774 5.71826C56.506 5.78662 56.6012 5.86882 56.6631 5.96484C56.7249 6.06087 56.7559 6.17725 56.7559 6.31396C56.7559 6.53695 56.6655 6.71517 56.4849 6.84863C56.3058 6.9821 56.0715 7.04883 55.7817 7.04883C55.4741 7.04883 55.2243 6.97477 55.0322 6.82666C54.8418 6.67692 54.7466 6.48812 54.7466 6.26025H55.0396C55.0509 6.43115 55.1226 6.56462 55.2544 6.66064C55.3879 6.75505 55.5636 6.80225 55.7817 6.80225C55.9852 6.80225 56.1496 6.75749 56.2749 6.66797C56.4002 6.57845 56.4629 6.46533 56.4629 6.32861Z" fill="black"/>
<path d="M87.0527 26.6445H89.5103V27H86.6289V22.0234H87.0527V26.6445Z" fill="black"/>
<path d="M92.5049 26.7061C92.5049 27.1178 92.4137 27.445 92.2314 27.6875C92.0492 27.9284 91.805 28.0488 91.499 28.0488C91.1377 28.0488 90.861 27.9219 90.6689 27.668V29.0156H90.3784V25.3584H90.6494L90.6641 25.7319C90.8545 25.4504 91.1304 25.3096 91.4917 25.3096C91.8075 25.3096 92.0549 25.4292 92.2339 25.6685C92.4146 25.9077 92.5049 26.2397 92.5049 26.6646V26.7061ZM92.2119 26.6548C92.2119 26.3179 92.1427 26.0518 92.0044 25.8564C91.866 25.6611 91.6732 25.5635 91.4258 25.5635C91.2467 25.5635 91.0929 25.6066 90.9644 25.6929C90.8358 25.7791 90.7373 25.9045 90.6689 26.0688V27.3359C90.7389 27.4873 90.839 27.6029 90.9692 27.6826C91.0994 27.7624 91.2533 27.8022 91.4307 27.8022C91.6764 27.8022 91.8677 27.7046 92.0044 27.5093C92.1427 27.3123 92.2119 27.0275 92.2119 26.6548Z" fill="black"/>
<path d="M81.5 31V38" stroke="black"/>
<line y1="12.5" x2="51" y2="12.5" stroke="black"/>
<line x1="54" y1="12.5" x2="113" y2="12.5" stroke="black"/>
<line y1="38.5" x2="34" y2="38.5" stroke="black"/>
<line x1="34" y1="38.5" x2="113" y2="38.5" stroke="black"/>
<path d="M54.1528 4.44824C54.0959 4.97233 53.9079 5.37337 53.5889 5.65137C53.2721 5.92936 52.8494 6.06836 52.3208 6.06836C51.9517 6.06836 51.6247 5.97607 51.3398 5.7915C51.0573 5.60693 50.8385 5.34603 50.6836 5.00879C50.5286 4.66927 50.45 4.2819 50.4478 3.84668V3.20068C50.4478 2.75863 50.5252 2.3667 50.6802 2.0249C50.8351 1.68311 51.0573 1.41992 51.3467 1.23535C51.6383 1.0485 51.9733 0.955078 52.3516 0.955078C52.8848 0.955078 53.3052 1.09977 53.6128 1.38916C53.9227 1.67627 54.1027 2.07389 54.1528 2.58203H53.729C53.6242 1.73665 53.165 1.31396 52.3516 1.31396C51.9004 1.31396 51.5404 1.48258 51.2715 1.81982C51.0049 2.15706 50.8716 2.62305 50.8716 3.21777V3.82617C50.8716 4.40039 51.0015 4.8584 51.2612 5.2002C51.5233 5.54199 51.8765 5.71289 52.3208 5.71289C52.7606 5.71289 53.0921 5.60807 53.3154 5.39844C53.5387 5.18652 53.6766 4.86979 53.729 4.44824H54.1528Z" fill="black"/>
<line x1="51.5" y1="16" x2="51.5" y2="9" stroke="black"/>
<line x1="53.5" y1="16" x2="53.5" y2="9" stroke="black"/>
<path d="M87.0527 26.6445H89.5103V27H86.6289V22.0234H87.0527V26.6445Z" fill="black"/>
</svg>
