<svg width="124" height="37" viewBox="0 0 124 37" fill="none" xmlns="http://www.w3.org/2000/svg">
<line y1="36.5" x2="34" y2="36.5" stroke="black"/>
<line x1="34" y1="36.5" x2="113" y2="36.5" stroke="black"/>
<line y1="36.5" x2="34" y2="36.5" stroke="black"/>
<line x1="34" y1="36.5" x2="113" y2="36.5" stroke="black"/>
<path d="M45 10.5C45 10.2374 45.0647 9.97728 45.1903 9.73463C45.3159 9.49198 45.5001 9.2715 45.7322 9.08579C45.9644 8.90007 46.24 8.75275 46.5433 8.65224C46.8466 8.55173 47.1717 8.5 47.5 8.5C47.8283 8.5 48.1534 8.55173 48.4567 8.65224C48.76 8.75275 49.0356 8.90007 49.2678 9.08579C49.4999 9.2715 49.6841 9.49198 49.8097 9.73463C49.9353 9.97728 50 10.2374 50 10.5H49.8331C49.8331 10.2549 49.7727 10.0122 49.6555 9.78574C49.5382 9.5593 49.3664 9.35354 49.1497 9.18023C48.9331 9.00691 48.6759 8.86943 48.3928 8.77563C48.1098 8.68183 47.8064 8.63356 47.5 8.63356C47.1936 8.63356 46.8902 8.68183 46.6072 8.77563C46.3241 8.86943 46.0669 9.00691 45.8503 9.18023C45.6336 9.35354 45.4618 9.5593 45.3445 9.78574C45.2273 10.0122 45.1669 10.2549 45.1669 10.5H45Z" stroke="black" stroke-width="0.8"/>
<path d="M50 10.5C50 10.2374 50.0647 9.97728 50.1903 9.73463C50.3159 9.49198 50.5001 9.2715 50.7322 9.08579C50.9644 8.90007 51.24 8.75275 51.5433 8.65224C51.8466 8.55173 52.1717 8.5 52.5 8.5C52.8283 8.5 53.1534 8.55173 53.4567 8.65224C53.76 8.75275 54.0356 8.90007 54.2678 9.08579C54.4999 9.2715 54.6841 9.49198 54.8097 9.73463C54.9353 9.97728 55 10.2374 55 10.5H54.8331C54.8331 10.2549 54.7727 10.0122 54.6555 9.78574C54.5382 9.5593 54.3664 9.35354 54.1497 9.18023C53.9331 9.00691 53.6759 8.86943 53.3928 8.77563C53.1098 8.68183 52.8064 8.63356 52.5 8.63356C52.1936 8.63356 51.8902 8.68183 51.6072 8.77563C51.3241 8.86943 51.0669 9.00691 50.8503 9.18023C50.6336 9.35354 50.4618 9.5593 50.3445 9.78574C50.2273 10.0122 50.1669 10.2549 50.1669 10.5H50Z" stroke="black" stroke-width="0.8"/>
<path d="M55 10.5C55 10.2374 55.0647 9.97728 55.1903 9.73463C55.3159 9.49198 55.5001 9.2715 55.7322 9.08579C55.9644 8.90007 56.24 8.75275 56.5433 8.65224C56.8466 8.55173 57.1717 8.5 57.5 8.5C57.8283 8.5 58.1534 8.55173 58.4567 8.65224C58.76 8.75275 59.0356 8.90007 59.2678 9.08579C59.4999 9.2715 59.6841 9.49198 59.8097 9.73463C59.9353 9.97728 60 10.2374 60 10.5H59.8331C59.8331 10.2549 59.7727 10.0122 59.6555 9.78574C59.5382 9.5593 59.3664 9.35354 59.1497 9.18023C58.9331 9.00691 58.6759 8.86943 58.3928 8.77563C58.1098 8.68183 57.8064 8.63356 57.5 8.63356C57.1936 8.63356 56.8902 8.68183 56.6072 8.77563C56.3241 8.86943 56.0669 9.00691 55.8503 9.18023C55.6336 9.35354 55.4618 9.5593 55.3445 9.78574C55.2273 10.0122 55.1669 10.2549 55.1669 10.5H55Z" stroke="black" stroke-width="0.8"/>
<rect x="110.5" y="17.5" width="4" height="11" stroke="black"/>
<path d="M112.5 11V18" stroke="black"/>
<path d="M81.5 11V18" stroke="black"/>
<path d="M81.5 29V36" stroke="black"/>
<path d="M81.5 24V31" stroke="black"/>
<path d="M81.5 15V22" stroke="black"/>
<line x1="112.5" y1="29" x2="112.5" y2="36" stroke="black"/>
<line y1="10.5" x2="45" y2="10.5" stroke="black"/>
<line x1="60" y1="10.5" x2="113" y2="10.5" stroke="black"/>
<path d="M116.817 25.6445H119.89V26H116.308V25.6821L119.261 21.3823H116.396V21.0234H119.78V21.3242L116.817 25.6445Z" fill="black"/>
<path d="M121.752 27.7461H123.507V28H121.449V24.4453H121.752V27.7461Z" fill="black"/>
<path d="M73.6528 23.4482C73.5959 23.9723 73.4079 24.3734 73.0889 24.6514C72.7721 24.9294 72.3494 25.0684 71.8208 25.0684C71.4517 25.0684 71.1247 24.9761 70.8398 24.7915C70.5573 24.6069 70.3385 24.346 70.1836 24.0088C70.0286 23.6693 69.95 23.2819 69.9478 22.8467V22.2007C69.9478 21.7586 70.0252 21.3667 70.1802 21.0249C70.3351 20.6831 70.5573 20.4199 70.8467 20.2354C71.1383 20.0485 71.4733 19.9551 71.8516 19.9551C72.3848 19.9551 72.8052 20.0998 73.1128 20.3892C73.4227 20.6763 73.6027 21.0739 73.6528 21.582H73.229C73.1242 20.7367 72.665 20.314 71.8516 20.314C71.4004 20.314 71.0404 20.4826 70.7715 20.8198C70.5049 21.1571 70.3716 21.623 70.3716 22.2178V22.8262C70.3716 23.4004 70.5015 23.8584 70.7612 24.2002C71.0233 24.542 71.3765 24.7129 71.8208 24.7129C72.2606 24.7129 72.5921 24.6081 72.8154 24.3984C73.0387 24.1865 73.1766 23.8698 73.229 23.4482H73.6528Z" fill="black"/>
<line x1="78" y1="23.5" x2="85" y2="23.5" stroke="black"/>
<line x1="78" y1="21.5" x2="85" y2="21.5" stroke="black"/>
<path d="M76.5049 24.7061C76.5049 25.1178 76.4137 25.445 76.2314 25.6875C76.0492 25.9284 75.805 26.0488 75.499 26.0488C75.1377 26.0488 74.861 25.9219 74.6689 25.668V27.0156H74.3784V23.3584H74.6494L74.6641 23.7319C74.8545 23.4504 75.1304 23.3096 75.4917 23.3096C75.8075 23.3096 76.0549 23.4292 76.2339 23.6685C76.4146 23.9077 76.5049 24.2397 76.5049 24.6646V24.7061ZM76.2119 24.6548C76.2119 24.3179 76.1427 24.0518 76.0044 23.8564C75.866 23.6611 75.6732 23.5635 75.4258 23.5635C75.2467 23.5635 75.0929 23.6066 74.9644 23.6929C74.8358 23.7791 74.7373 23.9045 74.6689 24.0688V25.3359C74.7389 25.4873 74.839 25.6029 74.9692 25.6826C75.0994 25.7624 75.2533 25.8022 75.4307 25.8022C75.6764 25.8022 75.8677 25.7046 76.0044 25.5093C76.1427 25.3123 76.2119 25.0275 76.2119 24.6548Z" fill="black"/>
<path d="M50.0527 5.64453H52.5103V6H49.6289V1.02344H50.0527V5.64453Z" fill="black"/>
<path d="M54.9629 6.32861C54.9629 6.18376 54.9043 6.06738 54.7871 5.97949C54.6715 5.8916 54.4966 5.82324 54.2622 5.77441C54.0278 5.72396 53.8455 5.66699 53.7153 5.60352C53.5868 5.53841 53.4907 5.45947 53.4272 5.3667C53.3654 5.27393 53.3345 5.16162 53.3345 5.02979C53.3345 4.82145 53.4215 4.64974 53.5957 4.51465C53.7699 4.37793 53.9928 4.30957 54.2646 4.30957C54.5592 4.30957 54.7952 4.38281 54.9727 4.5293C55.1517 4.67415 55.2412 4.86377 55.2412 5.09814H54.9482C54.9482 4.94352 54.8831 4.81494 54.7529 4.7124C54.6243 4.60986 54.4616 4.55859 54.2646 4.55859C54.0726 4.55859 53.918 4.60173 53.8008 4.68799C53.6852 4.77262 53.6274 4.8833 53.6274 5.02002C53.6274 5.15186 53.6755 5.25439 53.7715 5.32764C53.8691 5.39925 54.0457 5.46517 54.3013 5.52539C54.5584 5.58561 54.7505 5.6499 54.8774 5.71826C55.006 5.78662 55.1012 5.86882 55.1631 5.96484C55.2249 6.06087 55.2559 6.17725 55.2559 6.31396C55.2559 6.53695 55.1655 6.71517 54.9849 6.84863C54.8058 6.9821 54.5715 7.04883 54.2817 7.04883C53.9741 7.04883 53.7243 6.97477 53.5322 6.82666C53.3418 6.67692 53.2466 6.48812 53.2466 6.26025H53.5396C53.5509 6.43115 53.6226 6.56462 53.7544 6.66064C53.8879 6.75505 54.0636 6.80225 54.2817 6.80225C54.4852 6.80225 54.6496 6.75749 54.7749 6.66797C54.9002 6.57845 54.9629 6.46533 54.9629 6.32861Z" fill="black"/>
<path d="M81.5 11V18" stroke="black"/>
<path d="M81.5 29V36" stroke="black"/>
<path d="M81.5 24V31" stroke="black"/>
<path d="M81.5 15V22" stroke="black"/>
<line y1="10.5" x2="45" y2="10.5" stroke="black"/>
<line x1="60" y1="10.5" x2="113" y2="10.5" stroke="black"/>
<path d="M73.6528 23.4482C73.5959 23.9723 73.4079 24.3734 73.0889 24.6514C72.7721 24.9294 72.3494 25.0684 71.8208 25.0684C71.4517 25.0684 71.1247 24.9761 70.8398 24.7915C70.5573 24.6069 70.3385 24.346 70.1836 24.0088C70.0286 23.6693 69.95 23.2819 69.9478 22.8467V22.2007C69.9478 21.7586 70.0252 21.3667 70.1802 21.0249C70.3351 20.6831 70.5573 20.4199 70.8467 20.2354C71.1383 20.0485 71.4733 19.9551 71.8516 19.9551C72.3848 19.9551 72.8052 20.0998 73.1128 20.3892C73.4227 20.6763 73.6027 21.0739 73.6528 21.582H73.229C73.1242 20.7367 72.665 20.314 71.8516 20.314C71.4004 20.314 71.0404 20.4826 70.7715 20.8198C70.5049 21.1571 70.3716 21.623 70.3716 22.2178V22.8262C70.3716 23.4004 70.5015 23.8584 70.7612 24.2002C71.0233 24.542 71.3765 24.7129 71.8208 24.7129C72.2606 24.7129 72.5921 24.6081 72.8154 24.3984C73.0387 24.1865 73.1766 23.8698 73.229 23.4482H73.6528Z" fill="black"/>
<line x1="78" y1="23.5" x2="85" y2="23.5" stroke="black"/>
<line x1="78" y1="21.5" x2="85" y2="21.5" stroke="black"/>
<path d="M76.5049 24.7061C76.5049 25.1178 76.4137 25.445 76.2314 25.6875C76.0492 25.9284 75.805 26.0488 75.499 26.0488C75.1377 26.0488 74.861 25.9219 74.6689 25.668V27.0156H74.3784V23.3584H74.6494L74.6641 23.7319C74.8545 23.4504 75.1304 23.3096 75.4917 23.3096C75.8075 23.3096 76.0549 23.4292 76.2339 23.6685C76.4146 23.9077 76.5049 24.2397 76.5049 24.6646V24.7061ZM76.2119 24.6548C76.2119 24.3179 76.1427 24.0518 76.0044 23.8564C75.866 23.6611 75.6732 23.5635 75.4258 23.5635C75.2467 23.5635 75.0929 23.6066 74.9644 23.6929C74.8358 23.7791 74.7373 23.9045 74.6689 24.0688V25.3359C74.7389 25.4873 74.839 25.6029 74.9692 25.6826C75.0994 25.7624 75.2533 25.8022 75.4307 25.8022C75.6764 25.8022 75.8677 25.7046 76.0044 25.5093C76.1427 25.3123 76.2119 25.0275 76.2119 24.6548Z" fill="black"/>
<path d="M50.0527 5.64453H52.5103V6H49.6289V1.02344H50.0527V5.64453Z" fill="black"/>
<path d="M54.9629 6.32861C54.9629 6.18376 54.9043 6.06738 54.7871 5.97949C54.6715 5.8916 54.4966 5.82324 54.2622 5.77441C54.0278 5.72396 53.8455 5.66699 53.7153 5.60352C53.5868 5.53841 53.4907 5.45947 53.4272 5.3667C53.3654 5.27393 53.3345 5.16162 53.3345 5.02979C53.3345 4.82145 53.4215 4.64974 53.5957 4.51465C53.7699 4.37793 53.9928 4.30957 54.2646 4.30957C54.5592 4.30957 54.7952 4.38281 54.9727 4.5293C55.1517 4.67415 55.2412 4.86377 55.2412 5.09814H54.9482C54.9482 4.94352 54.8831 4.81494 54.7529 4.7124C54.6243 4.60986 54.4616 4.55859 54.2646 4.55859C54.0726 4.55859 53.918 4.60173 53.8008 4.68799C53.6852 4.77262 53.6274 4.8833 53.6274 5.02002C53.6274 5.15186 53.6755 5.25439 53.7715 5.32764C53.8691 5.39925 54.0457 5.46517 54.3013 5.52539C54.5584 5.58561 54.7505 5.6499 54.8774 5.71826C55.006 5.78662 55.1012 5.86882 55.1631 5.96484C55.2249 6.06087 55.2559 6.17725 55.2559 6.31396C55.2559 6.53695 55.1655 6.71517 54.9849 6.84863C54.8058 6.9821 54.5715 7.04883 54.2817 7.04883C53.9741 7.04883 53.7243 6.97477 53.5322 6.82666C53.3418 6.67692 53.2466 6.48812 53.2466 6.26025H53.5396C53.5509 6.43115 53.6226 6.56462 53.7544 6.66064C53.8879 6.75505 54.0636 6.80225 54.2817 6.80225C54.4852 6.80225 54.6496 6.75749 54.7749 6.66797C54.9002 6.57845 54.9629 6.46533 54.9629 6.32861Z" fill="black"/>
</svg>
