<svg width="124" height="37" viewBox="0 0 124 37" fill="none" xmlns="http://www.w3.org/2000/svg">
<path d="M78 10.5C78 10.2374 78.0647 9.97728 78.1903 9.73463C78.3159 9.49198 78.5001 9.2715 78.7322 9.08579C78.9644 8.90007 79.24 8.75275 79.5433 8.65224C79.8466 8.55173 80.1717 8.5 80.5 8.5C80.8283 8.5 81.1534 8.55173 81.4567 8.65224C81.76 8.75275 82.0356 8.90007 82.2678 9.08579C82.4999 9.2715 82.6841 9.49198 82.8097 9.73463C82.9353 9.97728 83 10.2374 83 10.5H82.8331C82.8331 10.2549 82.7727 10.0122 82.6555 9.78574C82.5382 9.5593 82.3664 9.35354 82.1497 9.18023C81.9331 9.00691 81.6759 8.86943 81.3928 8.77563C81.1098 8.68183 80.8064 8.63356 80.5 8.63356C80.1936 8.63356 79.8902 8.68183 79.6072 8.77563C79.3241 8.86943 79.0669 9.00691 78.8503 9.18023C78.6336 9.35354 78.4618 9.5593 78.3445 9.78574C78.2273 10.0122 78.1669 10.2549 78.1669 10.5H78Z" stroke="black" stroke-width="0.8"/>
<path d="M83 10.5C83 10.2374 83.0647 9.97728 83.1903 9.73463C83.3159 9.49198 83.5001 9.2715 83.7322 9.08579C83.9644 8.90007 84.24 8.75275 84.5433 8.65224C84.8466 8.55173 85.1717 8.5 85.5 8.5C85.8283 8.5 86.1534 8.55173 86.4567 8.65224C86.76 8.75275 87.0356 8.90007 87.2678 9.08579C87.4999 9.2715 87.6841 9.49198 87.8097 9.73463C87.9353 9.97728 88 10.2374 88 10.5H87.8331C87.8331 10.2549 87.7727 10.0122 87.6555 9.78574C87.5382 9.5593 87.3664 9.35354 87.1497 9.18023C86.9331 9.00691 86.6759 8.86943 86.3928 8.77563C86.1098 8.68183 85.8064 8.63356 85.5 8.63356C85.1936 8.63356 84.8902 8.68183 84.6072 8.77563C84.3241 8.86943 84.0669 9.00691 83.8503 9.18023C83.6336 9.35354 83.4618 9.5593 83.3445 9.78574C83.2273 10.0122 83.1669 10.2549 83.1669 10.5H83Z" stroke="black" stroke-width="0.8"/>
<path d="M88 10.5C88 10.2374 88.0647 9.97728 88.1903 9.73463C88.3159 9.49198 88.5001 9.2715 88.7322 9.08579C88.9644 8.90007 89.24 8.75275 89.5433 8.65224C89.8466 8.55173 90.1717 8.5 90.5 8.5C90.8283 8.5 91.1534 8.55173 91.4567 8.65224C91.76 8.75275 92.0356 8.90007 92.2678 9.08579C92.4999 9.2715 92.6841 9.49198 92.8097 9.73463C92.9353 9.97728 93 10.2374 93 10.5H92.8331C92.8331 10.2549 92.7727 10.0122 92.6555 9.78574C92.5382 9.5593 92.3664 9.35354 92.1497 9.18023C91.9331 9.00691 91.6759 8.86943 91.3928 8.77563C91.1098 8.68183 90.8064 8.63356 90.5 8.63356C90.1936 8.63356 89.8902 8.68183 89.6072 8.77563C89.3241 8.86943 89.0669 9.00691 88.8503 9.18023C88.6336 9.35354 88.4618 9.5593 88.3445 9.78574C88.2273 10.0122 88.1669 10.2549 88.1669 10.5H88Z" stroke="black" stroke-width="0.8"/>
<path d="M83.0527 5.64453H85.5103V6H82.6289V1.02344H83.0527V5.64453Z" fill="black"/>
<path d="M87.9629 6.32861C87.9629 6.18376 87.9043 6.06738 87.7871 5.97949C87.6715 5.8916 87.4966 5.82324 87.2622 5.77441C87.0278 5.72396 86.8455 5.66699 86.7153 5.60352C86.5868 5.53841 86.4907 5.45947 86.4272 5.3667C86.3654 5.27393 86.3345 5.16162 86.3345 5.02979C86.3345 4.82145 86.4215 4.64974 86.5957 4.51465C86.7699 4.37793 86.9928 4.30957 87.2646 4.30957C87.5592 4.30957 87.7952 4.38281 87.9727 4.5293C88.1517 4.67415 88.2412 4.86377 88.2412 5.09814H87.9482C87.9482 4.94352 87.8831 4.81494 87.7529 4.7124C87.6243 4.60986 87.4616 4.55859 87.2646 4.55859C87.0726 4.55859 86.918 4.60173 86.8008 4.68799C86.6852 4.77262 86.6274 4.8833 86.6274 5.02002C86.6274 5.15186 86.6755 5.25439 86.7715 5.32764C86.8691 5.39925 87.0457 5.46517 87.3013 5.52539C87.5584 5.58561 87.7505 5.6499 87.8774 5.71826C88.006 5.78662 88.1012 5.86882 88.1631 5.96484C88.2249 6.06087 88.2559 6.17725 88.2559 6.31396C88.2559 6.53695 88.1655 6.71517 87.9849 6.84863C87.8058 6.9821 87.5715 7.04883 87.2817 7.04883C86.9741 7.04883 86.7243 6.97477 86.5322 6.82666C86.3418 6.67692 86.2466 6.48812 86.2466 6.26025H86.5396C86.5509 6.43115 86.6226 6.56462 86.7544 6.66064C86.8879 6.75505 87.0636 6.80225 87.2817 6.80225C87.4852 6.80225 87.6496 6.75749 87.7749 6.66797C87.9002 6.57845 87.9629 6.46533 87.9629 6.32861Z" fill="black"/>
<path d="M83.0527 5.64453H85.5103V6H82.6289V1.02344H83.0527V5.64453Z" fill="black"/>
<path d="M87.9629 6.32861C87.9629 6.18376 87.9043 6.06738 87.7871 5.97949C87.6715 5.8916 87.4966 5.82324 87.2622 5.77441C87.0278 5.72396 86.8455 5.66699 86.7153 5.60352C86.5868 5.53841 86.4907 5.45947 86.4272 5.3667C86.3654 5.27393 86.3345 5.16162 86.3345 5.02979C86.3345 4.82145 86.4215 4.64974 86.5957 4.51465C86.7699 4.37793 86.9928 4.30957 87.2646 4.30957C87.5592 4.30957 87.7952 4.38281 87.9727 4.5293C88.1517 4.67415 88.2412 4.86377 88.2412 5.09814H87.9482C87.9482 4.94352 87.8831 4.81494 87.7529 4.7124C87.6243 4.60986 87.4616 4.55859 87.2646 4.55859C87.0726 4.55859 86.918 4.60173 86.8008 4.68799C86.6852 4.77262 86.6274 4.8833 86.6274 5.02002C86.6274 5.15186 86.6755 5.25439 86.7715 5.32764C86.8691 5.39925 87.0457 5.46517 87.3013 5.52539C87.5584 5.58561 87.7505 5.6499 87.8774 5.71826C88.006 5.78662 88.1012 5.86882 88.1631 5.96484C88.2249 6.06087 88.2559 6.17725 88.2559 6.31396C88.2559 6.53695 88.1655 6.71517 87.9849 6.84863C87.8058 6.9821 87.5715 7.04883 87.2817 7.04883C86.9741 7.04883 86.7243 6.97477 86.5322 6.82666C86.3418 6.67692 86.2466 6.48812 86.2466 6.26025H86.5396C86.5509 6.43115 86.6226 6.56462 86.7544 6.66064C86.8879 6.75505 87.0636 6.80225 87.2817 6.80225C87.4852 6.80225 87.6496 6.75749 87.7749 6.66797C87.9002 6.57845 87.9629 6.46533 87.9629 6.32861Z" fill="black"/>
<line y1="36.5" x2="34" y2="36.5" stroke="black"/>
<line x1="34" y1="36.5" x2="113" y2="36.5" stroke="black"/>
<line y1="36.5" x2="34" y2="36.5" stroke="black"/>
<line x1="34" y1="36.5" x2="113" y2="36.5" stroke="black"/>
<rect x="110.5" y="17.5" width="4" height="11" stroke="black"/>
<path d="M112.5 11V18" stroke="black"/>
<path d="M52.5 11V18" stroke="black"/>
<path d="M52.5 29V36" stroke="black"/>
<path d="M52.5 24V31" stroke="black"/>
<path d="M52.5 15V22" stroke="black"/>
<line x1="112.5" y1="29" x2="112.5" y2="36" stroke="black"/>
<line y1="10.5" x2="45" y2="10.5" stroke="black"/>
<path d="M116.817 25.6445H119.89V26H116.308V25.6821L119.261 21.3823H116.396V21.0234H119.78V21.3242L116.817 25.6445Z" fill="black"/>
<path d="M121.752 27.7461H123.507V28H121.449V24.4453H121.752V27.7461Z" fill="black"/>
<path d="M61.1528 23.4482C61.0959 23.9723 60.9079 24.3734 60.5889 24.6514C60.2721 24.9294 59.8494 25.0684 59.3208 25.0684C58.9517 25.0684 58.6247 24.9761 58.3398 24.7915C58.0573 24.6069 57.8385 24.346 57.6836 24.0088C57.5286 23.6693 57.45 23.2819 57.4478 22.8467V22.2007C57.4478 21.7586 57.5252 21.3667 57.6802 21.0249C57.8351 20.6831 58.0573 20.4199 58.3467 20.2354C58.6383 20.0485 58.9733 19.9551 59.3516 19.9551C59.8848 19.9551 60.3052 20.0998 60.6128 20.3892C60.9227 20.6763 61.1027 21.0739 61.1528 21.582H60.729C60.6242 20.7367 60.165 20.314 59.3516 20.314C58.9004 20.314 58.5404 20.4826 58.2715 20.8198C58.0049 21.1571 57.8716 21.623 57.8716 22.2178V22.8262C57.8716 23.4004 58.0015 23.8584 58.2612 24.2002C58.5233 24.542 58.8765 24.7129 59.3208 24.7129C59.7606 24.7129 60.0921 24.6081 60.3154 24.3984C60.5387 24.1865 60.6766 23.8698 60.729 23.4482H61.1528Z" fill="black"/>
<line x1="49" y1="23.5" x2="56" y2="23.5" stroke="black"/>
<line x1="49" y1="21.5" x2="56" y2="21.5" stroke="black"/>
<path d="M64.0049 24.7061C64.0049 25.1178 63.9137 25.445 63.7314 25.6875C63.5492 25.9284 63.305 26.0488 62.999 26.0488C62.6377 26.0488 62.361 25.9219 62.1689 25.668V27.0156H61.8784V23.3584H62.1494L62.1641 23.7319C62.3545 23.4504 62.6304 23.3096 62.9917 23.3096C63.3075 23.3096 63.5549 23.4292 63.7339 23.6685C63.9146 23.9077 64.0049 24.2397 64.0049 24.6646V24.7061ZM63.7119 24.6548C63.7119 24.3179 63.6427 24.0518 63.5044 23.8564C63.366 23.6611 63.1732 23.5635 62.9258 23.5635C62.7467 23.5635 62.5929 23.6066 62.4644 23.6929C62.3358 23.7791 62.2373 23.9045 62.1689 24.0688V25.3359C62.2389 25.4873 62.339 25.6029 62.4692 25.6826C62.5994 25.7624 62.7533 25.8022 62.9307 25.8022C63.1764 25.8022 63.3677 25.7046 63.5044 25.5093C63.6427 25.3123 63.7119 25.0275 63.7119 24.6548Z" fill="black"/>
<path d="M52.5 11V18" stroke="black"/>
<path d="M52.5 29V36" stroke="black"/>
<path d="M52.5 24V31" stroke="black"/>
<path d="M52.5 15V22" stroke="black"/>
<line y1="10.5" x2="78" y2="10.5" stroke="black"/>
<line x1="93" y1="10.5" x2="113" y2="10.5" stroke="black"/>
<path d="M61.1528 23.4482C61.0959 23.9723 60.9079 24.3734 60.5889 24.6514C60.2721 24.9294 59.8494 25.0684 59.3208 25.0684C58.9517 25.0684 58.6247 24.9761 58.3398 24.7915C58.0573 24.6069 57.8385 24.346 57.6836 24.0088C57.5286 23.6693 57.45 23.2819 57.4478 22.8467V22.2007C57.4478 21.7586 57.5252 21.3667 57.6802 21.0249C57.8351 20.6831 58.0573 20.4199 58.3467 20.2354C58.6383 20.0485 58.9733 19.9551 59.3516 19.9551C59.8848 19.9551 60.3052 20.0998 60.6128 20.3892C60.9227 20.6763 61.1027 21.0739 61.1528 21.582H60.729C60.6242 20.7367 60.165 20.314 59.3516 20.314C58.9004 20.314 58.5404 20.4826 58.2715 20.8198C58.0049 21.1571 57.8716 21.623 57.8716 22.2178V22.8262C57.8716 23.4004 58.0015 23.8584 58.2612 24.2002C58.5233 24.542 58.8765 24.7129 59.3208 24.7129C59.7606 24.7129 60.0921 24.6081 60.3154 24.3984C60.5387 24.1865 60.6766 23.8698 60.729 23.4482H61.1528Z" fill="black"/>
<line x1="49" y1="23.5" x2="56" y2="23.5" stroke="black"/>
<line x1="49" y1="21.5" x2="56" y2="21.5" stroke="black"/>
<path d="M64.0049 24.7061C64.0049 25.1178 63.9137 25.445 63.7314 25.6875C63.5492 25.9284 63.305 26.0488 62.999 26.0488C62.6377 26.0488 62.361 25.9219 62.1689 25.668V27.0156H61.8784V23.3584H62.1494L62.1641 23.7319C62.3545 23.4504 62.6304 23.3096 62.9917 23.3096C63.3075 23.3096 63.5549 23.4292 63.7339 23.6685C63.9146 23.9077 64.0049 24.2397 64.0049 24.6646V24.7061ZM63.7119 24.6548C63.7119 24.3179 63.6427 24.0518 63.5044 23.8564C63.366 23.6611 63.1732 23.5635 62.9258 23.5635C62.7467 23.5635 62.5929 23.6066 62.4644 23.6929C62.3358 23.7791 62.2373 23.9045 62.1689 24.0688V25.3359C62.2389 25.4873 62.339 25.6029 62.4692 25.6826C62.5994 25.7624 62.7533 25.8022 62.9307 25.8022C63.1764 25.8022 63.3677 25.7046 63.5044 25.5093C63.6427 25.3123 63.7119 25.0275 63.7119 24.6548Z" fill="black"/>
</svg>
