<svg width="124" height="39" viewBox="0 0 124 39" fill="none" xmlns="http://www.w3.org/2000/svg">
<path d="M52.5 13V20" stroke="black"/>
<path d="M52.5 31V38" stroke="black"/>
<path d="M52.5 26V33" stroke="black"/>
<path d="M52.5 17V24" stroke="black"/>
<path d="M61.1528 25.4482C61.0959 25.9723 60.9079 26.3734 60.5889 26.6514C60.2721 26.9294 59.8494 27.0684 59.3208 27.0684C58.9517 27.0684 58.6247 26.9761 58.3398 26.7915C58.0573 26.6069 57.8385 26.346 57.6836 26.0088C57.5286 25.6693 57.45 25.2819 57.4478 24.8467V24.2007C57.4478 23.7586 57.5252 23.3667 57.6802 23.0249C57.8351 22.6831 58.0573 22.4199 58.3467 22.2354C58.6383 22.0485 58.9733 21.9551 59.3516 21.9551C59.8848 21.9551 60.3052 22.0998 60.6128 22.3892C60.9227 22.6763 61.1027 23.0739 61.1528 23.582H60.729C60.6242 22.7367 60.165 22.314 59.3516 22.314C58.9004 22.314 58.5404 22.4826 58.2715 22.8198C58.0049 23.1571 57.8716 23.623 57.8716 24.2178V24.8262C57.8716 25.4004 58.0015 25.8584 58.2612 26.2002C58.5233 26.542 58.8765 26.7129 59.3208 26.7129C59.7606 26.7129 60.0921 26.6081 60.3154 26.3984C60.5387 26.1865 60.6766 25.8698 60.729 25.4482H61.1528Z" fill="black"/>
<line x1="49" y1="25.5" x2="56" y2="25.5" stroke="black"/>
<line x1="49" y1="23.5" x2="56" y2="23.5" stroke="black"/>
<path d="M64.0049 26.7061C64.0049 27.1178 63.9137 27.445 63.7314 27.6875C63.5492 27.9284 63.305 28.0488 62.999 28.0488C62.6377 28.0488 62.361 27.9219 62.1689 27.668V29.0156H61.8784V25.3584H62.1494L62.1641 25.7319C62.3545 25.4504 62.6304 25.3096 62.9917 25.3096C63.3075 25.3096 63.5549 25.4292 63.7339 25.6685C63.9146 25.9077 64.0049 26.2397 64.0049 26.6646V26.7061ZM63.7119 26.6548C63.7119 26.3179 63.6427 26.0518 63.5044 25.8564C63.366 25.6611 63.1732 25.5635 62.9258 25.5635C62.7467 25.5635 62.5929 25.6066 62.4644 25.6929C62.3358 25.7791 62.2373 25.9045 62.1689 26.0688V27.3359C62.2389 27.4873 62.339 27.6029 62.4692 27.6826C62.5994 27.7624 62.7533 27.8022 62.9307 27.8022C63.1764 27.8022 63.3677 27.7046 63.5044 27.5093C63.6427 27.3123 63.7119 27.0275 63.7119 26.6548Z" fill="black"/>
<path d="M52.5 13V20" stroke="black"/>
<path d="M52.5 31V38" stroke="black"/>
<path d="M52.5 26V33" stroke="black"/>
<path d="M52.5 17V24" stroke="black"/>
<path d="M61.1528 25.4482C61.0959 25.9723 60.9079 26.3734 60.5889 26.6514C60.2721 26.9294 59.8494 27.0684 59.3208 27.0684C58.9517 27.0684 58.6247 26.9761 58.3398 26.7915C58.0573 26.6069 57.8385 26.346 57.6836 26.0088C57.5286 25.6693 57.45 25.2819 57.4478 24.8467V24.2007C57.4478 23.7586 57.5252 23.3667 57.6802 23.0249C57.8351 22.6831 58.0573 22.4199 58.3467 22.2354C58.6383 22.0485 58.9733 21.9551 59.3516 21.9551C59.8848 21.9551 60.3052 22.0998 60.6128 22.3892C60.9227 22.6763 61.1027 23.0739 61.1528 23.582H60.729C60.6242 22.7367 60.165 22.314 59.3516 22.314C58.9004 22.314 58.5404 22.4826 58.2715 22.8198C58.0049 23.1571 57.8716 23.623 57.8716 24.2178V24.8262C57.8716 25.4004 58.0015 25.8584 58.2612 26.2002C58.5233 26.542 58.8765 26.7129 59.3208 26.7129C59.7606 26.7129 60.0921 26.6081 60.3154 26.3984C60.5387 26.1865 60.6766 25.8698 60.729 25.4482H61.1528Z" fill="black"/>
<line x1="49" y1="25.5" x2="56" y2="25.5" stroke="black"/>
<line x1="49" y1="23.5" x2="56" y2="23.5" stroke="black"/>
<path d="M64.0049 26.7061C64.0049 27.1178 63.9137 27.445 63.7314 27.6875C63.5492 27.9284 63.305 28.0488 62.999 28.0488C62.6377 28.0488 62.361 27.9219 62.1689 27.668V29.0156H61.8784V25.3584H62.1494L62.1641 25.7319C62.3545 25.4504 62.6304 25.3096 62.9917 25.3096C63.3075 25.3096 63.5549 25.4292 63.7339 25.6685C63.9146 25.9077 64.0049 26.2397 64.0049 26.6646V26.7061ZM63.7119 26.6548C63.7119 26.3179 63.6427 26.0518 63.5044 25.8564C63.366 25.6611 63.1732 25.5635 62.9258 25.5635C62.7467 25.5635 62.5929 25.6066 62.4644 25.6929C62.3358 25.7791 62.2373 25.9045 62.1689 26.0688V27.3359C62.2389 27.4873 62.339 27.6029 62.4692 27.6826C62.5994 27.7624 62.7533 27.8022 62.9307 27.8022C63.1764 27.8022 63.3677 27.7046 63.5044 27.5093C63.6427 27.3123 63.7119 27.0275 63.7119 26.6548Z" fill="black"/>
<path d="M52.5 13V20" stroke="black"/>
<path d="M52.5 31V38" stroke="black"/>
<path d="M52.5 26V33" stroke="black"/>
<path d="M52.5 17V24" stroke="black"/>
<path d="M61.1528 25.4482C61.0959 25.9723 60.9079 26.3734 60.5889 26.6514C60.2721 26.9294 59.8494 27.0684 59.3208 27.0684C58.9517 27.0684 58.6247 26.9761 58.3398 26.7915C58.0573 26.6069 57.8385 26.346 57.6836 26.0088C57.5286 25.6693 57.45 25.2819 57.4478 24.8467V24.2007C57.4478 23.7586 57.5252 23.3667 57.6802 23.0249C57.8351 22.6831 58.0573 22.4199 58.3467 22.2354C58.6383 22.0485 58.9733 21.9551 59.3516 21.9551C59.8848 21.9551 60.3052 22.0998 60.6128 22.3892C60.9227 22.6763 61.1027 23.0739 61.1528 23.582H60.729C60.6242 22.7367 60.165 22.314 59.3516 22.314C58.9004 22.314 58.5404 22.4826 58.2715 22.8198C58.0049 23.1571 57.8716 23.623 57.8716 24.2178V24.8262C57.8716 25.4004 58.0015 25.8584 58.2612 26.2002C58.5233 26.542 58.8765 26.7129 59.3208 26.7129C59.7606 26.7129 60.0921 26.6081 60.3154 26.3984C60.5387 26.1865 60.6766 25.8698 60.729 25.4482H61.1528Z" fill="black"/>
<line x1="49" y1="25.5" x2="56" y2="25.5" stroke="black"/>
<line x1="49" y1="23.5" x2="56" y2="23.5" stroke="black"/>
<path d="M64.0049 26.7061C64.0049 27.1178 63.9137 27.445 63.7314 27.6875C63.5492 27.9284 63.305 28.0488 62.999 28.0488C62.6377 28.0488 62.361 27.9219 62.1689 27.668V29.0156H61.8784V25.3584H62.1494L62.1641 25.7319C62.3545 25.4504 62.6304 25.3096 62.9917 25.3096C63.3075 25.3096 63.5549 25.4292 63.7339 25.6685C63.9146 25.9077 64.0049 26.2397 64.0049 26.6646V26.7061ZM63.7119 26.6548C63.7119 26.3179 63.6427 26.0518 63.5044 25.8564C63.366 25.6611 63.1732 25.5635 62.9258 25.5635C62.7467 25.5635 62.5929 25.6066 62.4644 25.6929C62.3358 25.7791 62.2373 25.9045 62.1689 26.0688V27.3359C62.2389 27.4873 62.339 27.6029 62.4692 27.6826C62.5994 27.7624 62.7533 27.8022 62.9307 27.8022C63.1764 27.8022 63.3677 27.7046 63.5044 27.5093C63.6427 27.3123 63.7119 27.0275 63.7119 26.6548Z" fill="black"/>
<path d="M52.5 13V20" stroke="black"/>
<path d="M52.5 31V38" stroke="black"/>
<path d="M52.5 26V33" stroke="black"/>
<path d="M52.5 17V24" stroke="black"/>
<path d="M61.1528 25.4482C61.0959 25.9723 60.9079 26.3734 60.5889 26.6514C60.2721 26.9294 59.8494 27.0684 59.3208 27.0684C58.9517 27.0684 58.6247 26.9761 58.3398 26.7915C58.0573 26.6069 57.8385 26.346 57.6836 26.0088C57.5286 25.6693 57.45 25.2819 57.4478 24.8467V24.2007C57.4478 23.7586 57.5252 23.3667 57.6802 23.0249C57.8351 22.6831 58.0573 22.4199 58.3467 22.2354C58.6383 22.0485 58.9733 21.9551 59.3516 21.9551C59.8848 21.9551 60.3052 22.0998 60.6128 22.3892C60.9227 22.6763 61.1027 23.0739 61.1528 23.582H60.729C60.6242 22.7367 60.165 22.314 59.3516 22.314C58.9004 22.314 58.5404 22.4826 58.2715 22.8198C58.0049 23.1571 57.8716 23.623 57.8716 24.2178V24.8262C57.8716 25.4004 58.0015 25.8584 58.2612 26.2002C58.5233 26.542 58.8765 26.7129 59.3208 26.7129C59.7606 26.7129 60.0921 26.6081 60.3154 26.3984C60.5387 26.1865 60.6766 25.8698 60.729 25.4482H61.1528Z" fill="black"/>
<line x1="49" y1="25.5" x2="56" y2="25.5" stroke="black"/>
<line x1="49" y1="23.5" x2="56" y2="23.5" stroke="black"/>
<path d="M64.0049 26.7061C64.0049 27.1178 63.9137 27.445 63.7314 27.6875C63.5492 27.9284 63.305 28.0488 62.999 28.0488C62.6377 28.0488 62.361 27.9219 62.1689 27.668V29.0156H61.8784V25.3584H62.1494L62.1641 25.7319C62.3545 25.4504 62.6304 25.3096 62.9917 25.3096C63.3075 25.3096 63.5549 25.4292 63.7339 25.6685C63.9146 25.9077 64.0049 26.2397 64.0049 26.6646V26.7061ZM63.7119 26.6548C63.7119 26.3179 63.6427 26.0518 63.5044 25.8564C63.366 25.6611 63.1732 25.5635 62.9258 25.5635C62.7467 25.5635 62.5929 25.6066 62.4644 25.6929C62.3358 25.7791 62.2373 25.9045 62.1689 26.0688V27.3359C62.2389 27.4873 62.339 27.6029 62.4692 27.6826C62.5994 27.7624 62.7533 27.8022 62.9307 27.8022C63.1764 27.8022 63.3677 27.7046 63.5044 27.5093C63.6427 27.3123 63.7119 27.0275 63.7119 26.6548Z" fill="black"/>
<line y1="38.5" x2="34" y2="38.5" stroke="black"/>
<line x1="34" y1="38.5" x2="113" y2="38.5" stroke="black"/>
<line y1="38.5" x2="34" y2="38.5" stroke="black"/>
<line x1="34" y1="38.5" x2="113" y2="38.5" stroke="black"/>
<rect x="110.5" y="19.5" width="4" height="11" stroke="black"/>
<path d="M112.5 13V20" stroke="black"/>
<path d="M52.5 13V19" stroke="black"/>
<line x1="112.5" y1="31" x2="112.5" y2="38" stroke="black"/>
<line y1="12.5" x2="45" y2="12.5" stroke="black"/>
<path d="M116.817 27.6445H119.89V28H116.308V27.6821L119.261 23.3823H116.396V23.0234H119.78V23.3242L116.817 27.6445Z" fill="black"/>
<path d="M121.752 29.7461H123.507V30H121.449V26.4453H121.752V29.7461Z" fill="black"/>
<path d="M81.1528 4.44824C81.0959 4.97233 80.9079 5.37337 80.5889 5.65137C80.2721 5.92936 79.8494 6.06836 79.3208 6.06836C78.9517 6.06836 78.6247 5.97607 78.3398 5.7915C78.0573 5.60693 77.8385 5.34603 77.6836 5.00879C77.5286 4.66927 77.45 4.2819 77.4478 3.84668V3.20068C77.4478 2.75863 77.5252 2.3667 77.6802 2.0249C77.8351 1.68311 78.0573 1.41992 78.3467 1.23535C78.6383 1.0485 78.9733 0.955078 79.3516 0.955078C79.8848 0.955078 80.3052 1.09977 80.6128 1.38916C80.9227 1.67627 81.1027 2.07389 81.1528 2.58203H80.729C80.6242 1.73665 80.165 1.31396 79.3516 1.31396C78.9004 1.31396 78.5404 1.48258 78.2715 1.81982C78.0049 2.15706 77.8716 2.62305 77.8716 3.21777V3.82617C77.8716 4.40039 78.0015 4.8584 78.2612 5.2002C78.5233 5.54199 78.8765 5.71289 79.3208 5.71289C79.7606 5.71289 80.0921 5.60807 80.3154 5.39844C80.5387 5.18652 80.6766 4.86979 80.729 4.44824H81.1528Z" fill="black"/>
<path d="M83.4629 6.32861C83.4629 6.18376 83.4043 6.06738 83.2871 5.97949C83.1715 5.8916 82.9966 5.82324 82.7622 5.77441C82.5278 5.72396 82.3455 5.66699 82.2153 5.60352C82.0868 5.53841 81.9907 5.45947 81.9272 5.3667C81.8654 5.27393 81.8345 5.16162 81.8345 5.02979C81.8345 4.82145 81.9215 4.64974 82.0957 4.51465C82.2699 4.37793 82.4928 4.30957 82.7646 4.30957C83.0592 4.30957 83.2952 4.38281 83.4727 4.5293C83.6517 4.67415 83.7412 4.86377 83.7412 5.09814H83.4482C83.4482 4.94352 83.3831 4.81494 83.2529 4.7124C83.1243 4.60986 82.9616 4.55859 82.7646 4.55859C82.5726 4.55859 82.418 4.60173 82.3008 4.68799C82.1852 4.77262 82.1274 4.8833 82.1274 5.02002C82.1274 5.15186 82.1755 5.25439 82.2715 5.32764C82.3691 5.39925 82.5457 5.46517 82.8013 5.52539C83.0584 5.58561 83.2505 5.6499 83.3774 5.71826C83.506 5.78662 83.6012 5.86882 83.6631 5.96484C83.7249 6.06087 83.7559 6.17725 83.7559 6.31396C83.7559 6.53695 83.6655 6.71517 83.4849 6.84863C83.3058 6.9821 83.0715 7.04883 82.7817 7.04883C82.4741 7.04883 82.2243 6.97477 82.0322 6.82666C81.8418 6.67692 81.7466 6.48812 81.7466 6.26025H82.0396C82.0509 6.43115 82.1226 6.56462 82.2544 6.66064C82.3879 6.75505 82.5636 6.80225 82.7817 6.80225C82.9852 6.80225 83.1496 6.75749 83.2749 6.66797C83.4002 6.57845 83.4629 6.46533 83.4629 6.32861Z" fill="black"/>
<line y1="12.5" x2="79" y2="12.5" stroke="black"/>
<line x1="82" y1="12.5" x2="113" y2="12.5" stroke="black"/>
<path d="M81.1528 4.44824C81.0959 4.97233 80.9079 5.37337 80.5889 5.65137C80.2721 5.92936 79.8494 6.06836 79.3208 6.06836C78.9517 6.06836 78.6247 5.97607 78.3398 5.7915C78.0573 5.60693 77.8385 5.34603 77.6836 5.00879C77.5286 4.66927 77.45 4.2819 77.4478 3.84668V3.20068C77.4478 2.75863 77.5252 2.3667 77.6802 2.0249C77.8351 1.68311 78.0573 1.41992 78.3467 1.23535C78.6383 1.0485 78.9733 0.955078 79.3516 0.955078C79.8848 0.955078 80.3052 1.09977 80.6128 1.38916C80.9227 1.67627 81.1027 2.07389 81.1528 2.58203H80.729C80.6242 1.73665 80.165 1.31396 79.3516 1.31396C78.9004 1.31396 78.5404 1.48258 78.2715 1.81982C78.0049 2.15706 77.8716 2.62305 77.8716 3.21777V3.82617C77.8716 4.40039 78.0015 4.8584 78.2612 5.2002C78.5233 5.54199 78.8765 5.71289 79.3208 5.71289C79.7606 5.71289 80.0921 5.60807 80.3154 5.39844C80.5387 5.18652 80.6766 4.86979 80.729 4.44824H81.1528Z" fill="black"/>
<line x1="79.5" y1="16" x2="79.5" y2="9" stroke="black"/>
<line x1="81.5" y1="16" x2="81.5" y2="9" stroke="black"/>
</svg>
