<svg width="124" height="37" viewBox="0 0 124 37" fill="none" xmlns="http://www.w3.org/2000/svg">
<line y1="36.5" x2="34" y2="36.5" stroke="black"/>
<line x1="34" y1="36.5" x2="113" y2="36.5" stroke="black"/>
<line y1="36.5" x2="34" y2="36.5" stroke="black"/>
<line x1="34" y1="36.5" x2="113" y2="36.5" stroke="black"/>
<path d="M52.5 25C52.7626 25 53.0227 25.0517 53.2654 25.1522C53.508 25.2528 53.7285 25.4001 53.9142 25.5858C54.0999 25.7715 54.2472 25.992 54.3478 26.2346C54.4483 26.4773 54.5 26.7374 54.5 27C54.5 27.2626 54.4483 27.5227 54.3478 27.7654C54.2472 28.008 54.0999 28.2285 53.9142 28.4142C53.7285 28.5999 53.508 28.7472 53.2654 28.8478C53.0227 28.9483 52.7626 29 52.5 29V28.8664C52.7451 28.8664 52.9878 28.8182 53.2143 28.7244C53.4407 28.6306 53.6465 28.4931 53.8198 28.3198C53.9931 28.1465 54.1306 27.9407 54.2244 27.7143C54.3182 27.4878 54.3664 27.2451 54.3664 27C54.3664 26.7549 54.3182 26.5122 54.2244 26.2857C54.1306 26.0593 53.9931 25.8535 53.8198 25.6802C53.6465 25.5069 53.4407 25.3694 53.2143 25.2756C52.9878 25.1818 52.7451 25.1336 52.5 25.1336V25Z" stroke="black" stroke-width="0.8"/>
<path d="M52.5 21C52.7626 21 53.0227 21.0517 53.2654 21.1522C53.508 21.2528 53.7285 21.4001 53.9142 21.5858C54.0999 21.7715 54.2472 21.992 54.3478 22.2346C54.4483 22.4773 54.5 22.7374 54.5 23C54.5 23.2626 54.4483 23.5227 54.3478 23.7654C54.2472 24.008 54.0999 24.2285 53.9142 24.4142C53.7285 24.5999 53.508 24.7472 53.2654 24.8478C53.0227 24.9483 52.7626 25 52.5 25V24.8664C52.7451 24.8664 52.9878 24.8182 53.2143 24.7244C53.4407 24.6306 53.6465 24.4931 53.8198 24.3198C53.9931 24.1465 54.1306 23.9407 54.2244 23.7143C54.3182 23.4878 54.3664 23.2451 54.3664 23C54.3664 22.7549 54.3182 22.5122 54.2244 22.2857C54.1306 22.0593 53.9931 21.8535 53.8198 21.6802C53.6465 21.5069 53.4407 21.3694 53.2143 21.2756C52.9878 21.1818 52.7451 21.1336 52.5 21.1336V21Z" stroke="black" stroke-width="0.8"/>
<path d="M52.5 17C52.7626 17 53.0227 17.0517 53.2654 17.1522C53.508 17.2528 53.7285 17.4001 53.9142 17.5858C54.0999 17.7715 54.2472 17.992 54.3478 18.2346C54.4483 18.4773 54.5 18.7374 54.5 19C54.5 19.2626 54.4483 19.5227 54.3478 19.7654C54.2472 20.008 54.0999 20.2285 53.9142 20.4142C53.7285 20.5999 53.508 20.7472 53.2654 20.8478C53.0227 20.9483 52.7626 21 52.5 21V20.8664C52.7451 20.8664 52.9878 20.8182 53.2143 20.7244C53.4407 20.6306 53.6465 20.4931 53.8198 20.3198C53.9931 20.1465 54.1306 19.9407 54.2244 19.7143C54.3182 19.4878 54.3664 19.2451 54.3664 19C54.3664 18.7549 54.3182 18.5122 54.2244 18.2857C54.1306 18.0593 53.9931 17.8535 53.8198 17.6802C53.6465 17.5069 53.4407 17.3694 53.2143 17.2756C52.9878 17.1818 52.7451 17.1336 52.5 17.1336V17Z" stroke="black" stroke-width="0.8"/>
<rect x="110.5" y="17.5" width="4" height="11" stroke="black"/>
<path d="M112.5 11V18" stroke="black"/>
<path d="M52.5 11V17" stroke="black"/>
<line x1="112.5" y1="29" x2="112.5" y2="36" stroke="black"/>
<line y1="10.5" x2="73" y2="10.5" stroke="black"/>
<line x1="88" y1="10.5" x2="113" y2="10.5" stroke="black"/>
<path d="M116.817 25.6445H119.89V26H116.308V25.6821L119.261 21.3823H116.396V21.0234H119.78V21.3242L116.817 25.6445Z" fill="black"/>
<path d="M121.752 27.7461H123.507V28H121.449V24.4453H121.752V27.7461Z" fill="black"/>
<path d="M57.0527 25.6445H59.5103V26H56.6289V21.0234H57.0527V25.6445Z" fill="black"/>
<path d="M52.5 29V36" stroke="black"/>
<path d="M57.0527 25.6445H59.5103V26H56.6289V21.0234H57.0527V25.6445Z" fill="black"/>
<path d="M62.5049 26.7061C62.5049 27.1178 62.4137 27.445 62.2314 27.6875C62.0492 27.9284 61.805 28.0488 61.499 28.0488C61.1377 28.0488 60.861 27.9219 60.6689 27.668V29.0156H60.3784V25.3584H60.6494L60.6641 25.7319C60.8545 25.4504 61.1304 25.3096 61.4917 25.3096C61.8075 25.3096 62.0549 25.4292 62.2339 25.6685C62.4146 25.9077 62.5049 26.2397 62.5049 26.6646V26.7061ZM62.2119 26.6548C62.2119 26.3179 62.1427 26.0518 62.0044 25.8564C61.866 25.6611 61.6732 25.5635 61.4258 25.5635C61.2467 25.5635 61.0929 25.6066 60.9644 25.6929C60.8358 25.7791 60.7373 25.9045 60.6689 26.0688V27.3359C60.7389 27.4873 60.839 27.6029 60.9692 27.6826C61.0994 27.7624 61.2533 27.8022 61.4307 27.8022C61.6764 27.8022 61.8677 27.7046 62.0044 27.5093C62.1427 27.3123 62.2119 27.0275 62.2119 26.6548Z" fill="black"/>
<path d="M73 10.5C73 10.2374 73.0647 9.97728 73.1903 9.73463C73.3159 9.49198 73.5001 9.2715 73.7322 9.08579C73.9644 8.90007 74.24 8.75275 74.5433 8.65224C74.8466 8.55173 75.1717 8.5 75.5 8.5C75.8283 8.5 76.1534 8.55173 76.4567 8.65224C76.76 8.75275 77.0356 8.90007 77.2678 9.08579C77.4999 9.2715 77.6841 9.49198 77.8097 9.73463C77.9353 9.97728 78 10.2374 78 10.5H77.8331C77.8331 10.2549 77.7727 10.0122 77.6555 9.78574C77.5382 9.5593 77.3664 9.35354 77.1497 9.18023C76.9331 9.00691 76.6759 8.86943 76.3928 8.77563C76.1098 8.68183 75.8064 8.63356 75.5 8.63356C75.1936 8.63356 74.8902 8.68183 74.6072 8.77563C74.3241 8.86943 74.0669 9.00691 73.8503 9.18023C73.6336 9.35354 73.4618 9.5593 73.3445 9.78574C73.2273 10.0122 73.1669 10.2549 73.1669 10.5H73Z" stroke="black" stroke-width="0.8"/>
<path d="M78 10.5C78 10.2374 78.0647 9.97728 78.1903 9.73463C78.3159 9.49198 78.5001 9.2715 78.7322 9.08579C78.9644 8.90007 79.24 8.75275 79.5433 8.65224C79.8466 8.55173 80.1717 8.5 80.5 8.5C80.8283 8.5 81.1534 8.55173 81.4567 8.65224C81.76 8.75275 82.0356 8.90007 82.2678 9.08579C82.4999 9.2715 82.6841 9.49198 82.8097 9.73463C82.9353 9.97728 83 10.2374 83 10.5H82.8331C82.8331 10.2549 82.7727 10.0122 82.6555 9.78574C82.5382 9.5593 82.3664 9.35354 82.1497 9.18023C81.9331 9.00691 81.6759 8.86943 81.3928 8.77563C81.1098 8.68183 80.8064 8.63356 80.5 8.63356C80.1936 8.63356 79.8902 8.68183 79.6072 8.77563C79.3241 8.86943 79.0669 9.00691 78.8503 9.18023C78.6336 9.35354 78.4618 9.5593 78.3445 9.78574C78.2273 10.0122 78.1669 10.2549 78.1669 10.5H78Z" stroke="black" stroke-width="0.8"/>
<path d="M83 10.5C83 10.2374 83.0647 9.97728 83.1903 9.73463C83.3159 9.49198 83.5001 9.2715 83.7322 9.08579C83.9644 8.90007 84.24 8.75275 84.5433 8.65224C84.8466 8.55173 85.1717 8.5 85.5 8.5C85.8283 8.5 86.1534 8.55173 86.4567 8.65224C86.76 8.75275 87.0356 8.90007 87.2678 9.08579C87.4999 9.2715 87.6841 9.49198 87.8097 9.73463C87.9353 9.97728 88 10.2374 88 10.5H87.8331C87.8331 10.2549 87.7727 10.0122 87.6555 9.78574C87.5382 9.5593 87.3664 9.35354 87.1497 9.18023C86.9331 9.00691 86.6759 8.86943 86.3928 8.77563C86.1098 8.68183 85.8064 8.63356 85.5 8.63356C85.1936 8.63356 84.8902 8.68183 84.6072 8.77563C84.3241 8.86943 84.0669 9.00691 83.8503 9.18023C83.6336 9.35354 83.4618 9.5593 83.3445 9.78574C83.2273 10.0122 83.1669 10.2549 83.1669 10.5H83Z" stroke="black" stroke-width="0.8"/>
<path d="M78.0527 5.64453H80.5103V6H77.6289V1.02344H78.0527V5.64453Z" fill="black"/>
<path d="M82.9629 6.32861C82.9629 6.18376 82.9043 6.06738 82.7871 5.97949C82.6715 5.8916 82.4966 5.82324 82.2622 5.77441C82.0278 5.72396 81.8455 5.66699 81.7153 5.60352C81.5868 5.53841 81.4907 5.45947 81.4272 5.3667C81.3654 5.27393 81.3345 5.16162 81.3345 5.02979C81.3345 4.82145 81.4215 4.64974 81.5957 4.51465C81.7699 4.37793 81.9928 4.30957 82.2646 4.30957C82.5592 4.30957 82.7952 4.38281 82.9727 4.5293C83.1517 4.67415 83.2412 4.86377 83.2412 5.09814H82.9482C82.9482 4.94352 82.8831 4.81494 82.7529 4.7124C82.6243 4.60986 82.4616 4.55859 82.2646 4.55859C82.0726 4.55859 81.918 4.60173 81.8008 4.68799C81.6852 4.77262 81.6274 4.8833 81.6274 5.02002C81.6274 5.15186 81.6755 5.25439 81.7715 5.32764C81.8691 5.39925 82.0457 5.46517 82.3013 5.52539C82.5584 5.58561 82.7505 5.6499 82.8774 5.71826C83.006 5.78662 83.1012 5.86882 83.1631 5.96484C83.2249 6.06087 83.2559 6.17725 83.2559 6.31396C83.2559 6.53695 83.1655 6.71517 82.9849 6.84863C82.8058 6.9821 82.5715 7.04883 82.2817 7.04883C81.9741 7.04883 81.7243 6.97477 81.5322 6.82666C81.3418 6.67692 81.2466 6.48812 81.2466 6.26025H81.5396C81.5509 6.43115 81.6226 6.56462 81.7544 6.66064C81.8879 6.75505 82.0636 6.80225 82.2817 6.80225C82.4852 6.80225 82.6496 6.75749 82.7749 6.66797C82.9002 6.57845 82.9629 6.46533 82.9629 6.32861Z" fill="black"/>
<path d="M78.0527 5.64453H80.5103V6H77.6289V1.02344H78.0527V5.64453Z" fill="black"/>
<path d="M82.9629 6.32861C82.9629 6.18376 82.9043 6.06738 82.7871 5.97949C82.6715 5.8916 82.4966 5.82324 82.2622 5.77441C82.0278 5.72396 81.8455 5.66699 81.7153 5.60352C81.5868 5.53841 81.4907 5.45947 81.4272 5.3667C81.3654 5.27393 81.3345 5.16162 81.3345 5.02979C81.3345 4.82145 81.4215 4.64974 81.5957 4.51465C81.7699 4.37793 81.9928 4.30957 82.2646 4.30957C82.5592 4.30957 82.7952 4.38281 82.9727 4.5293C83.1517 4.67415 83.2412 4.86377 83.2412 5.09814H82.9482C82.9482 4.94352 82.8831 4.81494 82.7529 4.7124C82.6243 4.60986 82.4616 4.55859 82.2646 4.55859C82.0726 4.55859 81.918 4.60173 81.8008 4.68799C81.6852 4.77262 81.6274 4.8833 81.6274 5.02002C81.6274 5.15186 81.6755 5.25439 81.7715 5.32764C81.8691 5.39925 82.0457 5.46517 82.3013 5.52539C82.5584 5.58561 82.7505 5.6499 82.8774 5.71826C83.006 5.78662 83.1012 5.86882 83.1631 5.96484C83.2249 6.06087 83.2559 6.17725 83.2559 6.31396C83.2559 6.53695 83.1655 6.71517 82.9849 6.84863C82.8058 6.9821 82.5715 7.04883 82.2817 7.04883C81.9741 7.04883 81.7243 6.97477 81.5322 6.82666C81.3418 6.67692 81.2466 6.48812 81.2466 6.26025H81.5396C81.5509 6.43115 81.6226 6.56462 81.7544 6.66064C81.8879 6.75505 82.0636 6.80225 82.2817 6.80225C82.4852 6.80225 82.6496 6.75749 82.7749 6.66797C82.9002 6.57845 82.9629 6.46533 82.9629 6.32861Z" fill="black"/>
<path d="M73 10.5C73 10.2374 73.0647 9.97728 73.1903 9.73463C73.3159 9.49198 73.5001 9.2715 73.7322 9.08579C73.9644 8.90007 74.24 8.75275 74.5433 8.65224C74.8466 8.55173 75.1717 8.5 75.5 8.5C75.8283 8.5 76.1534 8.55173 76.4567 8.65224C76.76 8.75275 77.0356 8.90007 77.2678 9.08579C77.4999 9.2715 77.6841 9.49198 77.8097 9.73463C77.9353 9.97728 78 10.2374 78 10.5H77.8331C77.8331 10.2549 77.7727 10.0122 77.6555 9.78574C77.5382 9.5593 77.3664 9.35354 77.1497 9.18023C76.9331 9.00691 76.6759 8.86943 76.3928 8.77563C76.1098 8.68183 75.8064 8.63356 75.5 8.63356C75.1936 8.63356 74.8902 8.68183 74.6072 8.77563C74.3241 8.86943 74.0669 9.00691 73.8503 9.18023C73.6336 9.35354 73.4618 9.5593 73.3445 9.78574C73.2273 10.0122 73.1669 10.2549 73.1669 10.5H73Z" stroke="black" stroke-width="0.8"/>
<path d="M78 10.5C78 10.2374 78.0647 9.97728 78.1903 9.73463C78.3159 9.49198 78.5001 9.2715 78.7322 9.08579C78.9644 8.90007 79.24 8.75275 79.5433 8.65224C79.8466 8.55173 80.1717 8.5 80.5 8.5C80.8283 8.5 81.1534 8.55173 81.4567 8.65224C81.76 8.75275 82.0356 8.90007 82.2678 9.08579C82.4999 9.2715 82.6841 9.49198 82.8097 9.73463C82.9353 9.97728 83 10.2374 83 10.5H82.8331C82.8331 10.2549 82.7727 10.0122 82.6555 9.78574C82.5382 9.5593 82.3664 9.35354 82.1497 9.18023C81.9331 9.00691 81.6759 8.86943 81.3928 8.77563C81.1098 8.68183 80.8064 8.63356 80.5 8.63356C80.1936 8.63356 79.8902 8.68183 79.6072 8.77563C79.3241 8.86943 79.0669 9.00691 78.8503 9.18023C78.6336 9.35354 78.4618 9.5593 78.3445 9.78574C78.2273 10.0122 78.1669 10.2549 78.1669 10.5H78Z" stroke="black" stroke-width="0.8"/>
<path d="M83 10.5C83 10.2374 83.0647 9.97728 83.1903 9.73463C83.3159 9.49198 83.5001 9.2715 83.7322 9.08579C83.9644 8.90007 84.24 8.75275 84.5433 8.65224C84.8466 8.55173 85.1717 8.5 85.5 8.5C85.8283 8.5 86.1534 8.55173 86.4567 8.65224C86.76 8.75275 87.0356 8.90007 87.2678 9.08579C87.4999 9.2715 87.6841 9.49198 87.8097 9.73463C87.9353 9.97728 88 10.2374 88 10.5H87.8331C87.8331 10.2549 87.7727 10.0122 87.6555 9.78574C87.5382 9.5593 87.3664 9.35354 87.1497 9.18023C86.9331 9.00691 86.6759 8.86943 86.3928 8.77563C86.1098 8.68183 85.8064 8.63356 85.5 8.63356C85.1936 8.63356 84.8902 8.68183 84.6072 8.77563C84.3241 8.86943 84.0669 9.00691 83.8503 9.18023C83.6336 9.35354 83.4618 9.5593 83.3445 9.78574C83.2273 10.0122 83.1669 10.2549 83.1669 10.5H83Z" stroke="black" stroke-width="0.8"/>
<path d="M78.0527 5.64453H80.5103V6H77.6289V1.02344H78.0527V5.64453Z" fill="black"/>
<path d="M82.9629 6.32861C82.9629 6.18376 82.9043 6.06738 82.7871 5.97949C82.6715 5.8916 82.4966 5.82324 82.2622 5.77441C82.0278 5.72396 81.8455 5.66699 81.7153 5.60352C81.5868 5.53841 81.4907 5.45947 81.4272 5.3667C81.3654 5.27393 81.3345 5.16162 81.3345 5.02979C81.3345 4.82145 81.4215 4.64974 81.5957 4.51465C81.7699 4.37793 81.9928 4.30957 82.2646 4.30957C82.5592 4.30957 82.7952 4.38281 82.9727 4.5293C83.1517 4.67415 83.2412 4.86377 83.2412 5.09814H82.9482C82.9482 4.94352 82.8831 4.81494 82.7529 4.7124C82.6243 4.60986 82.4616 4.55859 82.2646 4.55859C82.0726 4.55859 81.918 4.60173 81.8008 4.68799C81.6852 4.77262 81.6274 4.8833 81.6274 5.02002C81.6274 5.15186 81.6755 5.25439 81.7715 5.32764C81.8691 5.39925 82.0457 5.46517 82.3013 5.52539C82.5584 5.58561 82.7505 5.6499 82.8774 5.71826C83.006 5.78662 83.1012 5.86882 83.1631 5.96484C83.2249 6.06087 83.2559 6.17725 83.2559 6.31396C83.2559 6.53695 83.1655 6.71517 82.9849 6.84863C82.8058 6.9821 82.5715 7.04883 82.2817 7.04883C81.9741 7.04883 81.7243 6.97477 81.5322 6.82666C81.3418 6.67692 81.2466 6.48812 81.2466 6.26025H81.5396C81.5509 6.43115 81.6226 6.56462 81.7544 6.66064C81.8879 6.75505 82.0636 6.80225 82.2817 6.80225C82.4852 6.80225 82.6496 6.75749 82.7749 6.66797C82.9002 6.57845 82.9629 6.46533 82.9629 6.32861Z" fill="black"/>
<path d="M78.0527 5.64453H80.5103V6H77.6289V1.02344H78.0527V5.64453Z" fill="black"/>
<path d="M82.9629 6.32861C82.9629 6.18376 82.9043 6.06738 82.7871 5.97949C82.6715 5.8916 82.4966 5.82324 82.2622 5.77441C82.0278 5.72396 81.8455 5.66699 81.7153 5.60352C81.5868 5.53841 81.4907 5.45947 81.4272 5.3667C81.3654 5.27393 81.3345 5.16162 81.3345 5.02979C81.3345 4.82145 81.4215 4.64974 81.5957 4.51465C81.7699 4.37793 81.9928 4.30957 82.2646 4.30957C82.5592 4.30957 82.7952 4.38281 82.9727 4.5293C83.1517 4.67415 83.2412 4.86377 83.2412 5.09814H82.9482C82.9482 4.94352 82.8831 4.81494 82.7529 4.7124C82.6243 4.60986 82.4616 4.55859 82.2646 4.55859C82.0726 4.55859 81.918 4.60173 81.8008 4.68799C81.6852 4.77262 81.6274 4.8833 81.6274 5.02002C81.6274 5.15186 81.6755 5.25439 81.7715 5.32764C81.8691 5.39925 82.0457 5.46517 82.3013 5.52539C82.5584 5.58561 82.7505 5.6499 82.8774 5.71826C83.006 5.78662 83.1012 5.86882 83.1631 5.96484C83.2249 6.06087 83.2559 6.17725 83.2559 6.31396C83.2559 6.53695 83.1655 6.71517 82.9849 6.84863C82.8058 6.9821 82.5715 7.04883 82.2817 7.04883C81.9741 7.04883 81.7243 6.97477 81.5322 6.82666C81.3418 6.67692 81.2466 6.48812 81.2466 6.26025H81.5396C81.5509 6.43115 81.6226 6.56462 81.7544 6.66064C81.8879 6.75505 82.0636 6.80225 82.2817 6.80225C82.4852 6.80225 82.6496 6.75749 82.7749 6.66797C82.9002 6.57845 82.9629 6.46533 82.9629 6.32861Z" fill="black"/>
</svg>
