<svg width="107" height="27" viewBox="0 0 107 27" fill="none" xmlns="http://www.w3.org/2000/svg">
<line y1="0.5" x2="96" y2="0.5" stroke="black"/>
<line y1="26.5" x2="96" y2="26.5" stroke="black"/>
<rect x="93.5" y="8.5" width="4" height="10" stroke="black"/>
<line x1="95.5" y1="1" x2="95.5" y2="8" stroke="black"/>
<line x1="95.5" y1="19" x2="95.5" y2="26" stroke="black"/>
<path d="M22.8169 14.6445H25.8896V15H22.3076V14.6821L25.2607 10.3823H22.3965V10.0234H25.7803V10.3242L22.8169 14.6445Z" fill="black"/>
<path d="M26.2637 15.3682C26.2637 15.0635 26.3223 14.7891 26.4395 14.5449C26.5586 14.3008 26.7256 14.1113 26.9404 13.9766C27.1572 13.8398 27.4023 13.7715 27.6758 13.7715C28.0977 13.7715 28.4395 13.9199 28.7012 14.2168C28.9629 14.5117 29.0938 14.9033 29.0938 15.3916V15.4648C29.0938 15.7715 29.0342 16.0479 28.915 16.2939C28.7979 16.5381 28.6318 16.7266 28.417 16.8594C28.2021 16.9922 27.957 17.0586 27.6816 17.0586C27.2617 17.0586 26.9199 16.9111 26.6562 16.6162C26.3945 16.3193 26.2637 15.9268 26.2637 15.4385V15.3682ZM26.6152 15.4648C26.6152 15.8438 26.7129 16.1553 26.9082 16.3994C27.1055 16.6416 27.3633 16.7627 27.6816 16.7627C27.998 16.7627 28.2539 16.6416 28.4492 16.3994C28.6465 16.1553 28.7451 15.834 28.7451 15.4355V15.3682C28.7451 15.126 28.7002 14.9043 28.6104 14.7031C28.5205 14.502 28.3945 14.3467 28.2324 14.2373C28.0703 14.126 27.8848 14.0703 27.6758 14.0703C27.3633 14.0703 27.1084 14.1934 26.9111 14.4395C26.7139 14.6836 26.6152 15.0039 26.6152 15.4004V15.4648Z" fill="black"/>
<path d="M99.8169 19.6445H102.89V20H99.3076V19.6821L102.261 15.3823H99.3965V15.0234H102.78V15.3242L99.8169 19.6445Z" fill="black"/>
<path d="M104.752 21.7461H106.507V22H104.449V18.4453H104.752V21.7461Z" fill="black"/>
</svg>
