<svg width="107" height="65" viewBox="0 0 107 65" fill="none" xmlns="http://www.w3.org/2000/svg">
<line y1="0.5" x2="96" y2="0.5" stroke="black"/>
<line y1="26.5" x2="96" y2="26.5" stroke="black"/>
<rect x="93.5" y="8.5" width="4" height="10" stroke="black"/>
<line x1="95.5" y1="1" x2="95.5" y2="8" stroke="black"/>
<line x1="95.5" y1="19" x2="95.5" y2="26" stroke="black"/>
<path d="M22.8169 14.6445H25.8896V15H22.3076V14.6821L25.2607 10.3823H22.3965V10.0234H25.7803V10.3242L22.8169 14.6445Z" fill="black"/>
<path d="M26.2637 15.3682C26.2637 15.0635 26.3223 14.7891 26.4395 14.5449C26.5586 14.3008 26.7256 14.1113 26.9404 13.9766C27.1572 13.8398 27.4023 13.7715 27.6758 13.7715C28.0977 13.7715 28.4395 13.9199 28.7012 14.2168C28.9629 14.5117 29.0938 14.9033 29.0938 15.3916V15.4648C29.0938 15.7715 29.0342 16.0479 28.915 16.2939C28.7979 16.5381 28.6318 16.7266 28.417 16.8594C28.2021 16.9922 27.957 17.0586 27.6816 17.0586C27.2617 17.0586 26.9199 16.9111 26.6562 16.6162C26.3945 16.3193 26.2637 15.9268 26.2637 15.4385V15.3682ZM26.6152 15.4648C26.6152 15.8438 26.7129 16.1553 26.9082 16.3994C27.1055 16.6416 27.3633 16.7627 27.6816 16.7627C27.998 16.7627 28.2539 16.6416 28.4492 16.3994C28.6465 16.1553 28.7451 15.834 28.7451 15.4355V15.3682C28.7451 15.126 28.7002 14.9043 28.6104 14.7031C28.5205 14.502 28.3945 14.3467 28.2324 14.2373C28.0703 14.126 27.8848 14.0703 27.6758 14.0703C27.3633 14.0703 27.1084 14.1934 26.9111 14.4395C26.7139 14.6836 26.6152 15.0039 26.6152 15.4004V15.4648Z" fill="black"/>
<path d="M99.8169 19.6445H102.89V20H99.3076V19.6821L102.261 15.3823H99.3965V15.0234H102.78V15.3242L99.8169 19.6445Z" fill="black"/>
<path d="M104.752 21.7461H106.507V22H104.449V18.4453H104.752V21.7461Z" fill="black"/>
<path d="M88.483 43.35C88.5029 42.8322 88.6259 42.321 88.8469 41.8406C89.0893 41.3139 89.4452 40.8343 89.8949 40.4295C90.3447 40.0247 90.8794 39.7029 91.4691 39.4831C92.0587 39.2633 92.6911 39.15 93.3301 39.15C93.9691 39.15 94.6015 39.2633 95.1911 39.4831C95.7807 39.7029 96.3155 40.0247 96.7653 40.4295C97.215 40.8343 97.5708 41.3139 97.8132 41.8406C98.0343 42.321 98.1573 42.8322 98.1772 43.35H98.1433C98.1234 42.8277 97.9994 42.3129 97.7773 41.8302C97.5339 41.3014 97.1777 40.8221 96.7299 40.419C96.282 40.016 95.7512 39.697 95.1681 39.4796C94.585 39.2622 93.9605 39.1505 93.3301 39.1505C92.6997 39.1505 92.0752 39.2622 91.492 39.4796C90.9089 39.697 90.3781 40.016 89.9303 40.419C89.4825 40.8221 89.1263 41.3014 88.8829 41.8302C88.6608 42.3129 88.5368 42.8277 88.5168 43.35H88.483Z" stroke="black" stroke-width="0.3"/>
<path d="M59.483 56.35C59.5029 55.8322 59.6259 55.321 59.8469 54.8406C60.0893 54.3139 60.4452 53.8343 60.8949 53.4295C61.3447 53.0247 61.8794 52.7029 62.4691 52.4831C63.0587 52.2633 63.6911 52.15 64.3301 52.15C64.9691 52.15 65.6015 52.2633 66.1911 52.4831C66.7807 52.7029 67.3155 53.0247 67.7653 53.4295C68.215 53.8343 68.5708 54.3139 68.8132 54.8406C69.0343 55.321 69.1573 55.8322 69.1772 56.35H69.1433C69.1234 55.8277 68.9994 55.3129 68.7773 54.8302C68.5339 54.3014 68.1777 53.8221 67.7299 53.419C67.282 53.016 66.7512 52.697 66.1681 52.4796C65.585 52.2622 64.9605 52.1505 64.3301 52.1505C63.6997 52.1505 63.0752 52.2622 62.492 52.4796C61.9089 52.697 61.3781 53.016 60.9303 53.419C60.4825 53.8221 60.1263 54.3014 59.8829 54.8302C59.6608 55.3129 59.5368 55.8277 59.5168 56.35H59.483Z" stroke="black" stroke-width="0.3"/>
<path d="M40.1529 56.35C40.1728 55.8322 40.2958 55.321 40.5169 54.8406C40.7593 54.3139 41.1151 53.8343 41.5648 53.4295C42.0146 53.0247 42.5494 52.7029 43.139 52.4831C43.7286 52.2633 44.361 52.15 45 52.15C45.639 52.15 46.2714 52.2633 46.861 52.4831C47.4506 52.7029 47.9854 53.0247 48.4352 53.4295C48.8849 53.8343 49.2407 54.3139 49.4831 54.8406C49.7042 55.321 49.8272 55.8322 49.8471 56.35H49.8132C49.7933 55.8277 49.6693 55.3129 49.4472 54.8302C49.2038 54.3014 48.8476 53.8221 48.3998 53.419C47.952 53.016 47.4212 52.697 46.838 52.4796C46.2549 52.2622 45.6304 52.1505 45 52.1505C44.3696 52.1505 43.7451 52.2622 43.162 52.4796C42.5788 52.697 42.048 53.016 41.6002 53.419C41.1524 53.8221 40.7962 54.3014 40.5528 54.8302C40.3307 55.3129 40.2067 55.8277 40.1868 56.35H40.1529Z" stroke="black" stroke-width="0.3"/>
<path d="M20.8228 56.35C20.8427 55.8322 20.9657 55.321 21.1868 54.8406C21.4292 54.3139 21.785 53.8343 22.2347 53.4295C22.6845 53.0247 23.2193 52.7029 23.8089 52.4831C24.3985 52.2633 25.0309 52.15 25.6699 52.15C26.3089 52.15 26.9413 52.2633 27.5309 52.4831C28.1206 52.7029 28.6553 53.0247 29.1051 53.4295C29.5548 53.8343 29.9107 54.3139 30.1531 54.8406C30.3741 55.321 30.4971 55.8322 30.517 56.35H30.4832C30.4632 55.8277 30.3393 55.3129 30.1171 54.8302C29.8737 54.3014 29.5175 53.8221 29.0697 53.419C28.6219 53.016 28.0911 52.697 27.508 52.4796C26.9248 52.2622 26.3003 52.1505 25.6699 52.1505C25.0395 52.1505 24.415 52.2622 23.8319 52.4796C23.2488 52.697 22.718 53.016 22.2701 53.419C21.8223 53.8221 21.4661 54.3014 21.2227 54.8302C21.0006 55.3129 20.8766 55.8277 20.8567 56.35H20.8228Z" stroke="black" stroke-width="0.3"/>
<path d="M1.48296 56.35C1.50289 55.8322 1.62588 55.321 1.84694 54.8406C2.08935 54.3139 2.44515 53.8343 2.89489 53.4295C3.34466 53.0247 3.87944 52.7029 4.46906 52.4831C5.05868 52.2633 5.6911 52.15 6.33008 52.15C6.96906 52.15 7.60148 52.2633 8.1911 52.4831C8.78072 52.7029 9.3155 53.0247 9.76527 53.4295C10.215 53.8343 10.5708 54.3139 10.8132 54.8406C11.0343 55.321 11.1573 55.8322 11.1772 56.35H11.1433C11.1234 55.8277 10.9994 55.3129 10.7773 54.8302C10.5339 54.3014 10.1777 53.8221 9.72986 53.419C9.28205 53.016 8.75125 52.697 8.16812 52.4796C7.585 52.2622 6.96047 52.1505 6.33008 52.1505C5.69969 52.1505 5.07516 52.2622 4.49204 52.4796C3.90891 52.697 3.37811 53.016 2.9303 53.419C2.48245 53.8221 2.12626 54.3014 1.8829 54.8302C1.66075 55.3129 1.53678 55.8277 1.51683 56.35H1.48296Z" stroke="black" stroke-width="0.3"/>
<path d="M78.8228 56.35C78.8427 55.8322 78.9657 55.321 79.1868 54.8406C79.4292 54.3139 79.785 53.8343 80.2347 53.4295C80.6845 53.0247 81.2193 52.7029 81.8089 52.4831C82.3985 52.2633 83.0309 52.15 83.6699 52.15C84.3089 52.15 84.9413 52.2633 85.5309 52.4831C86.1206 52.7029 86.6553 53.0247 87.1051 53.4295C87.5548 53.8343 87.9107 54.3139 88.1531 54.8406C88.3741 55.321 88.4971 55.8322 88.517 56.35H88.4832C88.4632 55.8277 88.3393 55.3129 88.1171 54.8302C87.8737 54.3014 87.5175 53.8221 87.0697 53.419C86.6219 53.016 86.0911 52.697 85.508 52.4796C84.9248 52.2622 84.3003 52.1505 83.6699 52.1505C83.0395 52.1505 82.415 52.2622 81.8319 52.4796C81.2488 52.697 80.718 53.016 80.2701 53.419C79.8223 53.8221 79.4661 54.3014 79.2227 54.8302C79.0006 55.3129 78.8766 55.8277 78.8567 56.35H78.8228Z" stroke="black" stroke-width="0.3"/>
<path d="M69.1529 43.35C69.1728 42.8322 69.2958 42.321 69.5169 41.8406C69.7593 41.3139 70.1151 40.8343 70.5648 40.4295C71.0146 40.0247 71.5494 39.7029 72.139 39.4831C72.7286 39.2633 73.361 39.15 74 39.15C74.639 39.15 75.2714 39.2633 75.861 39.4831C76.4506 39.7029 76.9854 40.0247 77.4352 40.4295C77.8849 40.8343 78.2407 41.3139 78.4831 41.8406C78.7042 42.321 78.8272 42.8322 78.8471 43.35H78.8132C78.7933 42.8277 78.6693 42.3129 78.4472 41.8302C78.2038 41.3014 77.8476 40.8221 77.3998 40.419C76.952 40.016 76.4212 39.697 75.838 39.4796C75.2549 39.2622 74.6304 39.1505 74 39.1505C73.3696 39.1505 72.7451 39.2622 72.162 39.4796C71.5788 39.697 71.048 40.016 70.6002 40.419C70.1524 40.8221 69.7962 41.3014 69.5528 41.8302C69.3307 42.3129 69.2067 42.8277 69.1868 43.35H69.1529Z" stroke="black" stroke-width="0.3"/>
<path d="M49.8228 43.35C49.8427 42.8322 49.9657 42.321 50.1868 41.8406C50.4292 41.3139 50.785 40.8343 51.2347 40.4295C51.6845 40.0247 52.2193 39.7029 52.8089 39.4831C53.3985 39.2633 54.0309 39.15 54.6699 39.15C55.3089 39.15 55.9413 39.2633 56.5309 39.4831C57.1206 39.7029 57.6553 40.0247 58.1051 40.4295C58.5548 40.8343 58.9107 41.3139 59.1531 41.8406C59.3741 42.321 59.4971 42.8322 59.517 43.35H59.4832C59.4632 42.8277 59.3393 42.3129 59.1171 41.8302C58.8737 41.3014 58.5175 40.8221 58.0697 40.419C57.6219 40.016 57.0911 39.697 56.508 39.4796C55.9248 39.2622 55.3003 39.1505 54.6699 39.1505C54.0395 39.1505 53.415 39.2622 52.8319 39.4796C52.2488 39.697 51.718 40.016 51.2701 40.419C50.8223 40.8221 50.4661 41.3014 50.2227 41.8302C50.0006 42.3129 49.8766 42.8277 49.8567 43.35H49.8228Z" stroke="black" stroke-width="0.3"/>
<path d="M30.483 43.35C30.5029 42.8322 30.6259 42.321 30.8469 41.8406C31.0893 41.3139 31.4452 40.8343 31.8949 40.4295C32.3447 40.0247 32.8794 39.7029 33.4691 39.4831C34.0587 39.2633 34.6911 39.15 35.3301 39.15C35.9691 39.15 36.6015 39.2633 37.1911 39.4831C37.7807 39.7029 38.3155 40.0247 38.7653 40.4295C39.215 40.8343 39.5708 41.3139 39.8132 41.8406C40.0343 42.321 40.1573 42.8322 40.1772 43.35H40.1433C40.1234 42.8277 39.9994 42.3129 39.7773 41.8302C39.5339 41.3014 39.1777 40.8221 38.7299 40.419C38.282 40.016 37.7512 39.697 37.1681 39.4796C36.585 39.2622 35.9605 39.1505 35.3301 39.1505C34.6997 39.1505 34.0752 39.2622 33.492 39.4796C32.9089 39.697 32.3781 40.016 31.9303 40.419C31.4825 40.8221 31.1263 41.3014 30.8829 41.8302C30.6608 42.3129 30.5368 42.8277 30.5168 43.35H30.483Z" stroke="black" stroke-width="0.3"/>
<path d="M11.1529 43.35C11.1728 42.8322 11.2958 42.321 11.5169 41.8406C11.7593 41.3139 12.1151 40.8343 12.5648 40.4295C13.0146 40.0247 13.5494 39.7029 14.139 39.4831C14.7286 39.2633 15.361 39.15 16 39.15C16.639 39.15 17.2714 39.2633 17.861 39.4831C18.4506 39.7029 18.9854 40.0247 19.4352 40.4295C19.8849 40.8343 20.2407 41.3139 20.4831 41.8406C20.7042 42.321 20.8272 42.8322 20.8471 43.35H20.8132C20.7933 42.8277 20.6693 42.3129 20.4472 41.8302C20.2038 41.3014 19.8476 40.8221 19.3998 40.419C18.952 40.016 18.4212 39.697 17.838 39.4796C17.2549 39.2622 16.6304 39.1505 16 39.1505C15.3696 39.1505 14.7451 39.2622 14.162 39.4796C13.5788 39.697 13.048 40.016 12.6002 40.419C12.1524 40.8221 11.7962 41.3014 11.5528 41.8302C11.3307 42.3129 11.2067 42.8277 11.1868 43.35H11.1529Z" stroke="black" stroke-width="0.3"/>
<path d="M98.1772 56.65C98.1573 57.1678 98.0343 57.679 97.8132 58.1594C97.5708 58.6861 97.215 59.1657 96.7653 59.5705C96.3155 59.9753 95.7807 60.2971 95.1911 60.5169C94.6015 60.7367 93.9691 60.85 93.3301 60.85C92.6911 60.85 92.0587 60.7367 91.4691 60.5169C90.8794 60.2971 90.3447 59.9753 89.8949 59.5705C89.4452 59.1657 89.0893 58.6861 88.8469 58.1594C88.6259 57.679 88.5029 57.1678 88.483 56.65H88.5168C88.5368 57.1723 88.6607 57.6871 88.8829 58.1698C89.1263 58.6986 89.4825 59.1779 89.9303 59.581C90.3781 59.984 90.9089 60.303 91.492 60.5204C92.0752 60.7378 92.6997 60.8495 93.3301 60.8495C93.9605 60.8495 94.585 60.7378 95.1681 60.5204C95.7512 60.303 96.282 59.984 96.7299 59.581C97.1777 59.1779 97.5339 58.6986 97.7773 58.1698C97.9994 57.6871 98.1234 57.1723 98.1433 56.65H98.1772Z" stroke="black" stroke-width="0.3"/>
<path d="M88.517 43.65C88.4971 44.1678 88.3741 44.679 88.1531 45.1594C87.9107 45.6861 87.5548 46.1657 87.1051 46.5705C86.6553 46.9753 86.1206 47.2971 85.5309 47.5169C84.9413 47.7367 84.3089 47.85 83.6699 47.85C83.0309 47.85 82.3985 47.7367 81.8089 47.5169C81.2193 47.2971 80.6845 46.9753 80.2347 46.5705C79.785 46.1657 79.4292 45.6861 79.1868 45.1594C78.9657 44.679 78.8427 44.1678 78.8228 43.65H78.8567C78.8766 44.1723 79.0006 44.6871 79.2227 45.1698C79.4661 45.6986 79.8223 46.1779 80.2701 46.581C80.718 46.984 81.2488 47.303 81.8319 47.5204C82.415 47.7378 83.0395 47.8495 83.6699 47.8495C84.3003 47.8495 84.9248 47.7378 85.508 47.5204C86.0911 47.303 86.6219 46.984 87.0697 46.581C87.5175 46.1779 87.8737 45.6986 88.1171 45.1698C88.3392 44.6871 88.4632 44.1723 88.4832 43.65H88.517Z" stroke="black" stroke-width="0.3"/>
<path d="M78.8471 56.65C78.8272 57.1678 78.7042 57.679 78.4831 58.1594C78.2407 58.6861 77.8849 59.1657 77.4352 59.5705C76.9854 59.9753 76.4506 60.2971 75.861 60.5169C75.2714 60.7367 74.639 60.85 74 60.85C73.361 60.85 72.7286 60.7367 72.139 60.5169C71.5494 60.2971 71.0146 59.9753 70.5648 59.5705C70.1151 59.1657 69.7593 58.6861 69.5169 58.1594C69.2958 57.679 69.1728 57.1678 69.1529 56.65H69.1868C69.2067 57.1723 69.3307 57.6871 69.5528 58.1698C69.7962 58.6986 70.1524 59.1779 70.6002 59.581C71.048 59.984 71.5788 60.303 72.162 60.5204C72.7451 60.7378 73.3696 60.8495 74 60.8495C74.6304 60.8495 75.2549 60.7378 75.838 60.5204C76.4212 60.303 76.952 59.984 77.3998 59.581C77.8476 59.1779 78.2038 58.6986 78.4472 58.1698C78.6693 57.6871 78.7933 57.1723 78.8132 56.65H78.8471Z" stroke="black" stroke-width="0.3"/>
<path d="M69.1772 43.65C69.1573 44.1678 69.0343 44.679 68.8132 45.1594C68.5708 45.6861 68.215 46.1657 67.7653 46.5705C67.3155 46.9753 66.7807 47.2971 66.1911 47.5169C65.6015 47.7367 64.9691 47.85 64.3301 47.85C63.6911 47.85 63.0587 47.7367 62.4691 47.5169C61.8794 47.2971 61.3447 46.9753 60.8949 46.5705C60.4452 46.1657 60.0893 45.6861 59.8469 45.1594C59.6259 44.679 59.5029 44.1678 59.483 43.65H59.5168C59.5368 44.1723 59.6607 44.6871 59.8829 45.1698C60.1263 45.6986 60.4825 46.1779 60.9303 46.581C61.3781 46.984 61.9089 47.303 62.492 47.5204C63.0752 47.7378 63.6997 47.8495 64.3301 47.8495C64.9605 47.8495 65.585 47.7378 66.1681 47.5204C66.7512 47.303 67.282 46.984 67.7299 46.581C68.1777 46.1779 68.5339 45.6986 68.7773 45.1698C68.9994 44.6871 69.1234 44.1723 69.1433 43.65H69.1772Z" stroke="black" stroke-width="0.3"/>
<path d="M49.8471 43.65C49.8272 44.1678 49.7042 44.679 49.4831 45.1594C49.2407 45.6861 48.8849 46.1657 48.4352 46.5705C47.9854 46.9753 47.4506 47.2971 46.861 47.5169C46.2714 47.7367 45.639 47.85 45 47.85C44.361 47.85 43.7286 47.7367 43.139 47.5169C42.5494 47.2971 42.0146 46.9753 41.5648 46.5705C41.1151 46.1657 40.7593 45.6861 40.5169 45.1594C40.2958 44.679 40.1728 44.1678 40.1529 43.65H40.1868C40.2067 44.1723 40.3307 44.6871 40.5528 45.1698C40.7962 45.6986 41.1524 46.1779 41.6002 46.581C42.048 46.984 42.5788 47.303 43.162 47.5204C43.7451 47.7378 44.3696 47.8495 45 47.8495C45.6304 47.8495 46.2549 47.7378 46.838 47.5204C47.4212 47.303 47.952 46.984 48.3998 46.581C48.8476 46.1779 49.2038 45.6986 49.4472 45.1698C49.6693 44.6871 49.7933 44.1723 49.8132 43.65H49.8471Z" stroke="black" stroke-width="0.3"/>
<path d="M30.517 43.65C30.4971 44.1678 30.3741 44.679 30.1531 45.1594C29.9107 45.6861 29.5548 46.1657 29.1051 46.5705C28.6553 46.9753 28.1206 47.2971 27.5309 47.5169C26.9413 47.7367 26.3089 47.85 25.6699 47.85C25.0309 47.85 24.3985 47.7367 23.8089 47.5169C23.2193 47.2971 22.6845 46.9753 22.2347 46.5705C21.785 46.1657 21.4292 45.6861 21.1868 45.1594C20.9657 44.679 20.8427 44.1678 20.8228 43.65H20.8567C20.8766 44.1723 21.0006 44.6871 21.2227 45.1698C21.4661 45.6986 21.8223 46.1779 22.2701 46.581C22.718 46.984 23.2488 47.303 23.8319 47.5204C24.415 47.7378 25.0395 47.8495 25.6699 47.8495C26.3003 47.8495 26.9248 47.7378 27.508 47.5204C28.0911 47.303 28.6219 46.984 29.0697 46.581C29.5175 46.1779 29.8737 45.6986 30.1171 45.1698C30.3392 44.6871 30.4632 44.1723 30.4832 43.65H30.517Z" stroke="black" stroke-width="0.3"/>
<path d="M11.1772 43.65C11.1573 44.1678 11.0343 44.679 10.8132 45.1594C10.5708 45.6861 10.215 46.1657 9.76527 46.5705C9.3155 46.9753 8.78071 47.2971 8.1911 47.5169C7.60147 47.7367 6.96906 47.85 6.33008 47.85C5.6911 47.85 5.05868 47.7367 4.46906 47.5169C3.87944 47.2971 3.34465 46.9753 2.89489 46.5705C2.44515 46.1657 2.08935 45.6861 1.84694 45.1594C1.62588 44.679 1.50289 44.1678 1.48296 43.65H1.51683C1.53678 44.1723 1.66075 44.6871 1.88289 45.1698C2.12625 45.6986 2.48245 46.1779 2.93029 46.581C3.37811 46.984 3.90891 47.303 4.49204 47.5204C5.07516 47.7378 5.69969 47.8495 6.33008 47.8495C6.96047 47.8495 7.58499 47.7378 8.16812 47.5204C8.75125 47.303 9.28205 46.984 9.72986 46.581C10.1777 46.1779 10.5339 45.6986 10.7773 45.1698C10.9994 44.6871 11.1234 44.1723 11.1433 43.65H11.1772Z" stroke="black" stroke-width="0.3"/>
<path d="M59.517 56.65C59.4971 57.1678 59.3741 57.679 59.1531 58.1594C58.9107 58.6861 58.5548 59.1657 58.1051 59.5705C57.6553 59.9753 57.1206 60.2971 56.5309 60.5169C55.9413 60.7367 55.3089 60.85 54.6699 60.85C54.0309 60.85 53.3985 60.7367 52.8089 60.5169C52.2193 60.2971 51.6845 59.9753 51.2347 59.5705C50.785 59.1657 50.4292 58.6861 50.1868 58.1594C49.9657 57.679 49.8427 57.1678 49.8228 56.65H49.8567C49.8766 57.1723 50.0006 57.6871 50.2227 58.1698C50.4661 58.6986 50.8223 59.1779 51.2701 59.581C51.718 59.984 52.2488 60.303 52.8319 60.5204C53.415 60.7378 54.0395 60.8495 54.6699 60.8495C55.3003 60.8495 55.9248 60.7378 56.508 60.5204C57.0911 60.303 57.6219 59.984 58.0697 59.581C58.5175 59.1779 58.8737 58.6986 59.1171 58.1698C59.3392 57.6871 59.4632 57.1723 59.4832 56.65H59.517Z" stroke="black" stroke-width="0.3"/>
<path d="M40.1772 56.65C40.1573 57.1678 40.0343 57.679 39.8132 58.1594C39.5708 58.6861 39.215 59.1657 38.7653 59.5705C38.3155 59.9753 37.7807 60.2971 37.1911 60.5169C36.6015 60.7367 35.9691 60.85 35.3301 60.85C34.6911 60.85 34.0587 60.7367 33.4691 60.5169C32.8794 60.2971 32.3447 59.9753 31.8949 59.5705C31.4452 59.1657 31.0893 58.6861 30.8469 58.1594C30.6259 57.679 30.5029 57.1678 30.483 56.65H30.5168C30.5368 57.1723 30.6607 57.6871 30.8829 58.1698C31.1263 58.6986 31.4825 59.1779 31.9303 59.581C32.3781 59.984 32.9089 60.303 33.492 60.5204C34.0752 60.7378 34.6997 60.8495 35.3301 60.8495C35.9605 60.8495 36.585 60.7378 37.1681 60.5204C37.7512 60.303 38.282 59.984 38.7299 59.581C39.1777 59.1779 39.5339 58.6986 39.7773 58.1698C39.9994 57.6871 40.1234 57.1723 40.1433 56.65H40.1772Z" stroke="black" stroke-width="0.3"/>
<path d="M20.8471 56.65C20.8272 57.1678 20.7042 57.679 20.4831 58.1594C20.2407 58.6861 19.8849 59.1657 19.4352 59.5705C18.9854 59.9753 18.4506 60.2971 17.861 60.5169C17.2714 60.7367 16.639 60.85 16 60.85C15.361 60.85 14.7286 60.7367 14.139 60.5169C13.5494 60.2971 13.0146 59.9753 12.5648 59.5705C12.1151 59.1657 11.7593 58.6861 11.5169 58.1594C11.2958 57.679 11.1728 57.1678 11.1529 56.65H11.1868C11.2067 57.1723 11.3307 57.6871 11.5528 58.1698C11.7962 58.6986 12.1524 59.1779 12.6002 59.581C13.048 59.984 13.5788 60.303 14.162 60.5204C14.7451 60.7378 15.3696 60.8495 16 60.8495C16.6304 60.8495 17.2549 60.7378 17.838 60.5204C18.4212 60.303 18.952 59.984 19.3998 59.581C19.8476 59.1779 20.2038 58.6986 20.4472 58.1698C20.6693 57.6871 20.7933 57.1723 20.8132 56.65H20.8471Z" stroke="black" stroke-width="0.3"/>
<line x1="95.25" y1="33" x2="95.25" y2="35" stroke="black" stroke-width="0.5"/>
<line x1="95.25" y1="30" x2="95.25" y2="32" stroke="black" stroke-width="0.5"/>
<line x1="95.25" y1="27" x2="95.25" y2="29" stroke="black" stroke-width="0.5"/>
<line x1="83.75" y1="33" x2="83.75" y2="35" stroke="black" stroke-width="0.5"/>
<line x1="83.75" y1="30" x2="83.75" y2="32" stroke="black" stroke-width="0.5"/>
<line x1="83.75" y1="27" x2="83.75" y2="29" stroke="black" stroke-width="0.5"/>
<line x1="83.75" y1="36" x2="83.75" y2="38" stroke="black" stroke-width="0.5"/>
<line x1="83.75" y1="39" x2="83.75" y2="41" stroke="black" stroke-width="0.5"/>
<line x1="83.75" y1="42" x2="83.75" y2="44" stroke="black" stroke-width="0.5"/>
<line x1="83.75" y1="45" x2="83.75" y2="47" stroke="black" stroke-width="0.5"/>
<line x1="83.75" y1="48" x2="83.75" y2="50" stroke="black" stroke-width="0.5"/>
<line x1="83.75" y1="51" x2="83.75" y2="53" stroke="black" stroke-width="0.5"/>
<line x1="83.75" y1="54" x2="83.75" y2="56" stroke="black" stroke-width="0.5"/>
<line x1="83.75" y1="57" x2="83.75" y2="59" stroke="black" stroke-width="0.5"/>
<line x1="83.75" y1="60" x2="83.75" y2="62" stroke="black" stroke-width="0.5"/>
<line x1="83.75" y1="63" x2="83.75" y2="65" stroke="black" stroke-width="0.5"/>
<line x1="95.25" y1="36" x2="95.25" y2="38" stroke="black" stroke-width="0.5"/>
<line x1="95.25" y1="39" x2="95.25" y2="41" stroke="black" stroke-width="0.5"/>
<line x1="95.25" y1="42" x2="95.25" y2="44" stroke="black" stroke-width="0.5"/>
<line x1="95.25" y1="45" x2="95.25" y2="47" stroke="black" stroke-width="0.5"/>
<line x1="95.25" y1="48" x2="95.25" y2="50" stroke="black" stroke-width="0.5"/>
<line x1="95.25" y1="51" x2="95.25" y2="53" stroke="black" stroke-width="0.5"/>
<line x1="95.25" y1="54" x2="95.25" y2="56" stroke="black" stroke-width="0.5"/>
<line x1="95.25" y1="57" x2="95.25" y2="59" stroke="black" stroke-width="0.5"/>
<line x1="95.25" y1="60" x2="95.25" y2="62" stroke="black" stroke-width="0.5"/>
<line x1="95.25" y1="63" x2="95.25" y2="65" stroke="black" stroke-width="0.5"/>
<path d="M102.177 31.1768C102.274 31.0791 102.274 30.9209 102.177 30.8232L100.586 29.2322C100.488 29.1346 100.33 29.1346 100.232 29.2322C100.135 29.3299 100.135 29.4882 100.232 29.5858L101.646 31L100.232 32.4142C100.135 32.5118 100.135 32.6701 100.232 32.7678C100.33 32.8654 100.488 32.8654 100.586 32.7678L102.177 31.1768ZM0 31.25H102V30.75H0V31.25Z" fill="black"/>
<path d="M83.1719 31.6102C83.1709 31.555 83.1253 31.5111 83.0701 31.5121L82.1702 31.5288C82.115 31.5298 82.0711 31.5754 82.0721 31.6306C82.0731 31.6858 82.1187 31.7298 82.1739 31.7288L82.9738 31.7139L82.9886 32.5138C82.9897 32.569 83.0353 32.6129 83.0905 32.6119C83.1457 32.6109 83.1896 32.5653 83.1886 32.5101L83.1719 31.6102ZM80.072 34.8694L83.1439 31.6815L82.9999 31.5427L79.928 34.7307L80.072 34.8694Z" fill="black"/>
<path d="M94.772 31.6102C94.771 31.555 94.7254 31.5111 94.6702 31.5121L93.7703 31.5288C93.7151 31.5298 93.6712 31.5754 93.6722 31.6306C93.6732 31.6858 93.7188 31.7298 93.774 31.7288L94.5739 31.7139L94.5887 32.5138C94.5898 32.569 94.6353 32.6129 94.6906 32.6119C94.7458 32.6109 94.7897 32.5653 94.7887 32.5101L94.772 31.6102ZM91.6721 34.8694L94.744 31.6815L94.6 31.5427L91.5281 34.7307L91.6721 34.8694Z" fill="black"/>
<path d="M76.3501 36.8477H77.667V37H76.1318V36.8638L77.3975 35.021H76.1699V34.8672H77.6201V34.9961L76.3501 36.8477ZM79.2358 35.7856H78.0142V35.6304H79.2358V35.7856ZM79.2358 36.3877H78.0142V36.2324H79.2358V36.3877ZM80.2305 36.1328H79.5288V35.9849H80.2305V36.1328ZM80.4736 36.1929C80.4736 35.9468 80.5283 35.751 80.6377 35.6055C80.748 35.459 80.8975 35.3857 81.0859 35.3857C81.2998 35.3857 81.4629 35.4702 81.5752 35.6392V34.75H81.7495V37H81.5854L81.5781 36.7891C81.4658 36.9492 81.3008 37.0293 81.083 37.0293C80.9004 37.0293 80.7529 36.9561 80.6406 36.8096C80.5293 36.6621 80.4736 36.4634 80.4736 36.2134V36.1929ZM80.6509 36.2236C80.6509 36.4258 80.6914 36.5854 80.7725 36.7026C80.8535 36.8188 80.9678 36.877 81.1152 36.877C81.3311 36.877 81.4844 36.7817 81.5752 36.5913V35.8472C81.4844 35.6411 81.332 35.5381 81.1182 35.5381C80.9707 35.5381 80.856 35.5962 80.7739 35.7124C80.6919 35.8276 80.6509 35.998 80.6509 36.2236Z" fill="black"/>
<path d="M89.3501 36.8477H90.667V37H89.1318V36.8638L90.3975 35.021H89.1699V34.8672H90.6201V34.9961L89.3501 36.8477ZM92.2358 35.7856H91.0142V35.6304H92.2358V35.7856ZM92.2358 36.3877H91.0142V36.2324H92.2358V36.3877ZM93.9438 36.1108C93.9438 36.4116 93.8887 36.6401 93.7783 36.7964C93.668 36.9517 93.5054 37.0293 93.2905 37.0293C93.0796 37.0293 92.918 36.9531 92.8057 36.8008C92.6934 36.6475 92.6357 36.4248 92.6328 36.1328V35.7505C92.6328 35.4507 92.6885 35.2236 92.7998 35.0693C92.9111 34.915 93.0737 34.8379 93.2876 34.8379C93.4985 34.8379 93.6597 34.9126 93.771 35.062C93.8823 35.2104 93.9399 35.4297 93.9438 35.7197V36.1108ZM93.7681 35.7285C93.7681 35.4844 93.728 35.2998 93.6479 35.1748C93.5688 35.0498 93.4487 34.9873 93.2876 34.9873C93.1294 34.9873 93.0103 35.0483 92.9302 35.1704C92.8501 35.2925 92.8091 35.4727 92.8071 35.7109V36.1299C92.8071 36.373 92.8481 36.5591 92.9302 36.688C93.0132 36.8169 93.1333 36.8813 93.2905 36.8813C93.4468 36.8813 93.5649 36.8184 93.645 36.6924C93.7261 36.5664 93.7671 36.3818 93.7681 36.1387V35.7285Z" fill="black"/>
</svg>
