<svg width="124" height="39" viewBox="0 0 124 39" fill="none" xmlns="http://www.w3.org/2000/svg">
<mask id="path-1-inside-1_206:432" fill="white">
<path d="M81 27C81.2626 27 81.5227 27.0517 81.7654 27.1522C82.008 27.2528 82.2285 27.4001 82.4142 27.5858C82.5999 27.7715 82.7472 27.992 82.8478 28.2346C82.9483 28.4773 83 28.7374 83 29C83 29.2626 82.9483 29.5227 82.8478 29.7654C82.7472 30.008 82.5999 30.2285 82.4142 30.4142C82.2285 30.5999 82.008 30.7472 81.7654 30.8478C81.5227 30.9483 81.2626 31 81 31V30.8664C81.2451 30.8664 81.4878 30.8182 81.7143 30.7244C81.9407 30.6306 82.1465 30.4931 82.3198 30.3198C82.4931 30.1465 82.6306 29.9407 82.7244 29.7143C82.8182 29.4878 82.8664 29.2451 82.8664 29C82.8664 28.7549 82.8182 28.5122 82.7244 28.2857C82.6306 28.0593 82.4931 27.8535 82.3198 27.6802C82.1465 27.5069 81.9407 27.3694 81.7143 27.2756C81.4878 27.1818 81.2451 27.1336 81 27.1336V27Z"/>
</mask>
<path d="M81 27L81 26.7L80.7 26.7V27H81ZM81 31H80.7V31.3L81 31.3L81 31ZM81 30.8664L81 30.5664L80.7 30.5664V30.8664H81ZM81 27.1336H80.7V27.4336L81 27.4336L81 27.1336ZM81 27.3C81.2232 27.3 81.4443 27.344 81.6506 27.4294L81.8802 26.8751C81.6011 26.7595 81.302 26.7 81 26.7L81 27.3ZM81.6506 27.4294C81.8568 27.5148 82.0442 27.6401 82.2021 27.7979L82.6263 27.3737C82.4128 27.1601 82.1592 26.9907 81.8802 26.8751L81.6506 27.4294ZM82.2021 27.7979C82.3599 27.9558 82.4852 28.1432 82.5706 28.3494L83.1249 28.1198C83.0093 27.8408 82.8399 27.5872 82.6263 27.3737L82.2021 27.7979ZM82.5706 28.3494C82.656 28.5557 82.7 28.7768 82.7 29L83.3 29C83.3 28.698 83.2405 28.3989 83.1249 28.1198L82.5706 28.3494ZM82.7 29C82.7 29.2232 82.656 29.4443 82.5706 29.6506L83.1249 29.8802C83.2405 29.6011 83.3 29.302 83.3 29L82.7 29ZM82.5706 29.6506C82.4852 29.8568 82.3599 30.0442 82.2021 30.2021L82.6263 30.6263C82.8399 30.4128 83.0093 30.1592 83.1249 29.8802L82.5706 29.6506ZM82.2021 30.2021C82.0442 30.3599 81.8568 30.4852 81.6506 30.5706L81.8802 31.1249C82.1592 31.0093 82.4128 30.8399 82.6263 30.6263L82.2021 30.2021ZM81.6506 30.5706C81.4443 30.656 81.2232 30.7 81 30.7L81 31.3C81.302 31.3 81.6011 31.2405 81.8802 31.1249L81.6506 30.5706ZM81.3 31V30.8664H80.7V31H81.3ZM81 31.1664C81.2845 31.1664 81.5662 31.1104 81.8291 31.0015L81.5995 30.4472C81.4094 30.5259 81.2057 30.5664 81 30.5664L81 31.1664ZM81.8291 31.0015C82.0919 30.8927 82.3307 30.7331 82.5319 30.5319L82.1076 30.1076C81.9622 30.2531 81.7895 30.3685 81.5995 30.4472L81.8291 31.0015ZM82.5319 30.5319C82.7331 30.3307 82.8927 30.0919 83.0015 29.8291L82.4472 29.5995C82.3685 29.7895 82.2531 29.9622 82.1076 30.1076L82.5319 30.5319ZM83.0015 29.8291C83.1104 29.5662 83.1664 29.2845 83.1664 29L82.5664 29C82.5664 29.2057 82.5259 29.4094 82.4472 29.5995L83.0015 29.8291ZM83.1664 29C83.1664 28.7155 83.1104 28.4338 83.0015 28.1709L82.4472 28.4005C82.5259 28.5906 82.5664 28.7943 82.5664 29L83.1664 29ZM83.0015 28.1709C82.8927 27.9081 82.7331 27.6693 82.5319 27.4681L82.1076 27.8924C82.2531 28.0378 82.3685 28.2105 82.4472 28.4005L83.0015 28.1709ZM82.5319 27.4681C82.3307 27.2669 82.0919 27.1073 81.8291 26.9985L81.5995 27.5528C81.7895 27.6315 81.9622 27.7469 82.1076 27.8924L82.5319 27.4681ZM81.8291 26.9985C81.5662 26.8896 81.2845 26.8336 81 26.8336L81 27.4336C81.2057 27.4336 81.4094 27.4741 81.5995 27.5528L81.8291 26.9985ZM81.3 27.1336V27H80.7V27.1336H81.3Z" fill="black" mask="url(#path-1-inside-1_206:432)"/>
<mask id="path-3-inside-2_206:432" fill="white">
<path d="M81 23C81.2626 23 81.5227 23.0517 81.7654 23.1522C82.008 23.2528 82.2285 23.4001 82.4142 23.5858C82.5999 23.7715 82.7472 23.992 82.8478 24.2346C82.9483 24.4773 83 24.7374 83 25C83 25.2626 82.9483 25.5227 82.8478 25.7654C82.7472 26.008 82.5999 26.2285 82.4142 26.4142C82.2285 26.5999 82.008 26.7472 81.7654 26.8478C81.5227 26.9483 81.2626 27 81 27V26.8664C81.2451 26.8664 81.4878 26.8182 81.7143 26.7244C81.9407 26.6306 82.1465 26.4931 82.3198 26.3198C82.4931 26.1465 82.6306 25.9407 82.7244 25.7143C82.8182 25.4878 82.8664 25.2451 82.8664 25C82.8664 24.7549 82.8182 24.5122 82.7244 24.2857C82.6306 24.0593 82.4931 23.8535 82.3198 23.6802C82.1465 23.5069 81.9407 23.3694 81.7143 23.2756C81.4878 23.1818 81.2451 23.1336 81 23.1336V23Z"/>
</mask>
<path d="M81 23L81 22.7L80.7 22.7V23H81ZM81 27H80.7V27.3L81 27.3L81 27ZM81 26.8664L81 26.5664L80.7 26.5664V26.8664H81ZM81 23.1336H80.7V23.4336L81 23.4336L81 23.1336ZM81 23.3C81.2232 23.3 81.4443 23.344 81.6506 23.4294L81.8802 22.8751C81.6011 22.7595 81.302 22.7 81 22.7L81 23.3ZM81.6506 23.4294C81.8568 23.5148 82.0442 23.6401 82.2021 23.7979L82.6263 23.3737C82.4128 23.1601 82.1592 22.9907 81.8802 22.8751L81.6506 23.4294ZM82.2021 23.7979C82.3599 23.9558 82.4852 24.1432 82.5706 24.3494L83.1249 24.1198C83.0093 23.8408 82.8399 23.5872 82.6263 23.3737L82.2021 23.7979ZM82.5706 24.3494C82.656 24.5557 82.7 24.7768 82.7 25L83.3 25C83.3 24.698 83.2405 24.3989 83.1249 24.1198L82.5706 24.3494ZM82.7 25C82.7 25.2232 82.656 25.4443 82.5706 25.6506L83.1249 25.8802C83.2405 25.6011 83.3 25.302 83.3 25L82.7 25ZM82.5706 25.6506C82.4852 25.8568 82.3599 26.0442 82.2021 26.2021L82.6263 26.6263C82.8399 26.4128 83.0093 26.1592 83.1249 25.8802L82.5706 25.6506ZM82.2021 26.2021C82.0442 26.3599 81.8568 26.4852 81.6506 26.5706L81.8802 27.1249C82.1592 27.0093 82.4128 26.8399 82.6263 26.6263L82.2021 26.2021ZM81.6506 26.5706C81.4443 26.656 81.2232 26.7 81 26.7L81 27.3C81.302 27.3 81.6011 27.2405 81.8802 27.1249L81.6506 26.5706ZM81.3 27V26.8664H80.7V27H81.3ZM81 27.1664C81.2845 27.1664 81.5662 27.1104 81.8291 27.0015L81.5995 26.4472C81.4094 26.5259 81.2057 26.5664 81 26.5664L81 27.1664ZM81.8291 27.0015C82.0919 26.8927 82.3307 26.7331 82.5319 26.5319L82.1076 26.1076C81.9622 26.2531 81.7895 26.3685 81.5995 26.4472L81.8291 27.0015ZM82.5319 26.5319C82.7331 26.3307 82.8927 26.0919 83.0015 25.8291L82.4472 25.5995C82.3685 25.7895 82.2531 25.9622 82.1076 26.1076L82.5319 26.5319ZM83.0015 25.8291C83.1104 25.5662 83.1664 25.2845 83.1664 25L82.5664 25C82.5664 25.2057 82.5259 25.4094 82.4472 25.5995L83.0015 25.8291ZM83.1664 25C83.1664 24.7155 83.1104 24.4338 83.0015 24.1709L82.4472 24.4005C82.5259 24.5906 82.5664 24.7943 82.5664 25L83.1664 25ZM83.0015 24.1709C82.8927 23.9081 82.7331 23.6693 82.5319 23.4681L82.1076 23.8924C82.2531 24.0378 82.3685 24.2105 82.4472 24.4005L83.0015 24.1709ZM82.5319 23.4681C82.3307 23.2669 82.0919 23.1073 81.8291 22.9985L81.5995 23.5528C81.7895 23.6315 81.9622 23.7469 82.1076 23.8924L82.5319 23.4681ZM81.8291 22.9985C81.5662 22.8896 81.2845 22.8336 81 22.8336L81 23.4336C81.2057 23.4336 81.4094 23.4741 81.5995 23.5528L81.8291 22.9985ZM81.3 23.1336V23H80.7V23.1336H81.3Z" fill="black" mask="url(#path-3-inside-2_206:432)"/>
<mask id="path-5-inside-3_206:432" fill="white">
<path d="M81 19C81.2626 19 81.5227 19.0517 81.7654 19.1522C82.008 19.2528 82.2285 19.4001 82.4142 19.5858C82.5999 19.7715 82.7472 19.992 82.8478 20.2346C82.9483 20.4773 83 20.7374 83 21C83 21.2626 82.9483 21.5227 82.8478 21.7654C82.7472 22.008 82.5999 22.2285 82.4142 22.4142C82.2285 22.5999 82.008 22.7472 81.7654 22.8478C81.5227 22.9483 81.2626 23 81 23V22.8664C81.2451 22.8664 81.4878 22.8182 81.7143 22.7244C81.9407 22.6306 82.1465 22.4931 82.3198 22.3198C82.4931 22.1465 82.6306 21.9407 82.7244 21.7143C82.8182 21.4878 82.8664 21.2451 82.8664 21C82.8664 20.7549 82.8182 20.5122 82.7244 20.2857C82.6306 20.0593 82.4931 19.8535 82.3198 19.6802C82.1465 19.5069 81.9407 19.3694 81.7143 19.2756C81.4878 19.1818 81.2451 19.1336 81 19.1336V19Z"/>
</mask>
<path d="M81 19L81 18.7L80.7 18.7V19H81ZM81 23H80.7V23.3L81 23.3L81 23ZM81 22.8664L81 22.5664L80.7 22.5664V22.8664H81ZM81 19.1336H80.7V19.4336L81 19.4336L81 19.1336ZM81 19.3C81.2232 19.3 81.4443 19.344 81.6506 19.4294L81.8802 18.8751C81.6011 18.7595 81.302 18.7 81 18.7L81 19.3ZM81.6506 19.4294C81.8568 19.5148 82.0442 19.6401 82.2021 19.7979L82.6263 19.3737C82.4128 19.1601 82.1592 18.9907 81.8802 18.8751L81.6506 19.4294ZM82.2021 19.7979C82.3599 19.9558 82.4852 20.1432 82.5706 20.3494L83.1249 20.1198C83.0093 19.8408 82.8399 19.5872 82.6263 19.3737L82.2021 19.7979ZM82.5706 20.3494C82.656 20.5557 82.7 20.7768 82.7 21L83.3 21C83.3 20.698 83.2405 20.3989 83.1249 20.1198L82.5706 20.3494ZM82.7 21C82.7 21.2232 82.656 21.4443 82.5706 21.6506L83.1249 21.8802C83.2405 21.6011 83.3 21.302 83.3 21L82.7 21ZM82.5706 21.6506C82.4852 21.8568 82.3599 22.0442 82.2021 22.2021L82.6263 22.6263C82.8399 22.4128 83.0093 22.1592 83.1249 21.8802L82.5706 21.6506ZM82.2021 22.2021C82.0442 22.3599 81.8568 22.4852 81.6506 22.5706L81.8802 23.1249C82.1592 23.0093 82.4128 22.8399 82.6263 22.6263L82.2021 22.2021ZM81.6506 22.5706C81.4443 22.656 81.2232 22.7 81 22.7L81 23.3C81.302 23.3 81.6011 23.2405 81.8802 23.1249L81.6506 22.5706ZM81.3 23V22.8664H80.7V23H81.3ZM81 23.1664C81.2845 23.1664 81.5662 23.1104 81.8291 23.0015L81.5995 22.4472C81.4094 22.5259 81.2057 22.5664 81 22.5664L81 23.1664ZM81.8291 23.0015C82.0919 22.8927 82.3307 22.7331 82.5319 22.5319L82.1076 22.1076C81.9622 22.2531 81.7895 22.3685 81.5995 22.4472L81.8291 23.0015ZM82.5319 22.5319C82.7331 22.3307 82.8927 22.0919 83.0015 21.8291L82.4472 21.5995C82.3685 21.7895 82.2531 21.9622 82.1076 22.1076L82.5319 22.5319ZM83.0015 21.8291C83.1104 21.5662 83.1664 21.2845 83.1664 21L82.5664 21C82.5664 21.2057 82.5259 21.4094 82.4472 21.5995L83.0015 21.8291ZM83.1664 21C83.1664 20.7155 83.1104 20.4338 83.0015 20.1709L82.4472 20.4005C82.5259 20.5906 82.5664 20.7943 82.5664 21L83.1664 21ZM83.0015 20.1709C82.8927 19.9081 82.7331 19.6693 82.5319 19.4681L82.1076 19.8924C82.2531 20.0378 82.3685 20.2105 82.4472 20.4005L83.0015 20.1709ZM82.5319 19.4681C82.3307 19.2669 82.0919 19.1073 81.8291 18.9985L81.5995 19.5528C81.7895 19.6315 81.9622 19.7469 82.1076 19.8924L82.5319 19.4681ZM81.8291 18.9985C81.5662 18.8896 81.2845 18.8336 81 18.8336L81 19.4336C81.2057 19.4336 81.4094 19.4741 81.5995 19.5528L81.8291 18.9985ZM81.3 19.1336V19H80.7V19.1336H81.3Z" fill="black" mask="url(#path-5-inside-3_206:432)"/>
<rect x="110.5" y="19.5" width="4" height="11" stroke="black"/>
<path d="M112.5 13V20" stroke="black"/>
<path d="M81.5 13V19" stroke="black"/>
<path d="M81.5 31V38" stroke="black"/>
<line x1="112.5" y1="31" x2="112.5" y2="38" stroke="black"/>
<line y1="12.5" x2="45" y2="12.5" stroke="black"/>
<line x1="60" y1="12.5" x2="113" y2="12.5" stroke="black"/>
<line y1="38.5" x2="34" y2="38.5" stroke="black"/>
<line x1="34" y1="38.5" x2="113" y2="38.5" stroke="black"/>
<path d="M116.817 27.6445H119.89V28H116.308V27.6821L119.261 23.3823H116.396V23.0234H119.78V23.3242L116.817 27.6445Z" fill="black"/>
<path d="M121.752 29.7461H123.507V30H121.449V26.4453H121.752V29.7461Z" fill="black"/>
<path d="M54.1528 4.44824C54.0959 4.97233 53.9079 5.37337 53.5889 5.65137C53.2721 5.92936 52.8494 6.06836 52.3208 6.06836C51.9517 6.06836 51.6247 5.97607 51.3398 5.7915C51.0573 5.60693 50.8385 5.34603 50.6836 5.00879C50.5286 4.66927 50.45 4.2819 50.4478 3.84668V3.20068C50.4478 2.75863 50.5252 2.3667 50.6802 2.0249C50.8351 1.68311 51.0573 1.41992 51.3467 1.23535C51.6383 1.0485 51.9733 0.955078 52.3516 0.955078C52.8848 0.955078 53.3052 1.09977 53.6128 1.38916C53.9227 1.67627 54.1027 2.07389 54.1528 2.58203H53.729C53.6242 1.73665 53.165 1.31396 52.3516 1.31396C51.9004 1.31396 51.5404 1.48258 51.2715 1.81982C51.0049 2.15706 50.8716 2.62305 50.8716 3.21777V3.82617C50.8716 4.40039 51.0015 4.8584 51.2612 5.2002C51.5233 5.54199 51.8765 5.71289 52.3208 5.71289C52.7606 5.71289 53.0921 5.60807 53.3154 5.39844C53.5387 5.18652 53.6766 4.86979 53.729 4.44824H54.1528Z" fill="black"/>
<path d="M57.0049 5.70605C57.0049 6.11784 56.9137 6.44499 56.7314 6.6875C56.5492 6.92839 56.305 7.04883 55.999 7.04883C55.6377 7.04883 55.361 6.92188 55.1689 6.66797V8.01562H54.8784V4.3584H55.1494L55.1641 4.73193C55.3545 4.45036 55.6304 4.30957 55.9917 4.30957C56.3075 4.30957 56.5549 4.4292 56.7339 4.66846C56.9146 4.90771 57.0049 5.23975 57.0049 5.66455V5.70605ZM56.7119 5.65479C56.7119 5.31787 56.6427 5.05176 56.5044 4.85645C56.366 4.66113 56.1732 4.56348 55.9258 4.56348C55.7467 4.56348 55.5929 4.60661 55.4644 4.69287C55.3358 4.77913 55.2373 4.90446 55.1689 5.06885V6.33594C55.2389 6.4873 55.339 6.60286 55.4692 6.68262C55.5994 6.76237 55.7533 6.80225 55.9307 6.80225C56.1764 6.80225 56.3677 6.70459 56.5044 6.50928C56.6427 6.31234 56.7119 6.02751 56.7119 5.65479Z" fill="black"/>
<path d="M87.0527 26.6445H89.5103V27H86.6289V22.0234H87.0527V26.6445Z" fill="black"/>
<path d="M91.9629 27.3286C91.9629 27.1838 91.9043 27.0674 91.7871 26.9795C91.6715 26.8916 91.4966 26.8232 91.2622 26.7744C91.0278 26.724 90.8455 26.667 90.7153 26.6035C90.5868 26.5384 90.4907 26.4595 90.4272 26.3667C90.3654 26.2739 90.3345 26.1616 90.3345 26.0298C90.3345 25.8215 90.4215 25.6497 90.5957 25.5146C90.7699 25.3779 90.9928 25.3096 91.2646 25.3096C91.5592 25.3096 91.7952 25.3828 91.9727 25.5293C92.1517 25.6742 92.2412 25.8638 92.2412 26.0981H91.9482C91.9482 25.9435 91.8831 25.8149 91.7529 25.7124C91.6243 25.6099 91.4616 25.5586 91.2646 25.5586C91.0726 25.5586 90.918 25.6017 90.8008 25.688C90.6852 25.7726 90.6274 25.8833 90.6274 26.02C90.6274 26.1519 90.6755 26.2544 90.7715 26.3276C90.8691 26.3993 91.0457 26.4652 91.3013 26.5254C91.5584 26.5856 91.7505 26.6499 91.8774 26.7183C92.006 26.7866 92.1012 26.8688 92.1631 26.9648C92.2249 27.0609 92.2559 27.1772 92.2559 27.314C92.2559 27.5369 92.1655 27.7152 91.9849 27.8486C91.8058 27.9821 91.5715 28.0488 91.2817 28.0488C90.9741 28.0488 90.7243 27.9748 90.5322 27.8267C90.3418 27.6769 90.2466 27.4881 90.2466 27.2603H90.5396C90.5509 27.4312 90.6226 27.5646 90.7544 27.6606C90.8879 27.755 91.0636 27.8022 91.2817 27.8022C91.4852 27.8022 91.6496 27.7575 91.7749 27.668C91.9002 27.5785 91.9629 27.4653 91.9629 27.3286Z" fill="black"/>
<path d="M81.5 31V38" stroke="black"/>
<line y1="12.5" x2="51" y2="12.5" stroke="black"/>
<line x1="54" y1="12.5" x2="113" y2="12.5" stroke="black"/>
<line y1="38.5" x2="34" y2="38.5" stroke="black"/>
<line x1="34" y1="38.5" x2="113" y2="38.5" stroke="black"/>
<path d="M54.1528 4.44824C54.0959 4.97233 53.9079 5.37337 53.5889 5.65137C53.2721 5.92936 52.8494 6.06836 52.3208 6.06836C51.9517 6.06836 51.6247 5.97607 51.3398 5.7915C51.0573 5.60693 50.8385 5.34603 50.6836 5.00879C50.5286 4.66927 50.45 4.2819 50.4478 3.84668V3.20068C50.4478 2.75863 50.5252 2.3667 50.6802 2.0249C50.8351 1.68311 51.0573 1.41992 51.3467 1.23535C51.6383 1.0485 51.9733 0.955078 52.3516 0.955078C52.8848 0.955078 53.3052 1.09977 53.6128 1.38916C53.9227 1.67627 54.1027 2.07389 54.1528 2.58203H53.729C53.6242 1.73665 53.165 1.31396 52.3516 1.31396C51.9004 1.31396 51.5404 1.48258 51.2715 1.81982C51.0049 2.15706 50.8716 2.62305 50.8716 3.21777V3.82617C50.8716 4.40039 51.0015 4.8584 51.2612 5.2002C51.5233 5.54199 51.8765 5.71289 52.3208 5.71289C52.7606 5.71289 53.0921 5.60807 53.3154 5.39844C53.5387 5.18652 53.6766 4.86979 53.729 4.44824H54.1528Z" fill="black"/>
<line x1="51.5" y1="16" x2="51.5" y2="9" stroke="black"/>
<line x1="53.5" y1="16" x2="53.5" y2="9" stroke="black"/>
<path d="M57.0049 5.70605C57.0049 6.11784 56.9137 6.44499 56.7314 6.6875C56.5492 6.92839 56.305 7.04883 55.999 7.04883C55.6377 7.04883 55.361 6.92188 55.1689 6.66797V8.01562H54.8784V4.3584H55.1494L55.1641 4.73193C55.3545 4.45036 55.6304 4.30957 55.9917 4.30957C56.3075 4.30957 56.5549 4.4292 56.7339 4.66846C56.9146 4.90771 57.0049 5.23975 57.0049 5.66455V5.70605ZM56.7119 5.65479C56.7119 5.31787 56.6427 5.05176 56.5044 4.85645C56.366 4.66113 56.1732 4.56348 55.9258 4.56348C55.7467 4.56348 55.5929 4.60661 55.4644 4.69287C55.3358 4.77913 55.2373 4.90446 55.1689 5.06885V6.33594C55.2389 6.4873 55.339 6.60286 55.4692 6.68262C55.5994 6.76237 55.7533 6.80225 55.9307 6.80225C56.1764 6.80225 56.3677 6.70459 56.5044 6.50928C56.6427 6.31234 56.7119 6.02751 56.7119 5.65479Z" fill="black"/>
<path d="M87.0527 26.6445H89.5103V27H86.6289V22.0234H87.0527V26.6445Z" fill="black"/>
<path d="M91.9629 27.3286C91.9629 27.1838 91.9043 27.0674 91.7871 26.9795C91.6715 26.8916 91.4966 26.8232 91.2622 26.7744C91.0278 26.724 90.8455 26.667 90.7153 26.6035C90.5868 26.5384 90.4907 26.4595 90.4272 26.3667C90.3654 26.2739 90.3345 26.1616 90.3345 26.0298C90.3345 25.8215 90.4215 25.6497 90.5957 25.5146C90.7699 25.3779 90.9928 25.3096 91.2646 25.3096C91.5592 25.3096 91.7952 25.3828 91.9727 25.5293C92.1517 25.6742 92.2412 25.8638 92.2412 26.0981H91.9482C91.9482 25.9435 91.8831 25.8149 91.7529 25.7124C91.6243 25.6099 91.4616 25.5586 91.2646 25.5586C91.0726 25.5586 90.918 25.6017 90.8008 25.688C90.6852 25.7726 90.6274 25.8833 90.6274 26.02C90.6274 26.1519 90.6755 26.2544 90.7715 26.3276C90.8691 26.3993 91.0457 26.4652 91.3013 26.5254C91.5584 26.5856 91.7505 26.6499 91.8774 26.7183C92.006 26.7866 92.1012 26.8688 92.1631 26.9648C92.2249 27.0609 92.2559 27.1772 92.2559 27.314C92.2559 27.5369 92.1655 27.7152 91.9849 27.8486C91.8058 27.9821 91.5715 28.0488 91.2817 28.0488C90.9741 28.0488 90.7243 27.9748 90.5322 27.8267C90.3418 27.6769 90.2466 27.4881 90.2466 27.2603H90.5396C90.5509 27.4312 90.6226 27.5646 90.7544 27.6606C90.8879 27.755 91.0636 27.8022 91.2817 27.8022C91.4852 27.8022 91.6496 27.7575 91.7749 27.668C91.9002 27.5785 91.9629 27.4653 91.9629 27.3286Z" fill="black"/>
</svg>
