<svg width="124" height="37" viewBox="0 0 124 37" fill="none" xmlns="http://www.w3.org/2000/svg">
<mask id="path-1-inside-1_206:428" fill="white">
<path d="M45 11C45 10.7374 45.0647 10.4773 45.1903 10.2346C45.3159 9.99198 45.5001 9.7715 45.7322 9.58579C45.9644 9.40007 46.24 9.25275 46.5433 9.15224C46.8466 9.05173 47.1717 9 47.5 9C47.8283 9 48.1534 9.05173 48.4567 9.15224C48.76 9.25275 49.0356 9.40007 49.2678 9.58579C49.4999 9.7715 49.6841 9.99198 49.8097 10.2346C49.9353 10.4773 50 10.7374 50 11H49.8331C49.8331 10.7549 49.7727 10.5122 49.6555 10.2857C49.5382 10.0593 49.3664 9.85354 49.1497 9.68023C48.9331 9.50691 48.6759 9.36943 48.3928 9.27563C48.1098 9.18183 47.8064 9.13356 47.5 9.13356C47.1936 9.13356 46.8902 9.18183 46.6072 9.27563C46.3241 9.36943 46.0669 9.50691 45.8503 9.68023C45.6336 9.85354 45.4618 10.0593 45.3445 10.2857C45.2273 10.5122 45.1669 10.7549 45.1669 11H45Z"/>
</mask>
<path d="M45 11L44.7 11L44.7 11.3H45V11ZM50 11V11.3H50.3L50.3 11L50 11ZM49.8331 11L49.5331 11L49.5331 11.3H49.8331V11ZM45.1669 11V11.3H45.4669L45.4669 11L45.1669 11ZM45.3 11C45.3 10.7873 45.3522 10.5744 45.4567 10.3726L44.9239 10.0967C44.7771 10.3802 44.7 10.6874 44.7 11L45.3 11ZM45.4567 10.3726C45.5614 10.1704 45.7174 9.98187 45.9196 9.82005L45.5448 9.35153C45.2828 9.56114 45.0705 9.81358 44.9239 10.0967L45.4567 10.3726ZM45.9196 9.82005C46.122 9.65816 46.3656 9.52718 46.6377 9.43701L46.4489 8.86747C46.1144 8.97833 45.8068 9.14198 45.5448 9.35153L45.9196 9.82005ZM46.6377 9.43701C46.9097 9.34687 47.2029 9.3 47.5 9.3L47.5 8.7C47.1405 8.7 46.7835 8.7566 46.4489 8.86747L46.6377 9.43701ZM47.5 9.3C47.7971 9.3 48.0903 9.34687 48.3623 9.43701L48.5511 8.86747C48.2165 8.7566 47.8595 8.7 47.5 8.7L47.5 9.3ZM48.3623 9.43701C48.6344 9.52718 48.878 9.65816 49.0804 9.82005L49.4552 9.35153C49.1932 9.14198 48.8856 8.97833 48.5511 8.86747L48.3623 9.43701ZM49.0804 9.82005C49.2826 9.98187 49.4386 10.1704 49.5433 10.3726L50.0761 10.0967C49.9295 9.81358 49.7172 9.56114 49.4552 9.35153L49.0804 9.82005ZM49.5433 10.3726C49.6478 10.5744 49.7 10.7873 49.7 11L50.3 11C50.3 10.6874 50.2229 10.3802 50.0761 10.0967L49.5433 10.3726ZM50 10.7H49.8331V11.3H50V10.7ZM50.1331 11C50.1331 10.7049 50.0603 10.4151 49.9219 10.1478L49.3891 10.4237C49.4851 10.6093 49.5331 10.8049 49.5331 11L50.1331 11ZM49.9219 10.1478C49.7837 9.8809 49.5836 9.64317 49.3371 9.44596L48.9623 9.91449C49.1491 10.0639 49.2928 10.2377 49.3891 10.4237L49.9219 10.1478ZM49.3371 9.44596C49.0907 9.24882 48.8015 9.095 48.4872 8.99086L48.2985 9.5604C48.5503 9.64385 48.7755 9.765 48.9623 9.91449L49.3371 9.44596ZM48.4872 8.99086C48.1729 8.8867 47.8376 8.83356 47.5 8.83356L47.5 9.43356C47.7752 9.43356 48.0467 9.47697 48.2985 9.5604L48.4872 8.99086ZM47.5 8.83356C47.1624 8.83356 46.8271 8.8867 46.5128 8.99086L46.7015 9.5604C46.9533 9.47697 47.2248 9.43356 47.5 9.43356L47.5 8.83356ZM46.5128 8.99086C46.1985 9.095 45.9093 9.24882 45.6629 9.44596L46.0377 9.91449C46.2245 9.765 46.4497 9.64385 46.7015 9.5604L46.5128 8.99086ZM45.6629 9.44596C45.4164 9.64317 45.2163 9.8809 45.0781 10.1478L45.6109 10.4237C45.7072 10.2377 45.8509 10.0639 46.0377 9.91449L45.6629 9.44596ZM45.0781 10.1478C44.9397 10.4151 44.8669 10.7049 44.8669 11L45.4669 11C45.4669 10.8049 45.5149 10.6093 45.6109 10.4237L45.0781 10.1478ZM45.1669 10.7H45V11.3H45.1669V10.7Z" fill="black" mask="url(#path-1-inside-1_206:428)"/>
<mask id="path-3-inside-2_206:428" fill="white">
<path d="M50 11C50 10.7374 50.0647 10.4773 50.1903 10.2346C50.3159 9.99198 50.5001 9.7715 50.7322 9.58579C50.9644 9.40007 51.24 9.25275 51.5433 9.15224C51.8466 9.05173 52.1717 9 52.5 9C52.8283 9 53.1534 9.05173 53.4567 9.15224C53.76 9.25275 54.0356 9.40007 54.2678 9.58579C54.4999 9.7715 54.6841 9.99198 54.8097 10.2346C54.9353 10.4773 55 10.7374 55 11H54.8331C54.8331 10.7549 54.7727 10.5122 54.6555 10.2857C54.5382 10.0593 54.3664 9.85354 54.1497 9.68023C53.9331 9.50691 53.6759 9.36943 53.3928 9.27563C53.1098 9.18183 52.8064 9.13356 52.5 9.13356C52.1936 9.13356 51.8902 9.18183 51.6072 9.27563C51.3241 9.36943 51.0669 9.50691 50.8503 9.68023C50.6336 9.85354 50.4618 10.0593 50.3445 10.2857C50.2273 10.5122 50.1669 10.7549 50.1669 11H50Z"/>
</mask>
<path d="M50 11L49.7 11L49.7 11.3H50V11ZM55 11V11.3H55.3L55.3 11L55 11ZM54.8331 11L54.5331 11L54.5331 11.3H54.8331V11ZM50.1669 11V11.3H50.4669L50.4669 11L50.1669 11ZM50.3 11C50.3 10.7873 50.3522 10.5744 50.4567 10.3726L49.9239 10.0967C49.7771 10.3802 49.7 10.6874 49.7 11L50.3 11ZM50.4567 10.3726C50.5614 10.1704 50.7174 9.98187 50.9196 9.82005L50.5448 9.35153C50.2828 9.56114 50.0705 9.81358 49.9239 10.0967L50.4567 10.3726ZM50.9196 9.82005C51.122 9.65816 51.3656 9.52718 51.6377 9.43701L51.4489 8.86747C51.1144 8.97833 50.8068 9.14198 50.5448 9.35153L50.9196 9.82005ZM51.6377 9.43701C51.9097 9.34687 52.2029 9.3 52.5 9.3L52.5 8.7C52.1405 8.7 51.7835 8.7566 51.4489 8.86747L51.6377 9.43701ZM52.5 9.3C52.7971 9.3 53.0903 9.34687 53.3623 9.43701L53.5511 8.86747C53.2165 8.7566 52.8595 8.7 52.5 8.7L52.5 9.3ZM53.3623 9.43701C53.6344 9.52718 53.878 9.65816 54.0804 9.82005L54.4552 9.35153C54.1932 9.14198 53.8856 8.97833 53.5511 8.86747L53.3623 9.43701ZM54.0804 9.82005C54.2826 9.98187 54.4386 10.1704 54.5433 10.3726L55.0761 10.0967C54.9295 9.81358 54.7172 9.56114 54.4552 9.35153L54.0804 9.82005ZM54.5433 10.3726C54.6478 10.5744 54.7 10.7873 54.7 11L55.3 11C55.3 10.6874 55.2229 10.3802 55.0761 10.0967L54.5433 10.3726ZM55 10.7H54.8331V11.3H55V10.7ZM55.1331 11C55.1331 10.7049 55.0603 10.4151 54.9219 10.1478L54.3891 10.4237C54.4851 10.6093 54.5331 10.8049 54.5331 11L55.1331 11ZM54.9219 10.1478C54.7837 9.8809 54.5836 9.64317 54.3371 9.44596L53.9623 9.91449C54.1491 10.0639 54.2928 10.2377 54.3891 10.4237L54.9219 10.1478ZM54.3371 9.44596C54.0907 9.24882 53.8015 9.095 53.4872 8.99086L53.2985 9.5604C53.5503 9.64385 53.7755 9.765 53.9623 9.91449L54.3371 9.44596ZM53.4872 8.99086C53.1729 8.8867 52.8376 8.83356 52.5 8.83356L52.5 9.43356C52.7752 9.43356 53.0467 9.47697 53.2985 9.5604L53.4872 8.99086ZM52.5 8.83356C52.1624 8.83356 51.8271 8.8867 51.5128 8.99086L51.7015 9.5604C51.9533 9.47697 52.2248 9.43356 52.5 9.43356L52.5 8.83356ZM51.5128 8.99086C51.1985 9.095 50.9093 9.24882 50.6629 9.44596L51.0377 9.91449C51.2245 9.765 51.4497 9.64385 51.7015 9.5604L51.5128 8.99086ZM50.6629 9.44596C50.4164 9.64317 50.2163 9.8809 50.0781 10.1478L50.6109 10.4237C50.7072 10.2377 50.8509 10.0639 51.0377 9.91449L50.6629 9.44596ZM50.0781 10.1478C49.9397 10.4151 49.8669 10.7049 49.8669 11L50.4669 11C50.4669 10.8049 50.5149 10.6093 50.6109 10.4237L50.0781 10.1478ZM50.1669 10.7H50V11.3H50.1669V10.7Z" fill="black" mask="url(#path-3-inside-2_206:428)"/>
<mask id="path-5-inside-3_206:428" fill="white">
<path d="M55 11C55 10.7374 55.0647 10.4773 55.1903 10.2346C55.3159 9.99198 55.5001 9.7715 55.7322 9.58579C55.9644 9.40007 56.24 9.25275 56.5433 9.15224C56.8466 9.05173 57.1717 9 57.5 9C57.8283 9 58.1534 9.05173 58.4567 9.15224C58.76 9.25275 59.0356 9.40007 59.2678 9.58579C59.4999 9.7715 59.6841 9.99198 59.8097 10.2346C59.9353 10.4773 60 10.7374 60 11H59.8331C59.8331 10.7549 59.7727 10.5122 59.6555 10.2857C59.5382 10.0593 59.3664 9.85354 59.1497 9.68023C58.9331 9.50691 58.6759 9.36943 58.3928 9.27563C58.1098 9.18183 57.8064 9.13356 57.5 9.13356C57.1936 9.13356 56.8902 9.18183 56.6072 9.27563C56.3241 9.36943 56.0669 9.50691 55.8503 9.68023C55.6336 9.85354 55.4618 10.0593 55.3445 10.2857C55.2273 10.5122 55.1669 10.7549 55.1669 11H55Z"/>
</mask>
<path d="M55 11L54.7 11L54.7 11.3H55V11ZM60 11V11.3H60.3L60.3 11L60 11ZM59.8331 11L59.5331 11L59.5331 11.3H59.8331V11ZM55.1669 11V11.3H55.4669L55.4669 11L55.1669 11ZM55.3 11C55.3 10.7873 55.3522 10.5744 55.4567 10.3726L54.9239 10.0967C54.7771 10.3802 54.7 10.6874 54.7 11L55.3 11ZM55.4567 10.3726C55.5614 10.1704 55.7174 9.98187 55.9196 9.82005L55.5448 9.35153C55.2828 9.56114 55.0705 9.81358 54.9239 10.0967L55.4567 10.3726ZM55.9196 9.82005C56.122 9.65816 56.3656 9.52718 56.6377 9.43701L56.4489 8.86747C56.1144 8.97833 55.8068 9.14198 55.5448 9.35153L55.9196 9.82005ZM56.6377 9.43701C56.9097 9.34687 57.2029 9.3 57.5 9.3L57.5 8.7C57.1405 8.7 56.7835 8.7566 56.4489 8.86747L56.6377 9.43701ZM57.5 9.3C57.7971 9.3 58.0903 9.34687 58.3623 9.43701L58.5511 8.86747C58.2165 8.7566 57.8595 8.7 57.5 8.7L57.5 9.3ZM58.3623 9.43701C58.6344 9.52718 58.878 9.65816 59.0804 9.82005L59.4552 9.35153C59.1932 9.14198 58.8856 8.97833 58.5511 8.86747L58.3623 9.43701ZM59.0804 9.82005C59.2826 9.98187 59.4386 10.1704 59.5433 10.3726L60.0761 10.0967C59.9295 9.81358 59.7172 9.56114 59.4552 9.35153L59.0804 9.82005ZM59.5433 10.3726C59.6478 10.5744 59.7 10.7873 59.7 11L60.3 11C60.3 10.6874 60.2229 10.3802 60.0761 10.0967L59.5433 10.3726ZM60 10.7H59.8331V11.3H60V10.7ZM60.1331 11C60.1331 10.7049 60.0603 10.4151 59.9219 10.1478L59.3891 10.4237C59.4851 10.6093 59.5331 10.8049 59.5331 11L60.1331 11ZM59.9219 10.1478C59.7837 9.8809 59.5836 9.64317 59.3371 9.44596L58.9623 9.91449C59.1491 10.0639 59.2928 10.2377 59.3891 10.4237L59.9219 10.1478ZM59.3371 9.44596C59.0907 9.24882 58.8015 9.095 58.4872 8.99086L58.2985 9.5604C58.5503 9.64385 58.7755 9.765 58.9623 9.91449L59.3371 9.44596ZM58.4872 8.99086C58.1729 8.8867 57.8376 8.83356 57.5 8.83356L57.5 9.43356C57.7752 9.43356 58.0467 9.47697 58.2985 9.5604L58.4872 8.99086ZM57.5 8.83356C57.1624 8.83356 56.8271 8.8867 56.5128 8.99086L56.7015 9.5604C56.9533 9.47697 57.2248 9.43356 57.5 9.43356L57.5 8.83356ZM56.5128 8.99086C56.1985 9.095 55.9093 9.24882 55.6629 9.44596L56.0377 9.91449C56.2245 9.765 56.4497 9.64385 56.7015 9.5604L56.5128 8.99086ZM55.6629 9.44596C55.4164 9.64317 55.2163 9.8809 55.0781 10.1478L55.6109 10.4237C55.7072 10.2377 55.8509 10.0639 56.0377 9.91449L55.6629 9.44596ZM55.0781 10.1478C54.9397 10.4151 54.8669 10.7049 54.8669 11L55.4669 11C55.4669 10.8049 55.5149 10.6093 55.6109 10.4237L55.0781 10.1478ZM55.1669 10.7H55V11.3H55.1669V10.7Z" fill="black" mask="url(#path-5-inside-3_206:428)"/>
<rect x="110.5" y="17.5" width="4" height="11" stroke="black"/>
<path d="M112.5 11V18" stroke="black"/>
<path d="M81.5 11V18" stroke="black"/>
<path d="M81.5 29V36" stroke="black"/>
<path d="M81.5 24V31" stroke="black"/>
<path d="M81.5 15V22" stroke="black"/>
<line x1="112.5" y1="29" x2="112.5" y2="36" stroke="black"/>
<line y1="10.5" x2="45" y2="10.5" stroke="black"/>
<line x1="60" y1="10.5" x2="113" y2="10.5" stroke="black"/>
<line y1="36.5" x2="34" y2="36.5" stroke="black"/>
<line x1="34" y1="36.5" x2="113" y2="36.5" stroke="black"/>
<path d="M116.817 25.6445H119.89V26H116.308V25.6821L119.261 21.3823H116.396V21.0234H119.78V21.3242L116.817 25.6445Z" fill="black"/>
<path d="M121.752 27.7461H123.507V28H121.449V24.4453H121.752V27.7461Z" fill="black"/>
<path d="M73.6528 23.4482C73.5959 23.9723 73.4079 24.3734 73.0889 24.6514C72.7721 24.9294 72.3494 25.0684 71.8208 25.0684C71.4517 25.0684 71.1247 24.9761 70.8398 24.7915C70.5573 24.6069 70.3385 24.346 70.1836 24.0088C70.0286 23.6693 69.95 23.2819 69.9478 22.8467V22.2007C69.9478 21.7586 70.0252 21.3667 70.1802 21.0249C70.3351 20.6831 70.5573 20.4199 70.8467 20.2354C71.1383 20.0485 71.4733 19.9551 71.8516 19.9551C72.3848 19.9551 72.8052 20.0998 73.1128 20.3892C73.4227 20.6763 73.6027 21.0739 73.6528 21.582H73.229C73.1242 20.7367 72.665 20.314 71.8516 20.314C71.4004 20.314 71.0404 20.4826 70.7715 20.8198C70.5049 21.1571 70.3716 21.623 70.3716 22.2178V22.8262C70.3716 23.4004 70.5015 23.8584 70.7612 24.2002C71.0233 24.542 71.3765 24.7129 71.8208 24.7129C72.2606 24.7129 72.5921 24.6081 72.8154 24.3984C73.0387 24.1865 73.1766 23.8698 73.229 23.4482H73.6528Z" fill="black"/>
<line x1="78" y1="23.5" x2="85" y2="23.5" stroke="black"/>
<line x1="78" y1="21.5" x2="85" y2="21.5" stroke="black"/>
<path d="M76.5049 24.7061C76.5049 25.1178 76.4137 25.445 76.2314 25.6875C76.0492 25.9284 75.805 26.0488 75.499 26.0488C75.1377 26.0488 74.861 25.9219 74.6689 25.668V27.0156H74.3784V23.3584H74.6494L74.6641 23.7319C74.8545 23.4504 75.1304 23.3096 75.4917 23.3096C75.8075 23.3096 76.0549 23.4292 76.2339 23.6685C76.4146 23.9077 76.5049 24.2397 76.5049 24.6646V24.7061ZM76.2119 24.6548C76.2119 24.3179 76.1427 24.0518 76.0044 23.8564C75.866 23.6611 75.6732 23.5635 75.4258 23.5635C75.2467 23.5635 75.0929 23.6066 74.9644 23.6929C74.8358 23.7791 74.7373 23.9045 74.6689 24.0688V25.3359C74.7389 25.4873 74.839 25.6029 74.9692 25.6826C75.0994 25.7624 75.2533 25.8022 75.4307 25.8022C75.6764 25.8022 75.8677 25.7046 76.0044 25.5093C76.1427 25.3123 76.2119 25.0275 76.2119 24.6548Z" fill="black"/>
<path d="M50.0527 5.64453H52.5103V6H49.6289V1.02344H50.0527V5.64453Z" fill="black"/>
<path d="M54.9629 6.32861C54.9629 6.18376 54.9043 6.06738 54.7871 5.97949C54.6715 5.8916 54.4966 5.82324 54.2622 5.77441C54.0278 5.72396 53.8455 5.66699 53.7153 5.60352C53.5868 5.53841 53.4907 5.45947 53.4272 5.3667C53.3654 5.27393 53.3345 5.16162 53.3345 5.02979C53.3345 4.82145 53.4215 4.64974 53.5957 4.51465C53.7699 4.37793 53.9928 4.30957 54.2646 4.30957C54.5592 4.30957 54.7952 4.38281 54.9727 4.5293C55.1517 4.67415 55.2412 4.86377 55.2412 5.09814H54.9482C54.9482 4.94352 54.8831 4.81494 54.7529 4.7124C54.6243 4.60986 54.4616 4.55859 54.2646 4.55859C54.0726 4.55859 53.918 4.60173 53.8008 4.68799C53.6852 4.77262 53.6274 4.8833 53.6274 5.02002C53.6274 5.15186 53.6755 5.25439 53.7715 5.32764C53.8691 5.39925 54.0457 5.46517 54.3013 5.52539C54.5584 5.58561 54.7505 5.6499 54.8774 5.71826C55.006 5.78662 55.1012 5.86882 55.1631 5.96484C55.2249 6.06087 55.2559 6.17725 55.2559 6.31396C55.2559 6.53695 55.1655 6.71517 54.9849 6.84863C54.8058 6.9821 54.5715 7.04883 54.2817 7.04883C53.9741 7.04883 53.7243 6.97477 53.5322 6.82666C53.3418 6.67692 53.2466 6.48812 53.2466 6.26025H53.5396C53.5509 6.43115 53.6226 6.56462 53.7544 6.66064C53.8879 6.75505 54.0636 6.80225 54.2817 6.80225C54.4852 6.80225 54.6496 6.75749 54.7749 6.66797C54.9002 6.57845 54.9629 6.46533 54.9629 6.32861Z" fill="black"/>
<path d="M81.5 11V18" stroke="black"/>
<path d="M81.5 29V36" stroke="black"/>
<path d="M81.5 24V31" stroke="black"/>
<path d="M81.5 15V22" stroke="black"/>
<line y1="10.5" x2="45" y2="10.5" stroke="black"/>
<line x1="60" y1="10.5" x2="113" y2="10.5" stroke="black"/>
<line y1="36.5" x2="34" y2="36.5" stroke="black"/>
<line x1="34" y1="36.5" x2="113" y2="36.5" stroke="black"/>
<path d="M73.6528 23.4482C73.5959 23.9723 73.4079 24.3734 73.0889 24.6514C72.7721 24.9294 72.3494 25.0684 71.8208 25.0684C71.4517 25.0684 71.1247 24.9761 70.8398 24.7915C70.5573 24.6069 70.3385 24.346 70.1836 24.0088C70.0286 23.6693 69.95 23.2819 69.9478 22.8467V22.2007C69.9478 21.7586 70.0252 21.3667 70.1802 21.0249C70.3351 20.6831 70.5573 20.4199 70.8467 20.2354C71.1383 20.0485 71.4733 19.9551 71.8516 19.9551C72.3848 19.9551 72.8052 20.0998 73.1128 20.3892C73.4227 20.6763 73.6027 21.0739 73.6528 21.582H73.229C73.1242 20.7367 72.665 20.314 71.8516 20.314C71.4004 20.314 71.0404 20.4826 70.7715 20.8198C70.5049 21.1571 70.3716 21.623 70.3716 22.2178V22.8262C70.3716 23.4004 70.5015 23.8584 70.7612 24.2002C71.0233 24.542 71.3765 24.7129 71.8208 24.7129C72.2606 24.7129 72.5921 24.6081 72.8154 24.3984C73.0387 24.1865 73.1766 23.8698 73.229 23.4482H73.6528Z" fill="black"/>
<line x1="78" y1="23.5" x2="85" y2="23.5" stroke="black"/>
<line x1="78" y1="21.5" x2="85" y2="21.5" stroke="black"/>
<path d="M76.5049 24.7061C76.5049 25.1178 76.4137 25.445 76.2314 25.6875C76.0492 25.9284 75.805 26.0488 75.499 26.0488C75.1377 26.0488 74.861 25.9219 74.6689 25.668V27.0156H74.3784V23.3584H74.6494L74.6641 23.7319C74.8545 23.4504 75.1304 23.3096 75.4917 23.3096C75.8075 23.3096 76.0549 23.4292 76.2339 23.6685C76.4146 23.9077 76.5049 24.2397 76.5049 24.6646V24.7061ZM76.2119 24.6548C76.2119 24.3179 76.1427 24.0518 76.0044 23.8564C75.866 23.6611 75.6732 23.5635 75.4258 23.5635C75.2467 23.5635 75.0929 23.6066 74.9644 23.6929C74.8358 23.7791 74.7373 23.9045 74.6689 24.0688V25.3359C74.7389 25.4873 74.839 25.6029 74.9692 25.6826C75.0994 25.7624 75.2533 25.8022 75.4307 25.8022C75.6764 25.8022 75.8677 25.7046 76.0044 25.5093C76.1427 25.3123 76.2119 25.0275 76.2119 24.6548Z" fill="black"/>
<path d="M50.0527 5.64453H52.5103V6H49.6289V1.02344H50.0527V5.64453Z" fill="black"/>
<path d="M54.9629 6.32861C54.9629 6.18376 54.9043 6.06738 54.7871 5.97949C54.6715 5.8916 54.4966 5.82324 54.2622 5.77441C54.0278 5.72396 53.8455 5.66699 53.7153 5.60352C53.5868 5.53841 53.4907 5.45947 53.4272 5.3667C53.3654 5.27393 53.3345 5.16162 53.3345 5.02979C53.3345 4.82145 53.4215 4.64974 53.5957 4.51465C53.7699 4.37793 53.9928 4.30957 54.2646 4.30957C54.5592 4.30957 54.7952 4.38281 54.9727 4.5293C55.1517 4.67415 55.2412 4.86377 55.2412 5.09814H54.9482C54.9482 4.94352 54.8831 4.81494 54.7529 4.7124C54.6243 4.60986 54.4616 4.55859 54.2646 4.55859C54.0726 4.55859 53.918 4.60173 53.8008 4.68799C53.6852 4.77262 53.6274 4.8833 53.6274 5.02002C53.6274 5.15186 53.6755 5.25439 53.7715 5.32764C53.8691 5.39925 54.0457 5.46517 54.3013 5.52539C54.5584 5.58561 54.7505 5.6499 54.8774 5.71826C55.006 5.78662 55.1012 5.86882 55.1631 5.96484C55.2249 6.06087 55.2559 6.17725 55.2559 6.31396C55.2559 6.53695 55.1655 6.71517 54.9849 6.84863C54.8058 6.9821 54.5715 7.04883 54.2817 7.04883C53.9741 7.04883 53.7243 6.97477 53.5322 6.82666C53.3418 6.67692 53.2466 6.48812 53.2466 6.26025H53.5396C53.5509 6.43115 53.6226 6.56462 53.7544 6.66064C53.8879 6.75505 54.0636 6.80225 54.2817 6.80225C54.4852 6.80225 54.6496 6.75749 54.7749 6.66797C54.9002 6.57845 54.9629 6.46533 54.9629 6.32861Z" fill="black"/>
</svg>
