<svg width="124" height="39" viewBox="0 0 124 39" fill="none" xmlns="http://www.w3.org/2000/svg">
<line y1="38.5" x2="34" y2="38.5" stroke="black"/>
<line x1="34" y1="38.5" x2="113" y2="38.5" stroke="black"/>
<line y1="38.5" x2="34" y2="38.5" stroke="black"/>
<line x1="34" y1="38.5" x2="113" y2="38.5" stroke="black"/>
<path d="M52.5 27C52.7626 27 53.0227 27.0517 53.2654 27.1522C53.508 27.2528 53.7285 27.4001 53.9142 27.5858C54.0999 27.7715 54.2472 27.992 54.3478 28.2346C54.4483 28.4773 54.5 28.7374 54.5 29C54.5 29.2626 54.4483 29.5227 54.3478 29.7654C54.2472 30.008 54.0999 30.2285 53.9142 30.4142C53.7285 30.5999 53.508 30.7472 53.2654 30.8478C53.0227 30.9483 52.7626 31 52.5 31V30.8664C52.7451 30.8664 52.9878 30.8182 53.2143 30.7244C53.4407 30.6306 53.6465 30.4931 53.8198 30.3198C53.9931 30.1465 54.1306 29.9407 54.2244 29.7143C54.3182 29.4878 54.3664 29.2451 54.3664 29C54.3664 28.7549 54.3182 28.5122 54.2244 28.2857C54.1306 28.0593 53.9931 27.8535 53.8198 27.6802C53.6465 27.5069 53.4407 27.3694 53.2143 27.2756C52.9878 27.1818 52.7451 27.1336 52.5 27.1336V27Z" stroke="black" stroke-width="0.8"/>
<path d="M52.5 23C52.7626 23 53.0227 23.0517 53.2654 23.1522C53.508 23.2528 53.7285 23.4001 53.9142 23.5858C54.0999 23.7715 54.2472 23.992 54.3478 24.2346C54.4483 24.4773 54.5 24.7374 54.5 25C54.5 25.2626 54.4483 25.5227 54.3478 25.7654C54.2472 26.008 54.0999 26.2285 53.9142 26.4142C53.7285 26.5999 53.508 26.7472 53.2654 26.8478C53.0227 26.9483 52.7626 27 52.5 27V26.8664C52.7451 26.8664 52.9878 26.8182 53.2143 26.7244C53.4407 26.6306 53.6465 26.4931 53.8198 26.3198C53.9931 26.1465 54.1306 25.9407 54.2244 25.7143C54.3182 25.4878 54.3664 25.2451 54.3664 25C54.3664 24.7549 54.3182 24.5122 54.2244 24.2857C54.1306 24.0593 53.9931 23.8535 53.8198 23.6802C53.6465 23.5069 53.4407 23.3694 53.2143 23.2756C52.9878 23.1818 52.7451 23.1336 52.5 23.1336V23Z" stroke="black" stroke-width="0.8"/>
<path d="M52.5 19C52.7626 19 53.0227 19.0517 53.2654 19.1522C53.508 19.2528 53.7285 19.4001 53.9142 19.5858C54.0999 19.7715 54.2472 19.992 54.3478 20.2346C54.4483 20.4773 54.5 20.7374 54.5 21C54.5 21.2626 54.4483 21.5227 54.3478 21.7654C54.2472 22.008 54.0999 22.2285 53.9142 22.4142C53.7285 22.5999 53.508 22.7472 53.2654 22.8478C53.0227 22.9483 52.7626 23 52.5 23V22.8664C52.7451 22.8664 52.9878 22.8182 53.2143 22.7244C53.4407 22.6306 53.6465 22.4931 53.8198 22.3198C53.9931 22.1465 54.1306 21.9407 54.2244 21.7143C54.3182 21.4878 54.3664 21.2451 54.3664 21C54.3664 20.7549 54.3182 20.5122 54.2244 20.2857C54.1306 20.0593 53.9931 19.8535 53.8198 19.6802C53.6465 19.5069 53.4407 19.3694 53.2143 19.2756C52.9878 19.1818 52.7451 19.1336 52.5 19.1336V19Z" stroke="black" stroke-width="0.8"/>
<rect x="110.5" y="19.5" width="4" height="11" stroke="black"/>
<path d="M112.5 13V20" stroke="black"/>
<path d="M52.5 13V19" stroke="black"/>
<line x1="112.5" y1="31" x2="112.5" y2="38" stroke="black"/>
<line y1="12.5" x2="45" y2="12.5" stroke="black"/>
<path d="M116.817 27.6445H119.89V28H116.308V27.6821L119.261 23.3823H116.396V23.0234H119.78V23.3242L116.817 27.6445Z" fill="black"/>
<path d="M121.752 29.7461H123.507V30H121.449V26.4453H121.752V29.7461Z" fill="black"/>
<path d="M81.1528 4.44824C81.0959 4.97233 80.9079 5.37337 80.5889 5.65137C80.2721 5.92936 79.8494 6.06836 79.3208 6.06836C78.9517 6.06836 78.6247 5.97607 78.3398 5.7915C78.0573 5.60693 77.8385 5.34603 77.6836 5.00879C77.5286 4.66927 77.45 4.2819 77.4478 3.84668V3.20068C77.4478 2.75863 77.5252 2.3667 77.6802 2.0249C77.8351 1.68311 78.0573 1.41992 78.3467 1.23535C78.6383 1.0485 78.9733 0.955078 79.3516 0.955078C79.8848 0.955078 80.3052 1.09977 80.6128 1.38916C80.9227 1.67627 81.1027 2.07389 81.1528 2.58203H80.729C80.6242 1.73665 80.165 1.31396 79.3516 1.31396C78.9004 1.31396 78.5404 1.48258 78.2715 1.81982C78.0049 2.15706 77.8716 2.62305 77.8716 3.21777V3.82617C77.8716 4.40039 78.0015 4.8584 78.2612 5.2002C78.5233 5.54199 78.8765 5.71289 79.3208 5.71289C79.7606 5.71289 80.0921 5.60807 80.3154 5.39844C80.5387 5.18652 80.6766 4.86979 80.729 4.44824H81.1528Z" fill="black"/>
<path d="M83.4629 6.32861C83.4629 6.18376 83.4043 6.06738 83.2871 5.97949C83.1715 5.8916 82.9966 5.82324 82.7622 5.77441C82.5278 5.72396 82.3455 5.66699 82.2153 5.60352C82.0868 5.53841 81.9907 5.45947 81.9272 5.3667C81.8654 5.27393 81.8345 5.16162 81.8345 5.02979C81.8345 4.82145 81.9215 4.64974 82.0957 4.51465C82.2699 4.37793 82.4928 4.30957 82.7646 4.30957C83.0592 4.30957 83.2952 4.38281 83.4727 4.5293C83.6517 4.67415 83.7412 4.86377 83.7412 5.09814H83.4482C83.4482 4.94352 83.3831 4.81494 83.2529 4.7124C83.1243 4.60986 82.9616 4.55859 82.7646 4.55859C82.5726 4.55859 82.418 4.60173 82.3008 4.68799C82.1852 4.77262 82.1274 4.8833 82.1274 5.02002C82.1274 5.15186 82.1755 5.25439 82.2715 5.32764C82.3691 5.39925 82.5457 5.46517 82.8013 5.52539C83.0584 5.58561 83.2505 5.6499 83.3774 5.71826C83.506 5.78662 83.6012 5.86882 83.6631 5.96484C83.7249 6.06087 83.7559 6.17725 83.7559 6.31396C83.7559 6.53695 83.6655 6.71517 83.4849 6.84863C83.3058 6.9821 83.0715 7.04883 82.7817 7.04883C82.4741 7.04883 82.2243 6.97477 82.0322 6.82666C81.8418 6.67692 81.7466 6.48812 81.7466 6.26025H82.0396C82.0509 6.43115 82.1226 6.56462 82.2544 6.66064C82.3879 6.75505 82.5636 6.80225 82.7817 6.80225C82.9852 6.80225 83.1496 6.75749 83.2749 6.66797C83.4002 6.57845 83.4629 6.46533 83.4629 6.32861Z" fill="black"/>
<path d="M57.0527 27.6445H59.5103V28H56.6289V23.0234H57.0527V27.6445Z" fill="black"/>
<path d="M52.5 31V38" stroke="black"/>
<line y1="12.5" x2="79" y2="12.5" stroke="black"/>
<line x1="82" y1="12.5" x2="113" y2="12.5" stroke="black"/>
<path d="M81.1528 4.44824C81.0959 4.97233 80.9079 5.37337 80.5889 5.65137C80.2721 5.92936 79.8494 6.06836 79.3208 6.06836C78.9517 6.06836 78.6247 5.97607 78.3398 5.7915C78.0573 5.60693 77.8385 5.34603 77.6836 5.00879C77.5286 4.66927 77.45 4.2819 77.4478 3.84668V3.20068C77.4478 2.75863 77.5252 2.3667 77.6802 2.0249C77.8351 1.68311 78.0573 1.41992 78.3467 1.23535C78.6383 1.0485 78.9733 0.955078 79.3516 0.955078C79.8848 0.955078 80.3052 1.09977 80.6128 1.38916C80.9227 1.67627 81.1027 2.07389 81.1528 2.58203H80.729C80.6242 1.73665 80.165 1.31396 79.3516 1.31396C78.9004 1.31396 78.5404 1.48258 78.2715 1.81982C78.0049 2.15706 77.8716 2.62305 77.8716 3.21777V3.82617C77.8716 4.40039 78.0015 4.8584 78.2612 5.2002C78.5233 5.54199 78.8765 5.71289 79.3208 5.71289C79.7606 5.71289 80.0921 5.60807 80.3154 5.39844C80.5387 5.18652 80.6766 4.86979 80.729 4.44824H81.1528Z" fill="black"/>
<line x1="79.5" y1="16" x2="79.5" y2="9" stroke="black"/>
<line x1="81.5" y1="16" x2="81.5" y2="9" stroke="black"/>
<path d="M57.0527 27.6445H59.5103V28H56.6289V23.0234H57.0527V27.6445Z" fill="black"/>
<path d="M62.5049 28.7061C62.5049 29.1178 62.4137 29.445 62.2314 29.6875C62.0492 29.9284 61.805 30.0488 61.499 30.0488C61.1377 30.0488 60.861 29.9219 60.6689 29.668V31.0156H60.3784V27.3584H60.6494L60.6641 27.7319C60.8545 27.4504 61.1304 27.3096 61.4917 27.3096C61.8075 27.3096 62.0549 27.4292 62.2339 27.6685C62.4146 27.9077 62.5049 28.2397 62.5049 28.6646V28.7061ZM62.2119 28.6548C62.2119 28.3179 62.1427 28.0518 62.0044 27.8564C61.866 27.6611 61.6732 27.5635 61.4258 27.5635C61.2467 27.5635 61.0929 27.6066 60.9644 27.6929C60.8358 27.7791 60.7373 27.9045 60.6689 28.0688V29.3359C60.7389 29.4873 60.839 29.6029 60.9692 29.6826C61.0994 29.7624 61.2533 29.8022 61.4307 29.8022C61.6764 29.8022 61.8677 29.7046 62.0044 29.5093C62.1427 29.3123 62.2119 29.0275 62.2119 28.6548Z" fill="black"/>
</svg>
