<svg width="125" height="124" viewBox="0 0 125 124" fill="none" xmlns="http://www.w3.org/2000/svg">
<path d="M122.752 36.7461H124.507V37H122.449V33.4453H122.752V36.7461Z" fill="black"/>
<rect x="28.5" y="0.5" width="66" height="56" stroke="black"/>
<line y1="16.5" x2="28" y2="16.5" stroke="black"/>
<line y1="42.5" x2="28" y2="42.5" stroke="black"/>
<line x1="95" y1="42.5" x2="112" y2="42.5" stroke="black"/>
<line x1="95" y1="16.5" x2="112" y2="16.5" stroke="black"/>
<rect x="110.5" y="23.5" width="4" height="10" stroke="black"/>
<line x1="112.5" y1="16" x2="112.5" y2="23" stroke="black"/>
<line x1="112.5" y1="34" x2="112.5" y2="43" stroke="black"/>
<path d="M11.8169 30.6445H14.8896V31H11.3076V30.6821L14.2607 26.3823H11.3965V26.0234H14.7803V26.3242L11.8169 30.6445Z" fill="black"/>
<path d="M15.2637 31.3682C15.2637 31.0635 15.3223 30.7891 15.4395 30.5449C15.5586 30.3008 15.7256 30.1113 15.9404 29.9766C16.1572 29.8398 16.4023 29.7715 16.6758 29.7715C17.0977 29.7715 17.4395 29.9199 17.7012 30.2168C17.9629 30.5117 18.0938 30.9033 18.0938 31.3916V31.4648C18.0938 31.7715 18.0342 32.0479 17.915 32.2939C17.7979 32.5381 17.6318 32.7266 17.417 32.8594C17.2021 32.9922 16.957 33.0586 16.6816 33.0586C16.2617 33.0586 15.9199 32.9111 15.6562 32.6162C15.3945 32.3193 15.2637 31.9268 15.2637 31.4385V31.3682ZM15.6152 31.4648C15.6152 31.8438 15.7129 32.1553 15.9082 32.3994C16.1055 32.6416 16.3633 32.7627 16.6816 32.7627C16.998 32.7627 17.2539 32.6416 17.4492 32.3994C17.6465 32.1553 17.7451 31.834 17.7451 31.4355V31.3682C17.7451 31.126 17.7002 30.9043 17.6104 30.7031C17.5205 30.502 17.3945 30.3467 17.2324 30.2373C17.0703 30.126 16.8848 30.0703 16.6758 30.0703C16.3633 30.0703 16.1084 30.1934 15.9111 30.4395C15.7139 30.6836 15.6152 31.0039 15.6152 31.4004V31.4648Z" fill="black"/>
<path d="M117.817 34.6445H120.89V35H117.308V34.6821L120.261 30.3823H117.396V30.0234H120.78V30.3242L117.817 34.6445Z" fill="black"/>
<path d="M45.5562 22.0234L47.3916 26.4155L49.2339 22.0234H49.7944V27H49.374V24.833L49.4082 22.6113L47.5557 27H47.231L45.3853 22.6284L45.4194 24.8193V27H44.999V22.0234H45.5562ZM53.8037 25.6055H51.5444L51.0317 27H50.5908L52.4741 22.0234H52.874L54.7573 27H54.3198L53.8037 25.6055ZM51.6743 25.2466H53.6704L52.6724 22.5361L51.6743 25.2466ZM58.4248 22.3823H56.7192V27H56.2988V22.3823H54.5967V22.0234H58.4248V22.3823ZM62.6597 25.4482C62.6027 25.9723 62.4147 26.3734 62.0957 26.6514C61.779 26.9294 61.3563 27.0684 60.8276 27.0684C60.4585 27.0684 60.1315 26.9761 59.8467 26.7915C59.5641 26.6069 59.3454 26.346 59.1904 26.0088C59.0355 25.6693 58.9569 25.2819 58.9546 24.8467V24.2007C58.9546 23.7586 59.0321 23.3667 59.187 23.0249C59.342 22.6831 59.5641 22.4199 59.8535 22.2354C60.1452 22.0485 60.4801 21.9551 60.8584 21.9551C61.3916 21.9551 61.812 22.0998 62.1196 22.3892C62.4295 22.6763 62.6095 23.0739 62.6597 23.582H62.2358C62.131 22.7367 61.6719 22.314 60.8584 22.314C60.4072 22.314 60.0472 22.4826 59.7783 22.8198C59.5117 23.1571 59.3784 23.623 59.3784 24.2178V24.8262C59.3784 25.4004 59.5083 25.8584 59.7681 26.2002C60.0301 26.542 60.3833 26.7129 60.8276 26.7129C61.2674 26.7129 61.599 26.6081 61.8223 26.3984C62.0456 26.1865 62.1834 25.8698 62.2358 25.4482H62.6597ZM67.3696 27H66.9458V24.6143H64.1021V27H63.6816V22.0234H64.1021V24.2588H66.9458V22.0234H67.3696V27ZM69.1504 27H68.73V22.0234H69.1504V27ZM74.209 27H73.7886L70.9277 22.7412V27H70.5039V22.0234H70.9277L73.792 26.2856V22.0234H74.209V27ZM79.0659 26.4087C78.9201 26.616 78.6911 26.7778 78.3789 26.894C78.069 27.0103 77.7215 27.0684 77.3364 27.0684C76.9468 27.0684 76.6004 26.9749 76.2974 26.7881C75.9943 26.6012 75.7596 26.3369 75.5933 25.9951C75.4269 25.6533 75.3426 25.2614 75.3403 24.8193V24.1904C75.3403 23.5 75.5146 22.9554 75.8633 22.5566C76.2119 22.1556 76.6802 21.9551 77.2681 21.9551C77.7808 21.9551 78.1932 22.0861 78.5054 22.3481C78.8175 22.6079 79.0033 22.9668 79.0625 23.4248H78.6421C78.5806 23.0602 78.4313 22.7845 78.1943 22.5977C77.9596 22.4085 77.652 22.314 77.2715 22.314C76.8066 22.314 76.4386 22.4792 76.1675 22.8096C75.8963 23.14 75.7607 23.606 75.7607 24.2075V24.7954C75.7607 25.1737 75.8245 25.5086 75.9521 25.8003C76.082 26.0897 76.2666 26.3141 76.5059 26.4736C76.7474 26.6331 77.0243 26.7129 77.3364 26.7129C77.6987 26.7129 78.0098 26.6559 78.2695 26.542C78.4382 26.4668 78.5635 26.3791 78.6455 26.2788V24.9937H77.3091V24.6382H79.0659V26.4087ZM49.7671 35H49.3467L46.4858 30.7412V35H46.062V30.0234H46.4858L49.3501 34.2856V30.0234H49.7671V35ZM53.7798 32.6143H51.4521V34.6445H54.1284V35H51.0317V30.0234H54.1113V30.3823H51.4521V32.2588H53.7798V32.6143ZM58.4624 30.3823H56.7568V35H56.3364V30.3823H54.6343V30.0234H58.4624V30.3823ZM60.2432 33.6567L60.397 34.4292L60.585 33.6909L61.665 30.0234H62.0444L63.1108 33.6909L63.2954 34.436L63.4595 33.6567L64.3584 30.0234H64.7891L63.5142 35H63.1108L61.9829 31.1069L61.8564 30.6147L61.7334 31.1069L60.5781 35H60.1748L58.9033 30.0234H59.334L60.2432 33.6567ZM69.2769 32.7817C69.2769 33.2397 69.1971 33.6419 69.0376 33.9883C68.8804 34.3346 68.6548 34.6012 68.3608 34.7881C68.0669 34.9749 67.7274 35.0684 67.3423 35.0684C66.7612 35.0684 66.2918 34.861 65.9341 34.4463C65.5763 34.0293 65.3975 33.4676 65.3975 32.7612V32.2485C65.3975 31.7951 65.4772 31.394 65.6367 31.0454C65.7985 30.6945 66.0264 30.4256 66.3203 30.2388C66.6143 30.0496 66.9526 29.9551 67.3354 29.9551C67.7183 29.9551 68.0555 30.0474 68.3472 30.2319C68.6411 30.4165 68.8678 30.6774 69.0273 31.0146C69.1868 31.3519 69.27 31.7427 69.2769 32.187V32.7817ZM68.8564 32.2417C68.8564 31.6424 68.7209 31.173 68.4497 30.8335C68.1785 30.494 67.8071 30.3242 67.3354 30.3242C66.8729 30.3242 66.5037 30.4951 66.228 30.8369C65.9546 31.1764 65.8179 31.6515 65.8179 32.2622V32.7817C65.8179 33.3719 65.9546 33.8402 66.228 34.1865C66.5015 34.5306 66.8729 34.7026 67.3423 34.7026C67.8185 34.7026 68.1899 34.5329 68.4565 34.1934C68.7231 33.8516 68.8564 33.3765 68.8564 32.7681V32.2417ZM72.1958 32.9287H70.75V35H70.3262V30.0234H71.9429C72.4738 30.0234 72.8885 30.1522 73.187 30.4097C73.4855 30.6672 73.6348 31.0272 73.6348 31.4897C73.6348 31.8088 73.5413 32.0902 73.3545 32.334C73.1676 32.5778 72.917 32.7464 72.6025 32.8398L73.8467 34.9556V35H73.3989L72.1958 32.9287ZM70.75 32.5698H72.0386C72.3918 32.5698 72.6755 32.4696 72.8896 32.269C73.1038 32.0685 73.2109 31.8088 73.2109 31.4897C73.2109 31.1388 73.0993 30.8665 72.876 30.6729C72.6527 30.4792 72.3394 30.3823 71.936 30.3823H70.75V32.5698ZM75.9009 32.5288L75.2002 33.2192V35H74.7798V30.0234H75.2002V32.7065L77.75 30.0234H78.2798L76.1948 32.2383L78.4404 35H77.9277L75.9009 32.5288Z" fill="black"/>
<rect x="101.564" y="75.6025" width="2.54839" height="8.53846" stroke="black"/>
<rect x="79.5645" y="75.6025" width="2.54839" height="8.53846" stroke="black"/>
<rect x="55.4355" y="71.4231" width="2.97436" height="8.93548" transform="rotate(-90 55.4355 71.4231)" stroke="black"/>
<path d="M103 70V75.5641" stroke="black"/>
<path d="M80.8386 70.3334V75.8975" stroke="black"/>
<path d="M80.8386 84.641V90.2051" stroke="black"/>
<line x1="102.984" y1="84.641" x2="102.984" y2="90.2051" stroke="black"/>
<line x1="23" y1="69.8334" x2="54.9355" y2="69.8334" stroke="black"/>
<line x1="64.8708" y1="69.8334" x2="103.511" y2="69.8334" stroke="black"/>
<line x1="23" y1="90.5" x2="47.129" y2="90.5" stroke="black"/>
<line x1="47.1292" y1="90.5" x2="103.489" y2="90.5" stroke="black"/>
<path d="M106.139 86.3112H109.212V86.6666H105.63V86.3488L108.583 82.049H105.719V81.6901H109.103V81.9908L106.139 86.3112Z" fill="black"/>
<path d="M109.623 87.7974H111.378V88.0513H109.32V84.4966H109.623V87.7974Z" fill="black"/>
<path d="M72.9741 79.3018V83.4409C72.9741 83.7827 72.8921 84.0436 72.728 84.2236C72.564 84.4036 72.3224 84.4937 72.0034 84.4937C71.8804 84.4937 71.7607 84.472 71.6445 84.4287L71.6514 84.0903C71.7516 84.12 71.8542 84.1348 71.959 84.1348C72.3646 84.1348 72.5674 83.9012 72.5674 83.4341V79.3018H72.9741ZM72.7725 77.9551C72.8613 77.9551 72.9308 77.9824 72.981 78.0371C73.0311 78.0895 73.0562 78.1545 73.0562 78.2319C73.0562 78.3094 73.0311 78.3743 72.981 78.4268C72.9308 78.4792 72.8613 78.5054 72.7725 78.5054C72.6859 78.5054 72.6175 78.4792 72.5674 78.4268C72.5195 78.3743 72.4956 78.3094 72.4956 78.2319C72.4956 78.1545 72.5195 78.0895 72.5674 78.0371C72.6175 77.9824 72.6859 77.9551 72.7725 77.9551ZM74.2285 83V78.0234H75.6982C76.2314 78.0234 76.6359 78.134 76.9116 78.355C77.1873 78.5737 77.3252 78.8973 77.3252 79.3257C77.3252 79.5832 77.2546 79.8076 77.1133 79.999C76.9743 80.1882 76.7829 80.3237 76.5391 80.4058C76.8285 80.4696 77.0609 80.612 77.2363 80.833C77.4141 81.054 77.5029 81.3092 77.5029 81.5986C77.5029 82.0384 77.3605 82.3825 77.0757 82.6309C76.7931 82.877 76.3989 83 75.8931 83H74.2285ZM74.6489 80.6074V82.6445H75.9102C76.2702 82.6445 76.555 82.5534 76.7646 82.3711C76.9766 82.1865 77.0825 81.9313 77.0825 81.6055C77.0825 81.2979 76.9811 81.0552 76.7783 80.8774C76.5778 80.6974 76.2998 80.6074 75.9443 80.6074H74.6489ZM74.6489 80.2554H75.7974C76.1483 80.2485 76.4194 80.1665 76.6108 80.0093C76.8045 79.8498 76.9014 79.6185 76.9014 79.3154C76.9014 78.9964 76.8011 78.7617 76.6006 78.6113C76.4023 78.4587 76.1016 78.3823 75.6982 78.3823H74.6489V80.2554Z" fill="black"/>
<path d="M57.9741 61.3018V65.4409C57.9741 65.7827 57.8921 66.0436 57.728 66.2236C57.564 66.4036 57.3224 66.4937 57.0034 66.4937C56.8804 66.4937 56.7607 66.472 56.6445 66.4287L56.6514 66.0903C56.7516 66.12 56.8542 66.1348 56.959 66.1348C57.3646 66.1348 57.5674 65.9012 57.5674 65.4341V61.3018H57.9741ZM57.7725 59.9551C57.8613 59.9551 57.9308 59.9824 57.981 60.0371C58.0311 60.0895 58.0562 60.1545 58.0562 60.2319C58.0562 60.3094 58.0311 60.3743 57.981 60.4268C57.9308 60.4792 57.8613 60.5054 57.7725 60.5054C57.6859 60.5054 57.6175 60.4792 57.5674 60.4268C57.5195 60.3743 57.4956 60.3094 57.4956 60.2319C57.4956 60.1545 57.5195 60.0895 57.5674 60.0371C57.6175 59.9824 57.6859 59.9551 57.7725 59.9551ZM60.7427 62.1289L62.144 60.0234H62.6465L60.999 62.4775L62.6978 65H62.1919L60.7427 62.8262L59.2866 65H58.7876L60.4897 62.4775L58.8389 60.0234H59.3413L60.7427 62.1289Z" fill="black"/>
<rect x="102.564" y="108.603" width="2.54839" height="8.53846" stroke="black"/>
<rect x="59.2742" y="108.603" width="2.54839" height="8.53846" stroke="black"/>
<rect x="81.2742" y="104.423" width="2.97436" height="8.93548" transform="rotate(-90 81.2742 104.423)" stroke="black"/>
<path d="M103.839 103.333V108.897" stroke="black"/>
<path d="M60.5483 103.333V108.897" stroke="black"/>
<path d="M60.5483 117.641V123.205" stroke="black"/>
<line x1="103.984" y1="117.641" x2="103.984" y2="123.205" stroke="black"/>
<line x1="24" y1="102.833" x2="80.7742" y2="102.833" stroke="black"/>
<line x1="90.7097" y1="102.833" x2="104.35" y2="102.833" stroke="black"/>
<line x1="24" y1="123.5" x2="48.129" y2="123.5" stroke="black"/>
<line x1="48.1292" y1="123.5" x2="104.489" y2="123.5" stroke="black"/>
<path d="M107.139 119.311H110.212V119.667H106.63V119.349L109.583 115.049H106.719V114.69H110.103V114.991L107.139 119.311Z" fill="black"/>
<path d="M110.623 120.797H112.378V121.051H110.32V117.497H110.623V120.797Z" fill="black"/>
<path d="M52.9741 112.302V116.441C52.9741 116.783 52.8921 117.044 52.728 117.224C52.564 117.404 52.3224 117.494 52.0034 117.494C51.8804 117.494 51.7607 117.472 51.6445 117.429L51.6514 117.09C51.7516 117.12 51.8542 117.135 51.959 117.135C52.3646 117.135 52.5674 116.901 52.5674 116.434V112.302H52.9741ZM52.7725 110.955C52.8613 110.955 52.9308 110.982 52.981 111.037C53.0311 111.09 53.0562 111.154 53.0562 111.232C53.0562 111.309 53.0311 111.374 52.981 111.427C52.9308 111.479 52.8613 111.505 52.7725 111.505C52.6859 111.505 52.6175 111.479 52.5674 111.427C52.5195 111.374 52.4956 111.309 52.4956 111.232C52.4956 111.154 52.5195 111.09 52.5674 111.037C52.6175 110.982 52.6859 110.955 52.7725 110.955ZM54.2285 116V111.023H55.6982C56.2314 111.023 56.6359 111.134 56.9116 111.355C57.1873 111.574 57.3252 111.897 57.3252 112.326C57.3252 112.583 57.2546 112.808 57.1133 112.999C56.9743 113.188 56.7829 113.324 56.5391 113.406C56.8285 113.47 57.0609 113.612 57.2363 113.833C57.4141 114.054 57.5029 114.309 57.5029 114.599C57.5029 115.038 57.3605 115.382 57.0757 115.631C56.7931 115.877 56.3989 116 55.8931 116H54.2285ZM54.6489 113.607V115.645H55.9102C56.2702 115.645 56.555 115.553 56.7646 115.371C56.9766 115.187 57.0825 114.931 57.0825 114.605C57.0825 114.298 56.9811 114.055 56.7783 113.877C56.5778 113.697 56.2998 113.607 55.9443 113.607H54.6489ZM54.6489 113.255H55.7974C56.1483 113.249 56.4194 113.167 56.6108 113.009C56.8045 112.85 56.9014 112.618 56.9014 112.315C56.9014 111.996 56.8011 111.762 56.6006 111.611C56.4023 111.459 56.1016 111.382 55.6982 111.382H54.6489V113.255Z" fill="black"/>
<path d="M84.9741 94.3018V98.4409C84.9741 98.7827 84.8921 99.0436 84.728 99.2236C84.564 99.4036 84.3224 99.4937 84.0034 99.4937C83.8804 99.4937 83.7607 99.472 83.6445 99.4287L83.6514 99.0903C83.7516 99.12 83.8542 99.1348 83.959 99.1348C84.3646 99.1348 84.5674 98.9012 84.5674 98.4341V94.3018H84.9741ZM84.7725 92.9551C84.8613 92.9551 84.9308 92.9824 84.981 93.0371C85.0311 93.0895 85.0562 93.1545 85.0562 93.2319C85.0562 93.3094 85.0311 93.3743 84.981 93.4268C84.9308 93.4792 84.8613 93.5054 84.7725 93.5054C84.6859 93.5054 84.6175 93.4792 84.5674 93.4268C84.5195 93.3743 84.4956 93.3094 84.4956 93.2319C84.4956 93.1545 84.5195 93.0895 84.5674 93.0371C84.6175 92.9824 84.6859 92.9551 84.7725 92.9551ZM87.7427 95.1289L89.144 93.0234H89.6465L87.999 95.4775L89.6978 98H89.1919L87.7427 95.8262L86.2866 98H85.7876L87.4897 95.4775L85.8389 93.0234H86.3413L87.7427 95.1289Z" fill="black"/>
</svg>
