<svg width="150" height="59" viewBox="0 0 150 59" fill="none" xmlns="http://www.w3.org/2000/svg">
<path d="M102.84 49.48V50.056H102.256C101.451 50.056 101.048 50.3013 101.048 50.792C101.048 51.0533 101.157 51.2373 101.376 51.344C101.595 51.4507 101.864 51.504 102.184 51.504C102.483 51.504 102.744 51.4693 102.968 51.4C103.197 51.3307 103.4 51.2533 103.576 51.168V51.784C103.411 51.8693 103.213 51.9413 102.984 52C102.755 52.0533 102.475 52.08 102.144 52.08C101.531 52.08 101.077 51.9627 100.784 51.728C100.491 51.488 100.344 51.1893 100.344 50.832C100.344 50.6187 100.387 50.4453 100.472 50.312C100.563 50.1733 100.68 50.064 100.824 49.984C100.968 49.8987 101.125 49.832 101.296 49.784V49.744C101.056 49.6693 100.861 49.5547 100.712 49.4C100.568 49.24 100.496 49.0293 100.496 48.768C100.496 48.4053 100.648 48.1253 100.952 47.928C101.261 47.7307 101.659 47.632 102.144 47.632C102.453 47.632 102.717 47.6587 102.936 47.712C103.16 47.7653 103.379 47.84 103.592 47.936L103.328 48.496C103.152 48.416 102.971 48.3493 102.784 48.296C102.603 48.2427 102.387 48.216 102.136 48.216C101.491 48.216 101.168 48.4187 101.168 48.824C101.168 49.0587 101.277 49.2267 101.496 49.328C101.72 49.4293 102.019 49.48 102.392 49.48H102.84Z" fill="black"/>
<path d="M105.942 50.3164C105.86 50.3027 105.771 50.2959 105.676 50.2959C105.32 50.2959 105.079 50.4473 104.952 50.75V53H104.41V49.8301H104.938L104.946 50.1963C105.124 49.9131 105.376 49.7715 105.702 49.7715C105.808 49.7715 105.888 49.7852 105.942 49.8125V50.3164Z" fill="black"/>
<rect x="9.5" y="41.5" width="100" height="16" stroke="black"/>
<line x1="9.65563" y1="41.6375" x2="49.6556" y2="3.6375" stroke="black"/>
<line x1="69.7589" y1="39.7463" x2="109.759" y2="1.74625" stroke="black" stroke-width="0.7"/>
<line x1="69.7589" y1="41.7463" x2="109.759" y2="3.74625" stroke="black" stroke-width="0.7"/>
<line x1="50.7589" y1="38.7463" x2="90.7589" y2="0.746251" stroke="black" stroke-width="0.7"/>
<line x1="109.656" y1="57.6375" x2="149.656" y2="19.6375" stroke="black"/>
<line x1="109.656" y1="57.6375" x2="149.656" y2="19.6375" stroke="black"/>
<line x1="109.656" y1="41.6375" x2="149.656" y2="3.6375" stroke="black"/>
<rect x="50.35" y="39.35" width="19.3" height="2.3" stroke="black" stroke-width="0.7"/>
<path d="M50.6826 38.8125C50.6592 38.8309 50.6469 38.8425 50.6419 38.8699C50.639 38.8859 50.6195 38.889 50.6087 38.8997C50.6012 38.9073 50.5694 38.916 50.5793 38.9121C50.5935 38.9064 50.6102 38.883 50.6222 38.8729C50.6431 38.8552 50.6636 38.8368 50.6852 38.8199C50.6948 38.8124 50.7818 38.7571 50.7892 38.7868C50.7984 38.8234 50.7933 38.9322 50.7497 38.9467" stroke="black" stroke-width="0.1" stroke-linecap="square"/>
<path d="M50.8242 38.9414C50.8047 38.9414 50.7851 38.9414 50.7656 38.9414C50.7418 38.9414 50.8038 38.9404 50.811 38.9392C50.8419 38.9344 50.8815 38.922 50.913 38.9299C50.9185 38.9313 50.9037 38.9369 50.9002 38.9414C50.895 38.9479 50.8887 38.9551 50.8828 38.9609C50.8713 38.9724 50.8578 38.9729 50.8429 38.9757C50.8337 38.9775 50.805 38.9766 50.8322 38.9766C50.8502 38.9766 50.8681 38.9766 50.886 38.9766C50.904 38.9766 50.8508 38.9688 50.8329 38.9688C50.8223 38.9688 50.7855 38.9664 50.8164 38.9618C50.863 38.9549 50.9133 38.9531 50.9605 38.9531C50.966 38.9531 51.0276 38.9492 50.998 38.9492C50.9816 38.9492 50.9647 38.948 50.9483 38.9492C50.9394 38.9499 50.9333 38.9567 50.924 38.957C50.9149 38.9574 50.9058 38.9569 50.8967 38.957C50.8917 38.9571 50.8473 38.9609 50.8713 38.9609C50.8898 38.9609 50.9088 38.9585 50.926 38.951C50.9447 38.9427 50.9414 38.9317 50.9414 38.9132C50.9414 38.8939 50.9449 38.8872 50.9548 38.8715C50.964 38.8571 50.9676 38.8401 50.9757 38.8251C50.9865 38.805 51.0008 38.7878 51.0128 38.7685C51.0194 38.7579 51.0273 38.7215 51.0273 38.7339C51.0273 38.8068 50.9865 38.8805 50.9501 38.941C50.9092 39.0089 50.8581 39.0629 50.7938 39.1085C50.7596 39.1328 50.7818 39.0944 50.7908 39.0796C50.8058 39.055 50.8171 39.0281 50.8322 39.0035C50.8529 38.9699 50.876 38.9379 50.8967 38.9041C50.9025 38.8947 50.9336 38.8461 50.9336 38.8494C50.9336 38.8924 50.9112 38.9398 50.8845 38.972C50.8629 38.9981 50.8229 39.0412 50.7875 39.0467C50.7774 39.0482 50.7813 39.0254 50.7821 39.0206C50.7881 38.9838 50.8125 38.9494 50.8311 38.918C50.8648 38.8612 50.8927 38.8011 50.9258 38.7439C50.9347 38.7284 50.951 38.672 50.949 38.7216C50.9475 38.7588 50.9349 38.7949 50.9236 38.8301C50.9059 38.8853 50.885 38.9415 50.8528 38.99C50.8073 39.0588 50.7556 39.1191 50.6996 39.179C50.6636 39.2176 50.7152 39.1136 50.7187 39.105C50.7602 39.006 50.7986 38.9052 50.8437 38.8077C50.866 38.7597 50.8943 38.7165 50.921 38.671C50.9286 38.6581 50.93 38.6576 50.9297 38.6754C50.9287 38.7242 50.9092 38.773 50.8941 38.8188C50.8605 38.9205 50.8129 39.0245 50.7424 39.1063C50.7274 39.1238 50.7098 39.1417 50.6901 39.1539C50.674 39.1639 50.6913 39.1226 50.6931 39.1176C50.7086 39.0746 50.7235 39.0313 50.7413 38.9892C50.7635 38.9365 50.7967 38.8906 50.8242 38.8407C50.8617 38.7725 50.9079 38.7073 50.9546 38.645C50.962 38.6352 50.9706 38.6253 50.9761 38.6144C50.9845 38.5977 50.9734 38.652 50.9674 38.6697C50.9065 38.8488 50.8082 39.0206 50.6632 39.1432C50.6141 39.1848 50.5649 39.2258 50.5074 39.2552C50.5038 39.2571 50.475 39.2756 50.4774 39.2622C50.4838 39.2271 50.5059 39.1908 50.5225 39.1602C50.5642 39.0833 50.6117 39.0107 50.6597 38.9377C50.7034 38.8714 50.748 38.8085 50.7979 38.7468C50.8302 38.7069 50.8573 38.6616 50.8923 38.6241C50.9092 38.6061 50.929 38.5922 50.9412 38.5703C50.9579 38.5402 50.9525 38.5684 50.9466 38.5864C50.9146 38.6844 50.8647 38.7852 50.796 38.8624C50.7633 38.8992 50.7289 38.9386 50.6883 38.967C50.6675 38.9816 50.6458 39.0015 50.6232 39.0132C50.6032 39.0237 50.6123 38.9971 50.6161 38.9872C50.6312 38.9478 50.6494 38.9093 50.6662 38.8707C50.7093 38.7717 50.7496 38.6704 50.8077 38.579C50.8222 38.5562 50.8373 38.5345 50.8528 38.5126C50.8616 38.5002 50.8644 38.4945 50.8624 38.5161C50.8561 38.5831 50.8297 38.6493 50.8103 38.7131C50.7718 38.8397 50.7195 38.9603 50.6621 39.0794C50.5992 39.2099 50.5277 39.3549 50.4058 39.4405C50.3851 39.4551 50.402 39.4377 50.4084 39.4269C50.4321 39.3868 50.4511 39.3438 50.4735 39.303C50.5713 39.1248 50.7091 38.9724 50.8084 38.7951C50.8327 38.7516 50.8655 38.7158 50.8923 38.6743C50.8954 38.6695 50.9013 38.6566 50.9021 38.6699C50.9052 38.7222 50.8915 38.7711 50.8741 38.8199C50.8137 38.9895 50.7208 39.145 50.5777 39.2569C50.5383 39.2878 50.4969 39.3148 50.4544 39.3412C50.4317 39.3552 50.4459 39.3239 50.4505 39.3121C50.4749 39.2487 50.5081 39.1894 50.5371 39.128C50.5741 39.0497 50.6115 38.9715 50.6482 38.893C50.7046 38.7723 50.758 38.649 50.8272 38.5352C50.8434 38.5087 50.859 38.4819 50.875 38.4553C50.8828 38.4422 50.896 38.4007 50.8982 38.4158C50.9026 38.4463 50.886 38.4861 50.8776 38.5143C50.8441 38.6269 50.7944 38.7369 50.7443 38.8429C50.6685 39.0036 50.5767 39.1567 50.4596 39.2908C50.4596 39.2908 50.4334 39.3205 50.4305 39.3186C50.4292 39.3177 50.4717 39.2303 50.4729 39.2277C50.5341 39.0851 50.6144 38.9511 50.6775 38.809C50.7172 38.7196 50.7661 38.6336 50.8029 38.543C50.8086 38.529 50.8136 38.5148 50.8194 38.5009C50.8244 38.489 50.8202 38.5266 50.8194 38.5395C50.8112 38.6816 50.7739 38.829 50.7181 38.9599C50.693 39.0185 50.6565 39.0748 50.6176 39.1252C50.5994 39.1488 50.5774 39.1749 50.5514 39.1905C50.5386 39.1982 50.538 39.1926 50.5397 39.1797C50.5465 39.126 50.5743 39.0754 50.5972 39.0273C50.6528 38.9109 50.7 38.7902 50.7608 38.6762C50.7757 38.6484 50.7969 38.6172 50.8047 38.5862C50.8081 38.5726 50.8087 38.5879 50.8079 38.5935C50.803 38.6307 50.7841 38.6664 50.7708 38.701C50.7172 38.8401 50.6548 38.9883 50.5421 39.0903C50.5061 39.1228 50.4671 39.1569 50.4253 39.1819C50.4166 39.1871 50.3925 39.205 50.3806 39.1975C50.3671 39.189 50.3755 39.1418 50.3776 39.1302C50.3898 39.0619 50.432 38.994 50.4629 38.9327C50.5188 38.8218 50.5833 38.7169 50.6521 38.6137C50.6739 38.581 50.6998 38.5442 50.7274 38.5165C50.7316 38.5123 50.7249 38.5397 50.7248 38.5399C50.7116 38.5755 50.6934 38.6104 50.6753 38.6437C50.6066 38.7703 50.5352 38.8936 50.4325 38.9963C50.4004 39.0284 50.3643 39.0555 50.3288 39.0836C50.3231 39.088 50.2934 39.1167 50.2843 39.1118C50.2685 39.1032 50.3774 38.9164 50.3858 38.9006C50.4363 38.8065 50.484 38.7078 50.5508 38.6237C50.5703 38.5991 50.5927 38.5767 50.6137 38.5534C50.6192 38.5472 50.6355 38.5253 50.646 38.5265C50.6558 38.5276 50.6259 38.6819 50.6241 38.6895C50.5947 38.8164 50.5515 38.9555 50.4778 39.0642C50.4634 39.0855 50.4479 39.1059 50.4336 39.1272C50.429 39.134 50.4231 39.1461 50.4171 39.1515C50.4134 39.1548 50.4196 39.1228 50.4197 39.1224C50.4319 39.0831 50.4528 39.0482 50.4705 39.0113C50.4992 38.9512 50.5237 38.895 50.561 38.8396C50.5885 38.7987 50.623 38.7616 50.6554 38.7244C50.6655 38.7127 50.6878 38.6765 50.6875 38.7088C50.6871 38.7395 50.6766 38.7689 50.6671 38.7977C50.6443 38.8667 50.6178 38.9337 50.5866 38.9994C50.5652 39.0443 50.5322 39.099 50.4922 39.1311C50.492 39.1312 50.5043 39.0997 50.5065 39.0955C50.5381 39.0341 50.5655 38.9709 50.5979 38.9097C50.6599 38.7924 50.7204 38.6732 50.7945 38.5629C50.8038 38.549 50.8106 38.5331 50.8203 38.5195C50.8287 38.5077 50.8244 38.5242 50.8233 38.5321C50.8182 38.5688 50.7901 38.6096 50.7725 38.6415C50.7665 38.6526 50.7597 38.6673 50.75 38.6758C50.7354 38.6885 50.7639 38.6397 50.771 38.6218C50.7742 38.6138 50.8218 38.4856 50.8008 38.4844C50.7655 38.4823 50.7533 38.5129 50.7209 38.5191C50.7145 38.5203 50.6865 38.529 50.684 38.5189C50.6825 38.513 50.6875 38.4852 50.6719 38.4931C50.6518 38.5031 50.6403 38.5291 50.623 38.543C50.6094 38.5539 50.5932 38.5683 50.5868 38.5851C50.5809 38.6003 50.5668 38.6128 50.5627 38.6272C50.5578 38.6442 50.5481 38.6603 50.5399 38.6758C50.5313 38.6921 50.5142 38.7105 50.5078 38.7266C50.4998 38.7466 50.4805 38.7619 50.4735 38.7821C50.4676 38.7992 50.4564 38.8268 50.4416 38.8379C50.4222 38.8524 50.4069 38.8765 50.3915 38.8954C50.3865 38.9015 50.3846 38.9116 50.3789 38.918C50.373 38.9246 50.365 38.9267 50.363 38.9356C50.361 38.9449 50.3463 38.9523 50.3439 38.9629C50.3425 38.9695 50.3362 38.9789 50.3359 38.9844C50.335 39.0005 50.3247 39.0149 50.3164 39.0273" stroke="black" stroke-width="0.1" stroke-linecap="square"/>
<path d="M50.2462 39.0273C50.2865 39.0198 50.3293 38.9954 50.3577 38.967C50.3758 38.9489 50.3581 38.9315 50.336 38.9395C50.3269 38.9427 50.3159 38.9559 50.3087 38.957C50.2945 38.9593 50.2907 38.9738 50.2794 38.9763C50.2691 38.9786 50.2437 38.9963 50.2383 39.0056C50.237 39.0079 50.216 39.0198 50.2266 39.0078C50.2337 38.9998 50.2376 38.9886 50.2442 38.9807C50.2636 38.9574 50.2832 38.9368 50.3067 38.918C50.3355 38.8949 50.3497 38.8633 50.3681 38.832C50.377 38.8169 50.3915 38.8012 50.4013 38.7852C50.4049 38.7793 50.4101 38.7714 50.415 38.7665C50.4344 38.747 50.4484 38.7203 50.4649 38.6984C50.474 38.6862 50.4925 38.6717 50.4992 38.6584C50.5034 38.65 50.5078 38.6363 50.5137 38.6291C50.518 38.624 50.5262 38.6203 50.5274 38.6133C50.5291 38.6034 50.5561 38.5786 50.5634 38.5712C50.5777 38.5569 50.5849 38.5381 50.6055 38.5312" stroke="black" stroke-width="0.1" stroke-linecap="square"/>
<path d="M50.582 38.5273C50.5599 38.5441 50.5423 38.5621 50.5282 38.5859C50.525 38.5913 50.5178 38.5931 50.5117 38.5938C50.5068 38.5943 50.5082 38.5999 50.5039 38.6024C50.4941 38.6082 50.4871 38.6242 50.4842 38.6345C50.4831 38.6381 50.4735 38.6543 50.4705 38.6582C50.4628 38.6681 50.4602 38.6806 50.4531 38.6895C50.4393 38.7067 50.4297 38.7238 50.4188 38.7422C50.4118 38.7541 50.3923 38.7732 50.3798 38.7782C50.3579 38.787 50.3546 38.8172 50.3416 38.834C50.3138 38.8697 50.2825 38.8998 50.2548 38.9345C50.2478 38.9431 50.2434 38.9502 50.2374 38.9609C50.2311 38.9724 50.2196 38.977 50.214 38.9883C50.2117 38.9929 50.2031 39.0131 50.2031 38.9961C50.2031 38.9784 50.2134 38.9831 50.2246 38.9744C50.2404 38.9621 50.2428 38.9395 50.26 38.9297C50.2696 38.9242 50.2763 38.9123 50.2871 38.9099C50.3027 38.9065 50.311 38.8854 50.3251 38.8798C50.3501 38.8698 50.3546 38.8388 50.3741 38.8242C50.3769 38.8221 50.3902 38.804 50.3906 38.8008C50.3918 38.7907 50.4056 38.787 50.4102 38.7791C50.4185 38.7646 50.437 38.7502 50.4475 38.7368C50.4637 38.7159 50.4813 38.6984 50.5 38.6797" stroke="black" stroke-width="0.1" stroke-linecap="square"/>
<path d="M7.17678 40.8232C7.07915 40.7256 6.92085 40.7256 6.82322 40.8232L5.23223 42.4142C5.1346 42.5118 5.1346 42.6701 5.23223 42.7678C5.32986 42.8654 5.48816 42.8654 5.58579 42.7678L7 41.3536L8.41421 42.7678C8.51184 42.8654 8.67014 42.8654 8.76777 42.7678C8.8654 42.6701 8.8654 42.5118 8.76777 42.4142L7.17678 40.8232ZM7.25 58L7.25 41H6.75L6.75 58H7.25Z" fill="black"/>
<path d="M6.82322 58.1768C6.92085 58.2744 7.07915 58.2744 7.17678 58.1768L8.76777 56.5858C8.8654 56.4882 8.8654 56.3299 8.76777 56.2322C8.67014 56.1346 8.51184 56.1346 8.41421 56.2322L7 57.6464L5.58579 56.2322C5.48816 56.1346 5.32986 56.1346 5.23223 56.2322C5.1346 56.3299 5.1346 56.4882 5.23223 56.5858L6.82322 58.1768ZM7.25 58L7.25 41H6.75L6.75 58H7.25Z" fill="black"/>
<path d="M70.1768 44.1768C70.2744 44.0791 70.2744 43.9209 70.1768 43.8232L68.5858 42.2322C68.4882 42.1346 68.3299 42.1346 68.2322 42.2322C68.1346 42.3299 68.1346 42.4882 68.2322 42.5858L69.6464 44L68.2322 45.4142C68.1346 45.5118 68.1346 45.6701 68.2322 45.7678C68.3299 45.8654 68.4882 45.8654 68.5858 45.7678L70.1768 44.1768ZM50 44.25L70 44.25V43.75L50 43.75V44.25Z" fill="black"/>
<path d="M49.8232 43.8232C49.7256 43.9209 49.7256 44.0791 49.8232 44.1768L51.4142 45.7678C51.5118 45.8654 51.6701 45.8654 51.7678 45.7678C51.8654 45.6701 51.8654 45.5118 51.7678 45.4142L50.3536 44L51.7678 42.5858C51.8654 42.4882 51.8654 42.3299 51.7678 42.2322C51.6701 42.1346 51.5118 42.1346 51.4142 42.2322L49.8232 43.8232ZM50 44.25L70 44.25V43.75L50 43.75V44.25Z" fill="black"/>
<path d="M57.5483 49.6567L57.7021 50.4292L57.8901 49.6909L58.9702 46.0234H59.3496L60.416 49.6909L60.6006 50.436L60.7646 49.6567L61.6636 46.0234H62.0942L60.8193 51H60.416L59.2881 47.1069L59.1616 46.6147L59.0386 47.1069L57.8833 51H57.48L56.2085 46.0234H56.6392L57.5483 49.6567Z" fill="black"/>
<path d="M4.31689 52H3.89307V49.6143H1.04932V52H0.628906V47.0234H1.04932V49.2588H3.89307V47.0234H4.31689V52Z" fill="black"/>
</svg>
