<svg width="139" height="68" viewBox="0 0 139 68" fill="none" xmlns="http://www.w3.org/2000/svg">
<line x1="9.72918" y1="34.1656" x2="61.8539" y2="0.579686" stroke="black"/>
<line x1="9.73123" y1="58.1643" x2="46.7312" y2="34.5784" stroke="black"/>
<line x1="84.7268" y1="35.1671" x2="137.727" y2="0.581272" stroke="black"/>
<line x1="85.7292" y1="58.1656" x2="137.854" y2="24.5797" stroke="black"/>
<rect x="9.5" y="34.5" width="76" height="24" stroke="black"/>
<line x1="61" y1="0.5" x2="138" y2="0.5" stroke="black"/>
<line x1="137.5" x2="137.5" y2="25" stroke="black"/>
<path d="M49.84 45.48V46.056H49.256C48.4507 46.056 48.048 46.3013 48.048 46.792C48.048 47.0533 48.1573 47.2373 48.376 47.344C48.5947 47.4507 48.864 47.504 49.184 47.504C49.4827 47.504 49.744 47.4693 49.968 47.4C50.1973 47.3307 50.4 47.2533 50.576 47.168V47.784C50.4107 47.8693 50.2133 47.9413 49.984 48C49.7547 48.0533 49.4747 48.08 49.144 48.08C48.5307 48.08 48.0773 47.9627 47.784 47.728C47.4907 47.488 47.344 47.1893 47.344 46.832C47.344 46.6187 47.3867 46.4453 47.472 46.312C47.5627 46.1733 47.68 46.064 47.824 45.984C47.968 45.8987 48.1253 45.832 48.296 45.784V45.744C48.056 45.6693 47.8613 45.5547 47.712 45.4C47.568 45.24 47.496 45.0293 47.496 44.768C47.496 44.4053 47.648 44.1253 47.952 43.928C48.2613 43.7307 48.6587 43.632 49.144 43.632C49.4533 43.632 49.7173 43.6587 49.936 43.712C50.16 43.7653 50.3787 43.84 50.592 43.936L50.328 44.496C50.152 44.416 49.9707 44.3493 49.784 44.296C49.6027 44.2427 49.3867 44.216 49.136 44.216C48.4907 44.216 48.168 44.4187 48.168 44.824C48.168 45.0587 48.2773 45.2267 48.496 45.328C48.72 45.4293 49.0187 45.48 49.392 45.48H49.84Z" fill="black"/>
<path d="M52.9424 46.3164C52.8604 46.3027 52.7715 46.2959 52.6758 46.2959C52.3203 46.2959 52.0791 46.4473 51.9521 46.75V49H51.4102V45.8301H51.9375L51.9463 46.1963C52.124 45.9131 52.376 45.7715 52.7021 45.7715C52.8076 45.7715 52.8877 45.7852 52.9424 45.8125V46.3164Z" fill="black"/>
<path d="M86.1768 61.1768C86.2744 61.0791 86.2744 60.9209 86.1768 60.8232L84.5858 59.2322C84.4882 59.1346 84.3299 59.1346 84.2322 59.2322C84.1346 59.3299 84.1346 59.4882 84.2322 59.5858L85.6464 61L84.2322 62.4142C84.1346 62.5118 84.1346 62.6701 84.2322 62.7678C84.3299 62.8654 84.4882 62.8654 84.5858 62.7678L86.1768 61.1768ZM9 61.25H86V60.75H9V61.25Z" fill="black"/>
<path d="M8.82322 60.8232C8.72559 60.9209 8.72559 61.0791 8.82322 61.1768L10.4142 62.7678C10.5118 62.8654 10.6701 62.8654 10.7678 62.7678C10.8654 62.6701 10.8654 62.5118 10.7678 62.4142L9.35355 61L10.7678 59.5858C10.8654 59.4882 10.8654 59.3299 10.7678 59.2322C10.6701 59.1346 10.5118 59.1346 10.4142 59.2322L8.82322 60.8232ZM9 61.25L84 61.25V60.75L9 60.75V61.25Z" fill="black"/>
<path d="M48.1562 66C48.1146 65.9167 48.0807 65.7682 48.0547 65.5547C47.7188 65.9036 47.3177 66.0781 46.8516 66.0781C46.4349 66.0781 46.0924 65.9609 45.8242 65.7266C45.5586 65.4896 45.4258 65.1901 45.4258 64.8281C45.4258 64.388 45.5924 64.0469 45.9258 63.8047C46.2617 63.5599 46.7331 63.4375 47.3398 63.4375H48.043V63.1055C48.043 62.8529 47.9674 62.6523 47.8164 62.5039C47.6654 62.3529 47.4427 62.2773 47.1484 62.2773C46.8906 62.2773 46.6745 62.3424 46.5 62.4727C46.3255 62.6029 46.2383 62.7604 46.2383 62.9453H45.5117C45.5117 62.7344 45.5859 62.5312 45.7344 62.3359C45.8854 62.138 46.0885 61.9818 46.3438 61.8672C46.6016 61.7526 46.8841 61.6953 47.1914 61.6953C47.6784 61.6953 48.0599 61.8177 48.3359 62.0625C48.612 62.3047 48.7552 62.6393 48.7656 63.0664V65.0117C48.7656 65.3997 48.8151 65.7083 48.9141 65.9375V66H48.1562ZM46.957 65.4492C47.1836 65.4492 47.3984 65.3906 47.6016 65.2734C47.8047 65.1562 47.9518 65.0039 48.043 64.8164V63.9492H47.4766C46.5911 63.9492 46.1484 64.2083 46.1484 64.7266C46.1484 64.9531 46.224 65.1302 46.375 65.2578C46.526 65.3854 46.7201 65.4492 46.957 65.4492Z" fill="black"/>
<path d="M6.82322 59.1768C6.92085 59.2744 7.07915 59.2744 7.17678 59.1768L8.76777 57.5858C8.8654 57.4882 8.8654 57.3299 8.76777 57.2322C8.67014 57.1346 8.51184 57.1346 8.41421 57.2322L7 58.6464L5.58579 57.2322C5.48816 57.1346 5.32986 57.1346 5.23223 57.2322C5.1346 57.3299 5.1346 57.4882 5.23223 57.5858L6.82322 59.1768ZM6.75 34L6.75 59H7.25L7.25 34H6.75Z" fill="black"/>
<path d="M7.17678 33.8232C7.07915 33.7256 6.92085 33.7256 6.82322 33.8232L5.23223 35.4142C5.1346 35.5118 5.1346 35.6701 5.23223 35.7678C5.32986 35.8654 5.48816 35.8654 5.58579 35.7678L7 34.3536L8.41421 35.7678C8.51184 35.8654 8.67014 35.8654 8.76777 35.7678C8.8654 35.6701 8.8654 35.5118 8.76777 35.4142L7.17678 33.8232ZM6.75 34L6.75 59H7.25L7.25 34H6.75Z" fill="black"/>
<path d="M4.125 45.9336C4.125 46.5794 3.97656 47.099 3.67969 47.4922C3.38281 47.8828 2.98438 48.0781 2.48438 48.0781C1.95052 48.0781 1.53776 47.8893 1.24609 47.5117L1.21094 48H0.546875V42H1.26953V44.2383C1.5612 43.8763 1.96354 43.6953 2.47656 43.6953C2.98958 43.6953 3.39193 43.8893 3.68359 44.2773C3.97786 44.6654 4.125 45.1966 4.125 45.8711V45.9336ZM3.40234 45.8516C3.40234 45.3594 3.30729 44.9792 3.11719 44.7109C2.92708 44.4427 2.65365 44.3086 2.29688 44.3086C1.82031 44.3086 1.47786 44.5299 1.26953 44.9727V46.8008C1.49089 47.2435 1.83594 47.4648 2.30469 47.4648C2.65104 47.4648 2.92057 47.3307 3.11328 47.0625C3.30599 46.7943 3.40234 46.3906 3.40234 45.8516Z" fill="black"/>
</svg>
