<svg width="124" height="61" viewBox="0 0 124 61" fill="none" xmlns="http://www.w3.org/2000/svg">
<rect x="110.5" y="41" width="4" height="11" stroke="black"/>
<path d="M112.5 34.5V41.5" stroke="black"/>
<line x1="112.5" y1="52.5" x2="112.5" y2="59.5" stroke="black"/>
<line y1="60" x2="74" y2="60" stroke="black"/>
<line y1="34" x2="43.2" y2="34" stroke="black"/>
<path d="M116.817 49.1445H119.89V49.5H116.308V49.1821L119.261 44.8823H116.396V44.5234H119.78V44.8242L116.817 49.1445Z" fill="black"/>
<path d="M15.8169 48.6445H18.8896V49H15.3076V48.6821L18.2607 44.3823H15.3965V44.0234H18.7803V44.3242L15.8169 48.6445Z" fill="black"/>
<path d="M121.752 51.2461H123.507V51.5H121.449V47.9453H121.752V51.2461Z" fill="black"/>
<path d="M19.2197 48.6401C19.2197 48.3862 19.2686 48.1576 19.3662 47.9541C19.4655 47.7507 19.6047 47.5928 19.7837 47.4805C19.9644 47.3665 20.1686 47.3096 20.3965 47.3096C20.748 47.3096 21.0329 47.4333 21.251 47.6807C21.4691 47.9264 21.5781 48.2528 21.5781 48.6597V48.7207C21.5781 48.9762 21.5285 49.2065 21.4292 49.4116C21.3315 49.6151 21.1932 49.7721 21.0142 49.8828C20.8351 49.9935 20.6309 50.0488 20.4014 50.0488C20.0514 50.0488 19.7666 49.9259 19.5469 49.6802C19.3288 49.4328 19.2197 49.1056 19.2197 48.6987V48.6401ZM19.5127 48.7207C19.5127 49.0365 19.5941 49.2961 19.7568 49.4995C19.9212 49.7013 20.1361 49.8022 20.4014 49.8022C20.665 49.8022 20.8783 49.7013 21.041 49.4995C21.2054 49.2961 21.2876 49.0283 21.2876 48.6963V48.6401C21.2876 48.4383 21.2502 48.2536 21.1753 48.0859C21.1004 47.9183 20.9954 47.7889 20.8604 47.6978C20.7253 47.605 20.5706 47.5586 20.3965 47.5586C20.1361 47.5586 19.9237 47.6611 19.7593 47.8662C19.5949 48.0697 19.5127 48.3366 19.5127 48.667V48.7207Z" fill="black"/>
<line x1="73.8" y1="60" x2="105.8" y2="60" stroke="black"/>
<circle cx="105" cy="34" r="0.85" stroke="black" stroke-width="0.3"/>
<circle cx="73" cy="34" r="0.85" stroke="black" stroke-width="0.3"/>
<circle cx="44" cy="34" r="0.85" stroke="black" stroke-width="0.3"/>
<circle cx="44" cy="9" r="0.85" stroke="black" stroke-width="0.3"/>
<circle cx="73" cy="9" r="0.85" stroke="black" stroke-width="0.3"/>
<line x1="105.7" y1="34" x2="113" y2="34" stroke="black"/>
<line x1="105.7" y1="60" x2="113" y2="60" stroke="black"/>
<line x1="73.7" y1="34" x2="104.2" y2="34" stroke="black"/>
<path d="M103.978 30.1061C104.036 30.0475 104.036 29.9525 103.978 29.8939L103.023 28.9393C102.965 28.8808 102.87 28.8808 102.811 28.9393C102.753 28.9979 102.753 29.0929 102.811 29.1515L103.66 30L102.811 30.8485C102.753 30.9071 102.753 31.0021 102.811 31.0607C102.87 31.1192 102.965 31.1192 103.023 31.0607L103.978 30.1061ZM75 30.15L103.872 30.15V29.85L75 29.85V30.15Z" fill="black"/>
<path d="M74.0656 29.8939C74.007 29.9525 74.007 30.0475 74.0656 30.1061L75.0202 31.0607C75.0787 31.1192 75.1737 31.1192 75.2323 31.0607C75.2909 31.0021 75.2909 30.9071 75.2323 30.8485L74.3838 30L75.2323 29.1515C75.2909 29.0929 75.2909 28.9979 75.2323 28.9393C75.1737 28.8808 75.0787 28.8808 75.0202 28.9393L74.0656 29.8939ZM74.1716 30.15L103.932 30.15V29.85L74.1716 29.85V30.15Z" fill="black"/>
<path d="M88.3691 25.1167C88.3691 24.5425 88.4967 24.0856 88.752 23.7461C89.0094 23.4043 89.3581 23.2334 89.7979 23.2334C90.2969 23.2334 90.6774 23.4305 90.9395 23.8247V21.75H91.3462V27H90.9634L90.9463 26.5078C90.6842 26.8815 90.2992 27.0684 89.791 27.0684C89.3649 27.0684 89.0208 26.8975 88.7588 26.5557C88.499 26.2116 88.3691 25.7479 88.3691 25.1646V25.1167ZM88.7827 25.1885C88.7827 25.6602 88.8773 26.0327 89.0664 26.3062C89.2555 26.5773 89.5221 26.7129 89.8662 26.7129C90.3698 26.7129 90.7275 26.4907 90.9395 26.0464V24.3101C90.7275 23.8293 90.3721 23.5889 89.873 23.5889C89.529 23.5889 89.2612 23.7244 89.0698 23.9956C88.8784 24.2645 88.7827 24.6621 88.7827 25.1885Z" fill="black"/>
<line x1="44" y1="33.2" x2="44" y2="9.79995" stroke="black"/>
<line x1="73" y1="33.2" x2="73" y2="9.79995" stroke="black"/>
<path d="M40.1061 9.89393C40.0475 9.83536 39.9525 9.83536 39.8939 9.89393L38.9393 10.8485C38.8808 10.9071 38.8808 11.0021 38.9393 11.0607C38.9979 11.1192 39.0929 11.1192 39.1515 11.0607L40 10.2121L40.8485 11.0607C40.9071 11.1192 41.0021 11.1192 41.0607 11.0607C41.1192 11.0021 41.1192 10.9071 41.0607 10.8485L40.1061 9.89393ZM40.15 33V10H39.85V33H40.15Z" fill="black"/>
<path d="M39.8939 33.1061C39.9525 33.1646 40.0475 33.1646 40.1061 33.1061L41.0607 32.1515C41.1192 32.0929 41.1192 31.9979 41.0607 31.9393C41.0021 31.8808 40.9071 31.8808 40.8485 31.9393L40 32.7879L39.1515 31.9393C39.0929 31.8808 38.9979 31.8808 38.9393 31.9393C38.8808 31.9979 38.8808 32.0929 38.9393 32.1515L39.8939 33.1061ZM40.15 33V10H39.85V33H40.15Z" fill="black"/>
<path d="M36.9912 25H36.5811V19.75H36.9912V25Z" fill="black"/>
<path d="M55.0762 3.41553C55.0762 3.74268 55.0192 4.02995 54.9053 4.27734C54.793 4.52474 54.6318 4.71517 54.4219 4.84863C54.2119 4.9821 53.9694 5.04883 53.6943 5.04883C53.2793 5.04883 52.944 4.90072 52.6885 4.60449C52.4329 4.30664 52.3052 3.90544 52.3052 3.40088V3.03467C52.3052 2.71077 52.3621 2.42432 52.4761 2.17529C52.5916 1.92464 52.7544 1.73258 52.9644 1.59912C53.1743 1.46403 53.416 1.39648 53.6895 1.39648C53.9629 1.39648 54.2038 1.4624 54.4121 1.59424C54.6221 1.72607 54.784 1.91243 54.8979 2.15332C55.0119 2.39421 55.0713 2.67334 55.0762 2.99072V3.41553ZM54.7759 3.02979C54.7759 2.60173 54.679 2.26644 54.4854 2.02393C54.2917 1.78141 54.0264 1.66016 53.6895 1.66016C53.359 1.66016 53.0954 1.78223 52.8984 2.02637C52.7031 2.26888 52.6055 2.60824 52.6055 3.04443V3.41553C52.6055 3.83708 52.7031 4.17155 52.8984 4.41895C53.0938 4.66471 53.359 4.7876 53.6943 4.7876C54.0345 4.7876 54.2998 4.66634 54.4902 4.42383C54.6807 4.17969 54.7759 3.84033 54.7759 3.40576V3.02979ZM56.1333 3.55225V5H55.833V1.44531H57.0439C57.4134 1.44531 57.7048 1.53971 57.918 1.72852C58.1328 1.91732 58.2402 2.17692 58.2402 2.50732C58.2402 2.84098 58.1369 3.09896 57.9302 3.28125C57.7251 3.46191 57.4272 3.55225 57.0366 3.55225H56.1333ZM56.1333 3.29834H57.0439C57.3353 3.29834 57.5575 3.22917 57.7104 3.09082C57.8634 2.95247 57.9399 2.7596 57.9399 2.51221C57.9399 2.26644 57.8634 2.07113 57.7104 1.92627C57.5591 1.77979 57.3434 1.70492 57.0635 1.70166H56.1333V3.29834ZM60.877 3.2959H59.2144V4.74609H61.126V5H58.9141V1.44531H61.1138V1.70166H59.2144V3.04199H60.877V3.2959ZM64.4072 5H64.1069L62.0635 1.95801V5H61.7607V1.44531H62.0635L64.1094 4.48975V1.44531H64.4072V5Z" fill="black"/>
</svg>
