<svg width="124" height="61" viewBox="0 0 124 61" fill="none" xmlns="http://www.w3.org/2000/svg">
<rect x="110.5" y="41" width="4" height="11" stroke="black"/>
<path d="M112.5 34.5V41.5" stroke="black"/>
<line x1="112.5" y1="52.5" x2="112.5" y2="59.5" stroke="black"/>
<line y1="60" x2="74" y2="60" stroke="black"/>
<line y1="34" x2="43.2" y2="34" stroke="black"/>
<path d="M116.817 49.1445H119.89V49.5H116.308V49.1821L119.261 44.8823H116.396V44.5234H119.78V44.8242L116.817 49.1445Z" fill="black"/>
<path d="M15.8169 48.6445H18.8896V49H15.3076V48.6821L18.2607 44.3823H15.3965V44.0234H18.7803V44.3242L15.8169 48.6445Z" fill="black"/>
<path d="M121.752 51.2461H123.507V51.5H121.449V47.9453H121.752V51.2461Z" fill="black"/>
<path d="M19.2197 48.6401C19.2197 48.3862 19.2686 48.1576 19.3662 47.9541C19.4655 47.7507 19.6047 47.5928 19.7837 47.4805C19.9644 47.3665 20.1686 47.3096 20.3965 47.3096C20.748 47.3096 21.0329 47.4333 21.251 47.6807C21.4691 47.9264 21.5781 48.2528 21.5781 48.6597V48.7207C21.5781 48.9762 21.5285 49.2065 21.4292 49.4116C21.3315 49.6151 21.1932 49.7721 21.0142 49.8828C20.8351 49.9935 20.6309 50.0488 20.4014 50.0488C20.0514 50.0488 19.7666 49.9259 19.5469 49.6802C19.3288 49.4328 19.2197 49.1056 19.2197 48.6987V48.6401ZM19.5127 48.7207C19.5127 49.0365 19.5941 49.2961 19.7568 49.4995C19.9212 49.7013 20.1361 49.8022 20.4014 49.8022C20.665 49.8022 20.8783 49.7013 21.041 49.4995C21.2054 49.2961 21.2876 49.0283 21.2876 48.6963V48.6401C21.2876 48.4383 21.2502 48.2536 21.1753 48.0859C21.1004 47.9183 20.9954 47.7889 20.8604 47.6978C20.7253 47.605 20.5706 47.5586 20.3965 47.5586C20.1361 47.5586 19.9237 47.6611 19.7593 47.8662C19.5949 48.0697 19.5127 48.3366 19.5127 48.667V48.7207Z" fill="black"/>
<line x1="73.8" y1="60" x2="105.8" y2="60" stroke="black"/>
<circle cx="105" cy="34" r="0.85" stroke="black" stroke-width="0.3"/>
<circle cx="73" cy="34" r="0.85" stroke="black" stroke-width="0.3"/>
<circle cx="44" cy="34" r="0.85" stroke="black" stroke-width="0.3"/>
<circle cx="44" cy="9" r="0.85" stroke="black" stroke-width="0.3"/>
<circle cx="73" cy="9" r="0.85" stroke="black" stroke-width="0.3"/>
<line x1="105.7" y1="34" x2="113" y2="34" stroke="black"/>
<line x1="105.7" y1="60" x2="113" y2="60" stroke="black"/>
<line x1="73.7" y1="34" x2="104.2" y2="34" stroke="black"/>
<path d="M103.978 30.1061C104.036 30.0475 104.036 29.9525 103.978 29.8939L103.023 28.9393C102.965 28.8808 102.87 28.8808 102.811 28.9393C102.753 28.9979 102.753 29.0929 102.811 29.1515L103.66 30L102.811 30.8485C102.753 30.9071 102.753 31.0021 102.811 31.0607C102.87 31.1192 102.965 31.1192 103.023 31.0607L103.978 30.1061ZM75 30.15L103.872 30.15V29.85L75 29.85V30.15Z" fill="black"/>
<path d="M74.0656 29.8939C74.007 29.9525 74.007 30.0475 74.0656 30.1061L75.0202 31.0607C75.0787 31.1192 75.1737 31.1192 75.2323 31.0607C75.2909 31.0021 75.2909 30.9071 75.2323 30.8485L74.3838 30L75.2323 29.1515C75.2909 29.0929 75.2909 28.9979 75.2323 28.9393C75.1737 28.8808 75.0787 28.8808 75.0202 28.9393L74.0656 29.8939ZM74.1716 30.15L103.932 30.15V29.85L74.1716 29.85V30.15Z" fill="black"/>
<path d="M88.3691 25.1167C88.3691 24.5425 88.4967 24.0856 88.752 23.7461C89.0094 23.4043 89.3581 23.2334 89.7979 23.2334C90.2969 23.2334 90.6774 23.4305 90.9395 23.8247V21.75H91.3462V27H90.9634L90.9463 26.5078C90.6842 26.8815 90.2992 27.0684 89.791 27.0684C89.3649 27.0684 89.0208 26.8975 88.7588 26.5557C88.499 26.2116 88.3691 25.7479 88.3691 25.1646V25.1167ZM88.7827 25.1885C88.7827 25.6602 88.8773 26.0327 89.0664 26.3062C89.2555 26.5773 89.5221 26.7129 89.8662 26.7129C90.3698 26.7129 90.7275 26.4907 90.9395 26.0464V24.3101C90.7275 23.8293 90.3721 23.5889 89.873 23.5889C89.529 23.5889 89.2612 23.7244 89.0698 23.9956C88.8784 24.2645 88.7827 24.6621 88.7827 25.1885Z" fill="black"/>
<line x1="44" y1="33.2" x2="44" y2="9.79995" stroke="black"/>
<line x1="73" y1="33.2" x2="73" y2="9.79995" stroke="black"/>
<path d="M40.1061 9.89393C40.0475 9.83536 39.9525 9.83536 39.8939 9.89393L38.9393 10.8485C38.8808 10.9071 38.8808 11.0021 38.9393 11.0607C38.9979 11.1192 39.0929 11.1192 39.1515 11.0607L40 10.2121L40.8485 11.0607C40.9071 11.1192 41.0021 11.1192 41.0607 11.0607C41.1192 11.0021 41.1192 10.9071 41.0607 10.8485L40.1061 9.89393ZM40.15 33V10H39.85V33H40.15Z" fill="black"/>
<path d="M39.8939 33.1061C39.9525 33.1646 40.0475 33.1646 40.1061 33.1061L41.0607 32.1515C41.1192 32.0929 41.1192 31.9979 41.0607 31.9393C41.0021 31.8808 40.9071 31.8808 40.8485 31.9393L40 32.7879L39.1515 31.9393C39.0929 31.8808 38.9979 31.8808 38.9393 31.9393C38.8808 31.9979 38.8808 32.0929 38.9393 32.1515L39.8939 33.1061ZM40.15 33V10H39.85V33H40.15Z" fill="black"/>
<path d="M36.9912 25H36.5811V19.75H36.9912V25Z" fill="black"/>
<line x1="44.8" y1="9" x2="72.2001" y2="9" stroke="black"/>
<path d="M53.4609 4.12598C53.4609 3.92904 53.3918 3.7736 53.2534 3.65967C53.1151 3.54411 52.862 3.43506 52.4941 3.33252C52.1263 3.22835 51.8577 3.11523 51.6885 2.99316C51.4476 2.82064 51.3271 2.5944 51.3271 2.31445C51.3271 2.04264 51.4386 1.8221 51.6616 1.65283C51.8862 1.48193 52.1727 1.39648 52.521 1.39648C52.757 1.39648 52.9678 1.44206 53.1533 1.5332C53.3405 1.62435 53.4854 1.7513 53.5879 1.91406C53.6904 2.07682 53.7417 2.2583 53.7417 2.4585H53.439C53.439 2.21598 53.356 2.02148 53.1899 1.875C53.0239 1.72689 52.8009 1.65283 52.521 1.65283C52.2492 1.65283 52.0327 1.71387 51.8716 1.83594C51.7104 1.95638 51.6299 2.11426 51.6299 2.30957C51.6299 2.49023 51.7023 2.63753 51.8472 2.75146C51.992 2.8654 52.224 2.96631 52.543 3.0542C52.862 3.14046 53.1037 3.23079 53.2681 3.3252C53.4325 3.41797 53.5562 3.52946 53.6392 3.65967C53.7222 3.78988 53.7637 3.94368 53.7637 4.12109C53.7637 4.40104 53.6514 4.62565 53.4268 4.79492C53.2038 4.96419 52.9092 5.04883 52.543 5.04883C52.2923 5.04883 52.062 5.00407 51.8521 4.91455C51.6437 4.82503 51.485 4.69971 51.376 4.53857C51.2686 4.37744 51.2148 4.19271 51.2148 3.98438H51.5151C51.5151 4.23503 51.6087 4.43278 51.7959 4.57764C51.9831 4.72249 52.2321 4.79492 52.543 4.79492C52.8197 4.79492 53.0418 4.73389 53.2095 4.61182C53.3771 4.48975 53.4609 4.3278 53.4609 4.12598ZM57.0474 5H56.7446V3.2959H54.7134V5H54.4131V1.44531H54.7134V3.04199H56.7446V1.44531H57.0474V5ZM60.5801 3.41553C60.5801 3.74268 60.5231 4.02995 60.4092 4.27734C60.2969 4.52474 60.1357 4.71517 59.9258 4.84863C59.7158 4.9821 59.4733 5.04883 59.1982 5.04883C58.7832 5.04883 58.4479 4.90072 58.1924 4.60449C57.9368 4.30664 57.8091 3.90544 57.8091 3.40088V3.03467C57.8091 2.71077 57.866 2.42432 57.98 2.17529C58.0955 1.92464 58.2583 1.73258 58.4683 1.59912C58.6782 1.46403 58.9199 1.39648 59.1934 1.39648C59.4668 1.39648 59.7077 1.4624 59.916 1.59424C60.126 1.72607 60.2879 1.91243 60.4019 2.15332C60.5158 2.39421 60.5752 2.67334 60.5801 2.99072V3.41553ZM60.2798 3.02979C60.2798 2.60173 60.1829 2.26644 59.9893 2.02393C59.7956 1.78141 59.5303 1.66016 59.1934 1.66016C58.863 1.66016 58.5993 1.78223 58.4023 2.02637C58.207 2.26888 58.1094 2.60824 58.1094 3.04443V3.41553C58.1094 3.83708 58.207 4.17155 58.4023 4.41895C58.5977 4.66471 58.863 4.7876 59.1982 4.7876C59.5384 4.7876 59.8037 4.66634 59.9941 4.42383C60.1846 4.17969 60.2798 3.84033 60.2798 3.40576V3.02979ZM62.665 3.52051H61.6323V5H61.3296V1.44531H62.4844C62.8636 1.44531 63.1598 1.53727 63.373 1.72119C63.5863 1.90511 63.6929 2.16227 63.6929 2.49268C63.6929 2.72054 63.6261 2.92155 63.4927 3.0957C63.3592 3.26986 63.1802 3.3903 62.9556 3.45703L63.8442 4.96826V5H63.5244L62.665 3.52051ZM61.6323 3.26416H62.5527C62.805 3.26416 63.0076 3.19255 63.1606 3.04932C63.3136 2.90609 63.3901 2.72054 63.3901 2.49268C63.3901 2.24202 63.3104 2.04753 63.1509 1.90918C62.9914 1.77083 62.7676 1.70166 62.4795 1.70166H61.6323V3.26416ZM66.7275 1.70166H65.5093V5H65.209V1.70166H63.9932V1.44531H66.7275V1.70166Z" fill="black"/>
</svg>
