<svg width="124" height="84" viewBox="0 0 124 84" fill="none" xmlns="http://www.w3.org/2000/svg">
<rect x="110.5" y="20" width="4" height="11" stroke="black"/>
<path d="M112.5 13.5V20.5" stroke="black"/>
<line x1="112.5" y1="31.5" x2="112.5" y2="38.5" stroke="black"/>
<line y1="39" x2="34" y2="39" stroke="black"/>
<path d="M116.817 28.1445H119.89V28.5H116.308V28.1821L119.261 23.8823H116.396V23.5234H119.78V23.8242L116.817 28.1445Z" fill="black"/>
<path d="M15.8169 27.6445H18.8896V28H15.3076V27.6821L18.2607 23.3823H15.3965V23.0234H18.7803V23.3242L15.8169 27.6445Z" fill="black"/>
<path d="M121.752 30.2461H123.507V30.5H121.449V26.9453H121.752V30.2461Z" fill="black"/>
<path d="M19.2197 27.6401C19.2197 27.3862 19.2686 27.1576 19.3662 26.9541C19.4655 26.7507 19.6047 26.5928 19.7837 26.4805C19.9644 26.3665 20.1686 26.3096 20.3965 26.3096C20.748 26.3096 21.0329 26.4333 21.251 26.6807C21.4691 26.9264 21.5781 27.2528 21.5781 27.6597V27.7207C21.5781 27.9762 21.5285 28.2065 21.4292 28.4116C21.3315 28.6151 21.1932 28.7721 21.0142 28.8828C20.8351 28.9935 20.6309 29.0488 20.4014 29.0488C20.0514 29.0488 19.7666 28.9259 19.5469 28.6802C19.3288 28.4328 19.2197 28.1056 19.2197 27.6987V27.6401ZM19.5127 27.7207C19.5127 28.0365 19.5941 28.2961 19.7568 28.4995C19.9212 28.7013 20.1361 28.8022 20.4014 28.8022C20.665 28.8022 20.8783 28.7013 21.041 28.4995C21.2054 28.2961 21.2876 28.0283 21.2876 27.6963V27.6401C21.2876 27.4383 21.2502 27.2536 21.1753 27.0859C21.1004 26.9183 20.9954 26.7889 20.8604 26.6978C20.7253 26.605 20.5706 26.5586 20.3965 26.5586C20.1361 26.5586 19.9237 26.6611 19.7593 26.8662C19.5949 27.0697 19.5127 27.3366 19.5127 27.667V27.7207Z" fill="black"/>
<line y1="39" x2="72.2" y2="39" stroke="black"/>
<line y1="13" x2="72.2" y2="13" stroke="black"/>
<line x1="73.8" y1="39" x2="104.3" y2="39" stroke="black"/>
<line x1="72.2976" y1="13.5018" x2="18.2976" y2="53.5018" stroke="black"/>
<line x1="72.2976" y1="39.5018" x2="18.2976" y2="79.5018" stroke="black"/>
<circle cx="105" cy="13" r="0.85" stroke="black" stroke-width="0.3"/>
<circle cx="105" cy="39" r="0.85" stroke="black" stroke-width="0.3"/>
<circle cx="73" cy="39" r="0.85" stroke="black" stroke-width="0.3"/>
<circle cx="17.7" cy="80" r="0.85" stroke="black" stroke-width="0.3"/>
<circle cx="17.7" cy="54" r="0.85" stroke="black" stroke-width="0.3"/>
<circle cx="73" cy="13" r="0.85" stroke="black" stroke-width="0.3"/>
<line x1="105.7" y1="13" x2="113" y2="13" stroke="black"/>
<line x1="105.7" y1="39" x2="113" y2="39" stroke="black"/>
<line x1="73.7" y1="13" x2="104.2" y2="13" stroke="black"/>
<path d="M104.106 9.10607C104.165 9.04749 104.165 8.95251 104.106 8.89393L103.151 7.93934C103.093 7.88076 102.998 7.88076 102.939 7.93934C102.881 7.99792 102.881 8.09289 102.939 8.15147L103.788 9L102.939 9.84853C102.881 9.90711 102.881 10.0021 102.939 10.0607C102.998 10.1192 103.093 10.1192 103.151 10.0607L104.106 9.10607ZM75 9.15L104 9.15V8.85L75 8.85V9.15Z" fill="black"/>
<path d="M74.0343 8.89393C73.9757 8.95251 73.9757 9.04749 74.0343 9.10607L74.9889 10.0607C75.0475 10.1192 75.1425 10.1192 75.201 10.0607C75.2596 10.0021 75.2596 9.90711 75.201 9.84853L74.3525 9L75.201 8.15147C75.2596 8.09289 75.2596 7.99792 75.201 7.93934C75.1425 7.88076 75.0475 7.88076 74.9889 7.93934L74.0343 8.89393ZM74.1404 9.15L103 9.15V8.85L74.1404 8.85V9.15Z" fill="black"/>
<path d="M88.3691 4.1167C88.3691 3.54248 88.4967 3.08561 88.752 2.74609C89.0094 2.4043 89.3581 2.2334 89.7979 2.2334C90.2969 2.2334 90.6774 2.4305 90.9395 2.82471V0.75H91.3462V6H90.9634L90.9463 5.50781C90.6842 5.88151 90.2992 6.06836 89.791 6.06836C89.3649 6.06836 89.0208 5.89746 88.7588 5.55566C88.499 5.21159 88.3691 4.74788 88.3691 4.16455V4.1167ZM88.7827 4.18848C88.7827 4.66016 88.8773 5.03271 89.0664 5.30615C89.2555 5.57731 89.5221 5.71289 89.8662 5.71289C90.3698 5.71289 90.7275 5.49072 90.9395 5.04639V3.31006C90.7275 2.82926 90.3721 2.58887 89.873 2.58887C89.529 2.58887 89.2612 2.72445 89.0698 2.99561C88.8784 3.26449 88.7827 3.66211 88.7827 4.18848Z" fill="black"/>
<path d="M53.9912 68H53.5811V62.75H53.9912V68Z" fill="black"/>
<path d="M19.8517 83.0664C19.8395 83.1483 19.896 83.2246 19.9779 83.2368L21.3132 83.4357C21.3952 83.4479 21.4715 83.3913 21.4837 83.3094C21.4959 83.2275 21.4393 83.1511 21.3574 83.1389L20.1705 82.9622L20.3472 81.7753C20.3594 81.6933 20.3029 81.617 20.221 81.6048C20.139 81.5926 20.0627 81.6491 20.0505 81.7311L19.8517 83.0664ZM74.0279 42.8795L19.9108 82.9679L20.0893 83.209L74.2065 43.1205L74.0279 42.8795Z" fill="black"/>
<path d="M74.2656 43.0221C74.2778 42.9402 74.2212 42.8638 74.1393 42.8516L72.804 42.6528C72.7221 42.6406 72.6457 42.6971 72.6335 42.7791C72.6213 42.861 72.6779 42.9373 72.7598 42.9495L73.9467 43.1263L73.77 44.3132C73.7578 44.3951 73.8143 44.4714 73.8963 44.4836C73.9782 44.4958 74.0545 44.4393 74.0667 44.3574L74.2656 43.0221ZM74.0279 42.8795L19.9108 82.9679L20.0893 83.209L74.2065 43.1205L74.0279 42.8795Z" fill="black"/>
<path d="M2.46094 67.126C2.46094 66.929 2.39176 66.7736 2.25342 66.6597C2.11507 66.5441 1.86198 66.4351 1.49414 66.3325C1.1263 66.2284 0.857747 66.1152 0.688477 65.9932C0.447591 65.8206 0.327148 65.5944 0.327148 65.3145C0.327148 65.0426 0.438639 64.8221 0.661621 64.6528C0.88623 64.4819 1.17269 64.3965 1.521 64.3965C1.757 64.3965 1.96777 64.4421 2.15332 64.5332C2.34049 64.6243 2.48535 64.7513 2.58789 64.9141C2.69043 65.0768 2.7417 65.2583 2.7417 65.4585H2.43896C2.43896 65.216 2.35596 65.0215 2.18994 64.875C2.02393 64.7269 1.80094 64.6528 1.521 64.6528C1.24919 64.6528 1.03271 64.7139 0.871582 64.8359C0.710449 64.9564 0.629883 65.1143 0.629883 65.3096C0.629883 65.4902 0.702311 65.6375 0.847168 65.7515C0.992025 65.8654 1.22396 65.9663 1.54297 66.0542C1.86198 66.1405 2.10368 66.2308 2.26807 66.3252C2.43245 66.418 2.55615 66.5295 2.63916 66.6597C2.72217 66.7899 2.76367 66.9437 2.76367 67.1211C2.76367 67.401 2.65137 67.6257 2.42676 67.7949C2.20378 67.9642 1.90918 68.0488 1.54297 68.0488C1.29232 68.0488 1.06201 68.0041 0.852051 67.9146C0.643717 67.825 0.485026 67.6997 0.375977 67.5386C0.268555 67.3774 0.214844 67.1927 0.214844 66.9844H0.515137C0.515137 67.235 0.608724 67.4328 0.795898 67.5776C0.983073 67.7225 1.2321 67.7949 1.54297 67.7949C1.81966 67.7949 2.04183 67.7339 2.20947 67.6118C2.37712 67.4897 2.46094 67.3278 2.46094 67.126ZM6.04736 68H5.74463V66.2959H3.71338V68H3.41309V64.4453H3.71338V66.042H5.74463V64.4453H6.04736V68ZM9.58008 66.4155C9.58008 66.7427 9.52311 67.0299 9.40918 67.2773C9.29688 67.5247 9.13574 67.7152 8.92578 67.8486C8.71582 67.9821 8.47331 68.0488 8.19824 68.0488C7.7832 68.0488 7.44792 67.9007 7.19238 67.6045C6.93685 67.3066 6.80908 66.9054 6.80908 66.4009V66.0347C6.80908 65.7108 6.86605 65.4243 6.97998 65.1753C7.09554 64.9246 7.2583 64.7326 7.46826 64.5991C7.67822 64.464 7.91992 64.3965 8.19336 64.3965C8.4668 64.3965 8.70768 64.4624 8.91602 64.5942C9.12598 64.7261 9.28792 64.9124 9.40186 65.1533C9.51579 65.3942 9.5752 65.6733 9.58008 65.9907V66.4155ZM9.27979 66.0298C9.27979 65.6017 9.18294 65.2664 8.98926 65.0239C8.79557 64.7814 8.53027 64.6602 8.19336 64.6602C7.86296 64.6602 7.59928 64.7822 7.40234 65.0264C7.20703 65.2689 7.10938 65.6082 7.10938 66.0444V66.4155C7.10938 66.8371 7.20703 67.1715 7.40234 67.4189C7.59766 67.6647 7.86296 67.7876 8.19824 67.7876C8.53841 67.7876 8.80371 67.6663 8.99414 67.4238C9.18457 67.1797 9.27979 66.8403 9.27979 66.4058V66.0298ZM11.665 66.5205H10.6323V68H10.3296V64.4453H11.4844C11.8636 64.4453 12.1598 64.5373 12.373 64.7212C12.5863 64.9051 12.6929 65.1623 12.6929 65.4927C12.6929 65.7205 12.6261 65.9215 12.4927 66.0957C12.3592 66.2699 12.1802 66.3903 11.9556 66.457L12.8442 67.9683V68H12.5244L11.665 66.5205ZM10.6323 66.2642H11.5527C11.805 66.2642 12.0076 66.1925 12.1606 66.0493C12.3136 65.9061 12.3901 65.7205 12.3901 65.4927C12.3901 65.242 12.3104 65.0475 12.1509 64.9092C11.9914 64.7708 11.7676 64.7017 11.4795 64.7017H10.6323V66.2642ZM15.7275 64.7017H14.5093V68H14.209V64.7017H12.9932V64.4453H15.7275V64.7017Z" fill="black"/>
<line x1="17.7" y1="54.8" x2="17.7" y2="79.2001" stroke="black"/>
</svg>
