<svg width="124" height="84" viewBox="0 0 124 84" fill="none" xmlns="http://www.w3.org/2000/svg">
<rect x="110.5" y="20" width="4" height="11" stroke="black"/>
<path d="M112.5 13.5V20.5" stroke="black"/>
<line x1="112.5" y1="31.5" x2="112.5" y2="38.5" stroke="black"/>
<line y1="39" x2="34" y2="39" stroke="black"/>
<path d="M116.817 28.1445H119.89V28.5H116.308V28.1821L119.261 23.8823H116.396V23.5234H119.78V23.8242L116.817 28.1445Z" fill="black"/>
<path d="M15.8169 27.6445H18.8896V28H15.3076V27.6821L18.2607 23.3823H15.3965V23.0234H18.7803V23.3242L15.8169 27.6445Z" fill="black"/>
<path d="M121.752 30.2461H123.507V30.5H121.449V26.9453H121.752V30.2461Z" fill="black"/>
<path d="M19.2197 27.6401C19.2197 27.3862 19.2686 27.1576 19.3662 26.9541C19.4655 26.7507 19.6047 26.5928 19.7837 26.4805C19.9644 26.3665 20.1686 26.3096 20.3965 26.3096C20.748 26.3096 21.0329 26.4333 21.251 26.6807C21.4691 26.9264 21.5781 27.2528 21.5781 27.6597V27.7207C21.5781 27.9762 21.5285 28.2065 21.4292 28.4116C21.3315 28.6151 21.1932 28.7721 21.0142 28.8828C20.8351 28.9935 20.6309 29.0488 20.4014 29.0488C20.0514 29.0488 19.7666 28.9259 19.5469 28.6802C19.3288 28.4328 19.2197 28.1056 19.2197 27.6987V27.6401ZM19.5127 27.7207C19.5127 28.0365 19.5941 28.2961 19.7568 28.4995C19.9212 28.7013 20.1361 28.8022 20.4014 28.8022C20.665 28.8022 20.8783 28.7013 21.041 28.4995C21.2054 28.2961 21.2876 28.0283 21.2876 27.6963V27.6401C21.2876 27.4383 21.2502 27.2536 21.1753 27.0859C21.1004 26.9183 20.9954 26.7889 20.8604 26.6978C20.7253 26.605 20.5706 26.5586 20.3965 26.5586C20.1361 26.5586 19.9237 26.6611 19.7593 26.8662C19.5949 27.0697 19.5127 27.3366 19.5127 27.667V27.7207Z" fill="black"/>
<line y1="39" x2="72.2" y2="39" stroke="black"/>
<line y1="13" x2="72.2" y2="13" stroke="black"/>
<line x1="73.8" y1="39" x2="104.3" y2="39" stroke="black"/>
<line x1="72.2976" y1="13.5018" x2="18.2976" y2="53.5018" stroke="black"/>
<line x1="72.2976" y1="39.5018" x2="18.2976" y2="79.5018" stroke="black"/>
<circle cx="105" cy="13" r="0.85" stroke="black" stroke-width="0.3"/>
<circle cx="105" cy="39" r="0.85" stroke="black" stroke-width="0.3"/>
<circle cx="73" cy="39" r="0.85" stroke="black" stroke-width="0.3"/>
<circle cx="17.7" cy="80" r="0.85" stroke="black" stroke-width="0.3"/>
<circle cx="17.7" cy="54" r="0.85" stroke="black" stroke-width="0.3"/>
<circle cx="73" cy="13" r="0.85" stroke="black" stroke-width="0.3"/>
<line x1="105.7" y1="13" x2="113" y2="13" stroke="black"/>
<line x1="105.7" y1="39" x2="113" y2="39" stroke="black"/>
<line x1="73.7" y1="13" x2="104.2" y2="13" stroke="black"/>
<path d="M104.106 9.10607C104.165 9.04749 104.165 8.95251 104.106 8.89393L103.151 7.93934C103.093 7.88076 102.998 7.88076 102.939 7.93934C102.881 7.99792 102.881 8.09289 102.939 8.15147L103.788 9L102.939 9.84853C102.881 9.90711 102.881 10.0021 102.939 10.0607C102.998 10.1192 103.093 10.1192 103.151 10.0607L104.106 9.10607ZM75 9.15L104 9.15V8.85L75 8.85V9.15Z" fill="black"/>
<path d="M74.0473 8.89393C73.9887 8.95251 73.9887 9.04749 74.0473 9.10607L75.0018 10.0607C75.0604 10.1192 75.1554 10.1192 75.214 10.0607C75.2726 10.0021 75.2726 9.90711 75.214 9.84853L74.3655 9L75.214 8.15147C75.2726 8.09289 75.2726 7.99792 75.214 7.93934C75.1554 7.88076 75.0604 7.88076 75.0018 7.93934L74.0473 8.89393ZM74.1533 9.15L102.001 9.15V8.85L74.1533 8.85V9.15Z" fill="black"/>
<path d="M88.3691 4.1167C88.3691 3.54248 88.4967 3.08561 88.752 2.74609C89.0094 2.4043 89.3581 2.2334 89.7979 2.2334C90.2969 2.2334 90.6774 2.4305 90.9395 2.82471V0.75H91.3462V6H90.9634L90.9463 5.50781C90.6842 5.88151 90.2992 6.06836 89.791 6.06836C89.3649 6.06836 89.0208 5.89746 88.7588 5.55566C88.499 5.21159 88.3691 4.74788 88.3691 4.16455V4.1167ZM88.7827 4.18848C88.7827 4.66016 88.8773 5.03271 89.0664 5.30615C89.2555 5.57731 89.5221 5.71289 89.8662 5.71289C90.3698 5.71289 90.7275 5.49072 90.9395 5.04639V3.31006C90.7275 2.82926 90.3721 2.58887 89.873 2.58887C89.529 2.58887 89.2612 2.72445 89.0698 2.99561C88.8784 3.26449 88.7827 3.66211 88.7827 4.18848Z" fill="black"/>
<path d="M53.9912 68H53.5811V62.75H53.9912V68Z" fill="black"/>
<path d="M19.8517 83.0664C19.8395 83.1483 19.896 83.2246 19.9779 83.2368L21.3132 83.4357C21.3952 83.4479 21.4715 83.3913 21.4837 83.3094C21.4959 83.2275 21.4393 83.1511 21.3574 83.1389L20.1705 82.9622L20.3472 81.7753C20.3594 81.6933 20.3029 81.617 20.221 81.6048C20.139 81.5926 20.0627 81.6491 20.0505 81.7311L19.8517 83.0664ZM74.0279 42.8795L19.9108 82.9679L20.0893 83.209L74.2065 43.1205L74.0279 42.8795Z" fill="black"/>
<path d="M74.2656 43.0221C74.2778 42.9402 74.2212 42.8638 74.1393 42.8516L72.804 42.6528C72.7221 42.6406 72.6457 42.6971 72.6335 42.7791C72.6213 42.861 72.6779 42.9373 72.7598 42.9495L73.9467 43.1263L73.77 44.3132C73.7578 44.3951 73.8143 44.4714 73.8963 44.4836C73.9782 44.4958 74.0545 44.4393 74.0667 44.3574L74.2656 43.0221ZM74.0279 42.8795L19.9108 82.9679L20.0893 83.209L74.2065 43.1205L74.0279 42.8795Z" fill="black"/>
<path d="M3.07617 66.4155C3.07617 66.7427 3.01921 67.0299 2.90527 67.2773C2.79297 67.5247 2.63184 67.7152 2.42188 67.8486C2.21191 67.9821 1.9694 68.0488 1.69434 68.0488C1.2793 68.0488 0.94401 67.9007 0.688477 67.6045C0.432943 67.3066 0.305176 66.9054 0.305176 66.4009V66.0347C0.305176 65.7108 0.362142 65.4243 0.476074 65.1753C0.591634 64.9246 0.754395 64.7326 0.964355 64.5991C1.17432 64.464 1.41602 64.3965 1.68945 64.3965C1.96289 64.3965 2.20378 64.4624 2.41211 64.5942C2.62207 64.7261 2.78402 64.9124 2.89795 65.1533C3.01188 65.3942 3.07129 65.6733 3.07617 65.9907V66.4155ZM2.77588 66.0298C2.77588 65.6017 2.67904 65.2664 2.48535 65.0239C2.29167 64.7814 2.02637 64.6602 1.68945 64.6602C1.35905 64.6602 1.09538 64.7822 0.898438 65.0264C0.703125 65.2689 0.605469 65.6082 0.605469 66.0444V66.4155C0.605469 66.8371 0.703125 67.1715 0.898438 67.4189C1.09375 67.6647 1.35905 67.7876 1.69434 67.7876C2.03451 67.7876 2.2998 67.6663 2.49023 67.4238C2.68066 67.1797 2.77588 66.8403 2.77588 66.4058V66.0298ZM4.1333 66.5522V68H3.83301V64.4453H5.04395C5.41341 64.4453 5.70475 64.5397 5.91797 64.7285C6.13281 64.9173 6.24023 65.1769 6.24023 65.5073C6.24023 65.841 6.13688 66.099 5.93018 66.2812C5.7251 66.4619 5.42725 66.5522 5.03662 66.5522H4.1333ZM4.1333 66.2983H5.04395C5.33529 66.2983 5.55745 66.2292 5.71045 66.0908C5.86344 65.9525 5.93994 65.7596 5.93994 65.5122C5.93994 65.2664 5.86344 65.0711 5.71045 64.9263C5.55908 64.7798 5.34342 64.7049 5.06348 64.7017H4.1333V66.2983ZM8.87695 66.2959H7.21436V67.7461H9.12598V68H6.91406V64.4453H9.11377V64.7017H7.21436V66.042H8.87695V66.2959ZM12.4072 68H12.1069L10.0635 64.958V68H9.76074V64.4453H10.0635L12.1094 67.4897V64.4453H12.4072V68Z" fill="black"/>
</svg>
