<svg width="258" height="158" viewBox="0 0 258 158" fill="none" xmlns="http://www.w3.org/2000/svg">
<rect x="110.5" y="20" width="4" height="11" stroke="black"/>
<path d="M112.5 13.5V20.5" stroke="black"/>
<line x1="112.5" y1="31.5" x2="112.5" y2="38.5" stroke="black"/>
<line y1="39" x2="34" y2="39" stroke="black"/>
<path d="M116.817 28.1445H119.89V28.5H116.308V28.1821L119.261 23.8823H116.396V23.5234H119.78V23.8242L116.817 28.1445Z" fill="black"/>
<path d="M15.8169 27.6445H18.8896V28H15.3076V27.6821L18.2607 23.3823H15.3965V23.0234H18.7803V23.3242L15.8169 27.6445Z" fill="black"/>
<path d="M121.752 30.2461H123.507V30.5H121.449V26.9453H121.752V30.2461Z" fill="black"/>
<path d="M19.2197 27.6401C19.2197 27.3862 19.2686 27.1576 19.3662 26.9541C19.4655 26.7507 19.6047 26.5928 19.7837 26.4805C19.9644 26.3665 20.1686 26.3096 20.3965 26.3096C20.748 26.3096 21.0329 26.4333 21.251 26.6807C21.4691 26.9264 21.5781 27.2528 21.5781 27.6597V27.7207C21.5781 27.9762 21.5285 28.2065 21.4292 28.4116C21.3315 28.6151 21.1932 28.7721 21.0142 28.8828C20.8351 28.9935 20.6309 29.0488 20.4014 29.0488C20.0514 29.0488 19.7666 28.9259 19.5469 28.6802C19.3288 28.4328 19.2197 28.1056 19.2197 27.6987V27.6401ZM19.5127 27.7207C19.5127 28.0365 19.5941 28.2961 19.7568 28.4995C19.9212 28.7013 20.1361 28.8022 20.4014 28.8022C20.665 28.8022 20.8783 28.7013 21.041 28.4995C21.2054 28.2961 21.2876 28.0283 21.2876 27.6963V27.6401C21.2876 27.4383 21.2502 27.2536 21.1753 27.0859C21.1004 26.9183 20.9954 26.7889 20.8604 26.6978C20.7253 26.605 20.5706 26.5586 20.3965 26.5586C20.1361 26.5586 19.9237 26.6611 19.7593 26.8662C19.5949 27.0697 19.5127 27.3366 19.5127 27.667V27.7207Z" fill="black"/>
<line y1="39" x2="72.2" y2="39" stroke="black"/>
<line y1="13" x2="72.2" y2="13" stroke="black"/>
<line x1="73.8" y1="39" x2="104.3" y2="39" stroke="black"/>
<line x1="72.2976" y1="13.5018" x2="18.2976" y2="53.5018" stroke="black"/>
<line x1="72.2976" y1="39.5018" x2="18.2976" y2="79.5018" stroke="black"/>
<circle cx="105" cy="13" r="0.85" stroke="black" stroke-width="0.3"/>
<circle cx="105" cy="39" r="0.85" stroke="black" stroke-width="0.3"/>
<circle cx="73" cy="39" r="0.85" stroke="black" stroke-width="0.3"/>
<circle cx="17.7" cy="80" r="0.85" stroke="black" stroke-width="0.3"/>
<circle cx="17.7" cy="54" r="0.85" stroke="black" stroke-width="0.3"/>
<circle cx="73" cy="13" r="0.85" stroke="black" stroke-width="0.3"/>
<line x1="105.7" y1="13" x2="113" y2="13" stroke="black"/>
<line x1="105.7" y1="39" x2="113" y2="39" stroke="black"/>
<line x1="73.7" y1="13" x2="104.2" y2="13" stroke="black"/>
<path d="M104.106 9.10607C104.165 9.04749 104.165 8.95251 104.106 8.89393L103.151 7.93934C103.093 7.88076 102.998 7.88076 102.939 7.93934C102.881 7.99792 102.881 8.09289 102.939 8.15147L103.788 9L102.939 9.84853C102.881 9.90711 102.881 10.0021 102.939 10.0607C102.998 10.1192 103.093 10.1192 103.151 10.0607L104.106 9.10607ZM75 9.15L104 9.15V8.85L75 8.85V9.15Z" fill="black"/>
<path d="M74.0473 8.89393C73.9887 8.95251 73.9887 9.04749 74.0473 9.10607L75.0018 10.0607C75.0604 10.1192 75.1554 10.1192 75.214 10.0607C75.2726 10.0021 75.2726 9.90711 75.214 9.84853L74.3655 9L75.214 8.15147C75.2726 8.09289 75.2726 7.99792 75.214 7.93934C75.1554 7.88076 75.0604 7.88076 75.0018 7.93934L74.0473 8.89393ZM74.1533 9.15L102.001 9.15V8.85L74.1533 8.85V9.15Z" fill="black"/>
<path d="M88.3691 4.1167C88.3691 3.54248 88.4967 3.08561 88.752 2.74609C89.0094 2.4043 89.3581 2.2334 89.7979 2.2334C90.2969 2.2334 90.6774 2.4305 90.9395 2.82471V0.75H91.3462V6H90.9634L90.9463 5.50781C90.6842 5.88151 90.2992 6.06836 89.791 6.06836C89.3649 6.06836 89.0208 5.89746 88.7588 5.55566C88.499 5.21159 88.3691 4.74788 88.3691 4.16455V4.1167ZM88.7827 4.18848C88.7827 4.66016 88.8773 5.03271 89.0664 5.30615C89.2555 5.57731 89.5221 5.71289 89.8662 5.71289C90.3698 5.71289 90.7275 5.49072 90.9395 5.04639V3.31006C90.7275 2.82926 90.3721 2.58887 89.873 2.58887C89.529 2.58887 89.2612 2.72445 89.0698 2.99561C88.8784 3.26449 88.7827 3.66211 88.7827 4.18848Z" fill="black"/>
<path d="M53.9912 68H53.5811V62.75H53.9912V68Z" fill="black"/>
<path d="M19.8517 83.0664C19.8395 83.1483 19.896 83.2246 19.9779 83.2368L21.3132 83.4357C21.3952 83.4479 21.4715 83.3913 21.4837 83.3094C21.4959 83.2275 21.4393 83.1511 21.3574 83.1389L20.1705 82.9622L20.3472 81.7753C20.3594 81.6933 20.3029 81.617 20.221 81.6048C20.139 81.5926 20.0627 81.6491 20.0505 81.7311L19.8517 83.0664ZM74.0279 42.8795L19.9108 82.9679L20.0893 83.209L74.2065 43.1205L74.0279 42.8795Z" fill="black"/>
<path d="M74.2656 43.0221C74.2778 42.9402 74.2212 42.8638 74.1393 42.8516L72.804 42.6528C72.7221 42.6406 72.6457 42.6971 72.6335 42.7791C72.6213 42.861 72.6779 42.9373 72.7598 42.9495L73.9467 43.1263L73.77 44.3132C73.7578 44.3951 73.8143 44.4714 73.8963 44.4836C73.9782 44.4958 74.0545 44.4393 74.0667 44.3574L74.2656 43.0221ZM74.0279 42.8795L19.9108 82.9679L20.0893 83.209L74.2065 43.1205L74.0279 42.8795Z" fill="black"/>
<path d="M3.07617 66.4155C3.07617 66.7427 3.01921 67.0299 2.90527 67.2773C2.79297 67.5247 2.63184 67.7152 2.42188 67.8486C2.21191 67.9821 1.9694 68.0488 1.69434 68.0488C1.2793 68.0488 0.94401 67.9007 0.688477 67.6045C0.432943 67.3066 0.305176 66.9054 0.305176 66.4009V66.0347C0.305176 65.7108 0.362142 65.4243 0.476074 65.1753C0.591634 64.9246 0.754395 64.7326 0.964355 64.5991C1.17432 64.464 1.41602 64.3965 1.68945 64.3965C1.96289 64.3965 2.20378 64.4624 2.41211 64.5942C2.62207 64.7261 2.78402 64.9124 2.89795 65.1533C3.01188 65.3942 3.07129 65.6733 3.07617 65.9907V66.4155ZM2.77588 66.0298C2.77588 65.6017 2.67904 65.2664 2.48535 65.0239C2.29167 64.7814 2.02637 64.6602 1.68945 64.6602C1.35905 64.6602 1.09538 64.7822 0.898438 65.0264C0.703125 65.2689 0.605469 65.6082 0.605469 66.0444V66.4155C0.605469 66.8371 0.703125 67.1715 0.898438 67.4189C1.09375 67.6647 1.35905 67.7876 1.69434 67.7876C2.03451 67.7876 2.2998 67.6663 2.49023 67.4238C2.68066 67.1797 2.77588 66.8403 2.77588 66.4058V66.0298ZM4.1333 66.5522V68H3.83301V64.4453H5.04395C5.41341 64.4453 5.70475 64.5397 5.91797 64.7285C6.13281 64.9173 6.24023 65.1769 6.24023 65.5073C6.24023 65.841 6.13688 66.099 5.93018 66.2812C5.7251 66.4619 5.42725 66.5522 5.03662 66.5522H4.1333ZM4.1333 66.2983H5.04395C5.33529 66.2983 5.55745 66.2292 5.71045 66.0908C5.86344 65.9525 5.93994 65.7596 5.93994 65.5122C5.93994 65.2664 5.86344 65.0711 5.71045 64.9263C5.55908 64.7798 5.34342 64.7049 5.06348 64.7017H4.1333V66.2983ZM8.87695 66.2959H7.21436V67.7461H9.12598V68H6.91406V64.4453H9.11377V64.7017H7.21436V66.042H8.87695V66.2959ZM12.4072 68H12.1069L10.0635 64.958V68H9.76074V64.4453H10.0635L12.1094 67.4897V64.4453H12.4072V68Z" fill="black"/>
<rect x="244.5" y="20" width="4" height="11" stroke="black"/>
<path d="M246.5 13.5V20.5" stroke="black"/>
<line x1="246.5" y1="31.5" x2="246.5" y2="38.5" stroke="black"/>
<line x1="134" y1="39" x2="168" y2="39" stroke="black"/>
<path d="M250.817 28.1445H253.89V28.5H250.308V28.1821L253.261 23.8823H250.396V23.5234H253.78V23.8242L250.817 28.1445Z" fill="black"/>
<path d="M149.817 27.6445H152.89V28H149.308V27.6821L152.261 23.3823H149.396V23.0234H152.78V23.3242L149.817 27.6445Z" fill="black"/>
<path d="M255.752 30.2461H257.507V30.5H255.449V26.9453H255.752V30.2461Z" fill="black"/>
<path d="M153.22 27.6401C153.22 27.3862 153.269 27.1576 153.366 26.9541C153.465 26.7507 153.605 26.5928 153.784 26.4805C153.964 26.3665 154.169 26.3096 154.396 26.3096C154.748 26.3096 155.033 26.4333 155.251 26.6807C155.469 26.9264 155.578 27.2528 155.578 27.6597V27.7207C155.578 27.9762 155.528 28.2065 155.429 28.4116C155.332 28.6151 155.193 28.7721 155.014 28.8828C154.835 28.9935 154.631 29.0488 154.401 29.0488C154.051 29.0488 153.767 28.9259 153.547 28.6802C153.329 28.4328 153.22 28.1056 153.22 27.6987V27.6401ZM153.513 27.7207C153.513 28.0365 153.594 28.2961 153.757 28.4995C153.921 28.7013 154.136 28.8022 154.401 28.8022C154.665 28.8022 154.878 28.7013 155.041 28.4995C155.205 28.2961 155.288 28.0283 155.288 27.6963V27.6401C155.288 27.4383 155.25 27.2536 155.175 27.0859C155.1 26.9183 154.995 26.7889 154.86 26.6978C154.725 26.605 154.571 26.5586 154.396 26.5586C154.136 26.5586 153.924 26.6611 153.759 26.8662C153.595 27.0697 153.513 27.3366 153.513 27.667V27.7207Z" fill="black"/>
<line x1="134" y1="39" x2="206.2" y2="39" stroke="black"/>
<line x1="134" y1="13" x2="206.2" y2="13" stroke="black"/>
<line x1="207.8" y1="39" x2="238.3" y2="39" stroke="black"/>
<line x1="206.298" y1="13.5018" x2="152.298" y2="53.5018" stroke="black"/>
<line x1="206.298" y1="39.5018" x2="152.298" y2="79.5018" stroke="black"/>
<circle cx="239" cy="13" r="0.85" stroke="black" stroke-width="0.3"/>
<circle cx="239" cy="39" r="0.85" stroke="black" stroke-width="0.3"/>
<circle cx="207" cy="39" r="0.85" stroke="black" stroke-width="0.3"/>
<circle cx="151.7" cy="80" r="0.85" stroke="black" stroke-width="0.3"/>
<circle cx="151.7" cy="54" r="0.85" stroke="black" stroke-width="0.3"/>
<circle cx="207" cy="13" r="0.85" stroke="black" stroke-width="0.3"/>
<line x1="239.7" y1="13" x2="247" y2="13" stroke="black"/>
<line x1="239.7" y1="39" x2="247" y2="39" stroke="black"/>
<line x1="207.7" y1="13" x2="238.2" y2="13" stroke="black"/>
<path d="M238.106 9.10607C238.165 9.04749 238.165 8.95251 238.106 8.89393L237.151 7.93934C237.093 7.88076 236.998 7.88076 236.939 7.93934C236.881 7.99792 236.881 8.09289 236.939 8.15147L237.788 9L236.939 9.84853C236.881 9.90711 236.881 10.0021 236.939 10.0607C236.998 10.1192 237.093 10.1192 237.151 10.0607L238.106 9.10607ZM209 9.15L238 9.15V8.85L209 8.85V9.15Z" fill="black"/>
<path d="M208.034 8.89393C207.976 8.95251 207.976 9.04749 208.034 9.10607L208.989 10.0607C209.047 10.1192 209.142 10.1192 209.201 10.0607C209.26 10.0021 209.26 9.90711 209.201 9.84853L208.353 9L209.201 8.15147C209.26 8.09289 209.26 7.99792 209.201 7.93934C209.142 7.88076 209.047 7.88076 208.989 7.93934L208.034 8.89393ZM208.14 9.15L237 9.15V8.85L208.14 8.85V9.15Z" fill="black"/>
<path d="M222.369 4.1167C222.369 3.54248 222.497 3.08561 222.752 2.74609C223.009 2.4043 223.358 2.2334 223.798 2.2334C224.297 2.2334 224.677 2.4305 224.939 2.82471V0.75H225.346V6H224.963L224.946 5.50781C224.684 5.88151 224.299 6.06836 223.791 6.06836C223.365 6.06836 223.021 5.89746 222.759 5.55566C222.499 5.21159 222.369 4.74788 222.369 4.16455V4.1167ZM222.783 4.18848C222.783 4.66016 222.877 5.03271 223.066 5.30615C223.256 5.57731 223.522 5.71289 223.866 5.71289C224.37 5.71289 224.728 5.49072 224.939 5.04639V3.31006C224.728 2.82926 224.372 2.58887 223.873 2.58887C223.529 2.58887 223.261 2.72445 223.07 2.99561C222.878 3.26449 222.783 3.66211 222.783 4.18848Z" fill="black"/>
<path d="M187.991 68H187.581V62.75H187.991V68Z" fill="black"/>
<path d="M153.852 83.0664C153.839 83.1483 153.896 83.2246 153.978 83.2368L155.313 83.4357C155.395 83.4479 155.471 83.3913 155.484 83.3094C155.496 83.2275 155.439 83.1511 155.357 83.1389L154.17 82.9622L154.347 81.7753C154.359 81.6933 154.303 81.617 154.221 81.6048C154.139 81.5926 154.063 81.6491 154.051 81.7311L153.852 83.0664ZM208.028 42.8795L153.911 82.9679L154.089 83.209L208.206 43.1205L208.028 42.8795Z" fill="black"/>
<path d="M208.266 43.0221C208.278 42.9402 208.221 42.8638 208.139 42.8516L206.804 42.6528C206.722 42.6406 206.646 42.6971 206.634 42.7791C206.621 42.861 206.678 42.9373 206.76 42.9495L207.947 43.1263L207.77 44.3132C207.758 44.3951 207.814 44.4714 207.896 44.4836C207.978 44.4958 208.055 44.4393 208.067 44.3574L208.266 43.0221ZM208.028 42.8795L153.911 82.9679L154.089 83.209L208.206 43.1205L208.028 42.8795Z" fill="black"/>
<path d="M136.461 67.126C136.461 66.929 136.392 66.7736 136.253 66.6597C136.115 66.5441 135.862 66.4351 135.494 66.3325C135.126 66.2284 134.858 66.1152 134.688 65.9932C134.448 65.8206 134.327 65.5944 134.327 65.3145C134.327 65.0426 134.439 64.8221 134.662 64.6528C134.886 64.4819 135.173 64.3965 135.521 64.3965C135.757 64.3965 135.968 64.4421 136.153 64.5332C136.34 64.6243 136.485 64.7513 136.588 64.9141C136.69 65.0768 136.742 65.2583 136.742 65.4585H136.439C136.439 65.216 136.356 65.0215 136.19 64.875C136.024 64.7269 135.801 64.6528 135.521 64.6528C135.249 64.6528 135.033 64.7139 134.872 64.8359C134.71 64.9564 134.63 65.1143 134.63 65.3096C134.63 65.4902 134.702 65.6375 134.847 65.7515C134.992 65.8654 135.224 65.9663 135.543 66.0542C135.862 66.1405 136.104 66.2308 136.268 66.3252C136.432 66.418 136.556 66.5295 136.639 66.6597C136.722 66.7899 136.764 66.9437 136.764 67.1211C136.764 67.401 136.651 67.6257 136.427 67.7949C136.204 67.9642 135.909 68.0488 135.543 68.0488C135.292 68.0488 135.062 68.0041 134.852 67.9146C134.644 67.825 134.485 67.6997 134.376 67.5386C134.269 67.3774 134.215 67.1927 134.215 66.9844H134.515C134.515 67.235 134.609 67.4328 134.796 67.5776C134.983 67.7225 135.232 67.7949 135.543 67.7949C135.82 67.7949 136.042 67.7339 136.209 67.6118C136.377 67.4897 136.461 67.3278 136.461 67.126ZM140.047 68H139.745V66.2959H137.713V68H137.413V64.4453H137.713V66.042H139.745V64.4453H140.047V68ZM143.58 66.4155C143.58 66.7427 143.523 67.0299 143.409 67.2773C143.297 67.5247 143.136 67.7152 142.926 67.8486C142.716 67.9821 142.473 68.0488 142.198 68.0488C141.783 68.0488 141.448 67.9007 141.192 67.6045C140.937 67.3066 140.809 66.9054 140.809 66.4009V66.0347C140.809 65.7108 140.866 65.4243 140.98 65.1753C141.096 64.9246 141.258 64.7326 141.468 64.5991C141.678 64.464 141.92 64.3965 142.193 64.3965C142.467 64.3965 142.708 64.4624 142.916 64.5942C143.126 64.7261 143.288 64.9124 143.402 65.1533C143.516 65.3942 143.575 65.6733 143.58 65.9907V66.4155ZM143.28 66.0298C143.28 65.6017 143.183 65.2664 142.989 65.0239C142.796 64.7814 142.53 64.6602 142.193 64.6602C141.863 64.6602 141.599 64.7822 141.402 65.0264C141.207 65.2689 141.109 65.6082 141.109 66.0444V66.4155C141.109 66.8371 141.207 67.1715 141.402 67.4189C141.598 67.6647 141.863 67.7876 142.198 67.7876C142.538 67.7876 142.804 67.6663 142.994 67.4238C143.185 67.1797 143.28 66.8403 143.28 66.4058V66.0298ZM145.665 66.5205H144.632V68H144.33V64.4453H145.484C145.864 64.4453 146.16 64.5373 146.373 64.7212C146.586 64.9051 146.693 65.1623 146.693 65.4927C146.693 65.7205 146.626 65.9215 146.493 66.0957C146.359 66.2699 146.18 66.3903 145.956 66.457L146.844 67.9683V68H146.524L145.665 66.5205ZM144.632 66.2642H145.553C145.805 66.2642 146.008 66.1925 146.161 66.0493C146.314 65.9061 146.39 65.7205 146.39 65.4927C146.39 65.242 146.31 65.0475 146.151 64.9092C145.991 64.7708 145.768 64.7017 145.479 64.7017H144.632V66.2642ZM149.728 64.7017H148.509V68H148.209V64.7017H146.993V64.4453H149.728V64.7017Z" fill="black"/>
<line x1="151.7" y1="54.8" x2="151.7" y2="79.2001" stroke="black"/>
<rect x="110.5" y="138" width="4" height="11" stroke="black"/>
<path d="M112.5 131.5V138.5" stroke="black"/>
<line x1="112.5" y1="149.5" x2="112.5" y2="156.5" stroke="black"/>
<line y1="157" x2="74" y2="157" stroke="black"/>
<line y1="131" x2="43.2" y2="131" stroke="black"/>
<path d="M116.817 146.145H119.89V146.5H116.308V146.182L119.261 141.882H116.396V141.523H119.78V141.824L116.817 146.145Z" fill="black"/>
<path d="M15.8169 145.645H18.8896V146H15.3076V145.682L18.2607 141.382H15.3965V141.023H18.7803V141.324L15.8169 145.645Z" fill="black"/>
<path d="M121.752 148.246H123.507V148.5H121.449V144.945H121.752V148.246Z" fill="black"/>
<path d="M19.2197 145.64C19.2197 145.386 19.2686 145.158 19.3662 144.954C19.4655 144.751 19.6047 144.593 19.7837 144.48C19.9644 144.367 20.1686 144.31 20.3965 144.31C20.748 144.31 21.0329 144.433 21.251 144.681C21.4691 144.926 21.5781 145.253 21.5781 145.66V145.721C21.5781 145.976 21.5285 146.207 21.4292 146.412C21.3315 146.615 21.1932 146.772 21.0142 146.883C20.8351 146.993 20.6309 147.049 20.4014 147.049C20.0514 147.049 19.7666 146.926 19.5469 146.68C19.3288 146.433 19.2197 146.106 19.2197 145.699V145.64ZM19.5127 145.721C19.5127 146.036 19.5941 146.296 19.7568 146.5C19.9212 146.701 20.1361 146.802 20.4014 146.802C20.665 146.802 20.8783 146.701 21.041 146.5C21.2054 146.296 21.2876 146.028 21.2876 145.696V145.64C21.2876 145.438 21.2502 145.254 21.1753 145.086C21.1004 144.918 20.9954 144.789 20.8604 144.698C20.7253 144.605 20.5706 144.559 20.3965 144.559C20.1361 144.559 19.9237 144.661 19.7593 144.866C19.5949 145.07 19.5127 145.337 19.5127 145.667V145.721Z" fill="black"/>
<line x1="73.8" y1="157" x2="105.8" y2="157" stroke="black"/>
<circle cx="105" cy="131" r="0.85" stroke="black" stroke-width="0.3"/>
<circle cx="73" cy="131" r="0.85" stroke="black" stroke-width="0.3"/>
<circle cx="44" cy="131" r="0.85" stroke="black" stroke-width="0.3"/>
<circle cx="44" cy="106" r="0.85" stroke="black" stroke-width="0.3"/>
<circle cx="73" cy="106" r="0.85" stroke="black" stroke-width="0.3"/>
<line x1="105.7" y1="131" x2="113" y2="131" stroke="black"/>
<line x1="105.7" y1="157" x2="113" y2="157" stroke="black"/>
<line x1="73.7" y1="131" x2="104.2" y2="131" stroke="black"/>
<path d="M103.978 127.106C104.036 127.047 104.036 126.953 103.978 126.894L103.023 125.939C102.965 125.881 102.87 125.881 102.811 125.939C102.753 125.998 102.753 126.093 102.811 126.151L103.66 127L102.811 127.849C102.753 127.907 102.753 128.002 102.811 128.061C102.87 128.119 102.965 128.119 103.023 128.061L103.978 127.106ZM75 127.15H103.872V126.85H75V127.15Z" fill="black"/>
<path d="M74.0656 126.894C74.007 126.953 74.007 127.047 74.0656 127.106L75.0202 128.061C75.0787 128.119 75.1737 128.119 75.2323 128.061C75.2909 128.002 75.2909 127.907 75.2323 127.849L74.3838 127L75.2323 126.151C75.2909 126.093 75.2909 125.998 75.2323 125.939C75.1737 125.881 75.0787 125.881 75.0202 125.939L74.0656 126.894ZM74.1716 127.15L103.932 127.15V126.85L74.1716 126.85V127.15Z" fill="black"/>
<path d="M88.3691 122.117C88.3691 121.542 88.4967 121.086 88.752 120.746C89.0094 120.404 89.3581 120.233 89.7979 120.233C90.2969 120.233 90.6774 120.431 90.9395 120.825V118.75H91.3462V124H90.9634L90.9463 123.508C90.6842 123.882 90.2992 124.068 89.791 124.068C89.3649 124.068 89.0208 123.897 88.7588 123.556C88.499 123.212 88.3691 122.748 88.3691 122.165V122.117ZM88.7827 122.188C88.7827 122.66 88.8773 123.033 89.0664 123.306C89.2555 123.577 89.5221 123.713 89.8662 123.713C90.3698 123.713 90.7275 123.491 90.9395 123.046V121.31C90.7275 120.829 90.3721 120.589 89.873 120.589C89.529 120.589 89.2612 120.724 89.0698 120.996C88.8784 121.264 88.7827 121.662 88.7827 122.188Z" fill="black"/>
<line x1="44" y1="130.2" x2="44" y2="106.8" stroke="black"/>
<line x1="73" y1="130.2" x2="73" y2="106.8" stroke="black"/>
<path d="M40.1061 106.894C40.0475 106.835 39.9525 106.835 39.8939 106.894L38.9393 107.849C38.8808 107.907 38.8808 108.002 38.9393 108.061C38.9979 108.119 39.0929 108.119 39.1515 108.061L40 107.212L40.8485 108.061C40.9071 108.119 41.0021 108.119 41.0607 108.061C41.1192 108.002 41.1192 107.907 41.0607 107.849L40.1061 106.894ZM40.15 130V107H39.85V130H40.15Z" fill="black"/>
<path d="M39.8939 130.106C39.9525 130.165 40.0475 130.165 40.1061 130.106L41.0607 129.151C41.1192 129.093 41.1192 128.998 41.0607 128.939C41.0021 128.881 40.9071 128.881 40.8485 128.939L40 129.788L39.1515 128.939C39.0929 128.881 38.9979 128.881 38.9393 128.939C38.8808 128.998 38.8808 129.093 38.9393 129.151L39.8939 130.106ZM40.15 130V107H39.85V130H40.15Z" fill="black"/>
<path d="M36.9912 122H36.5811V116.75H36.9912V122Z" fill="black"/>
<line x1="44.8" y1="106" x2="72.2001" y2="106" stroke="black"/>
<path d="M53.4609 101.126C53.4609 100.929 53.3918 100.774 53.2534 100.66C53.1151 100.544 52.862 100.435 52.4941 100.333C52.1263 100.228 51.8577 100.115 51.6885 99.9932C51.4476 99.8206 51.3271 99.5944 51.3271 99.3145C51.3271 99.0426 51.4386 98.8221 51.6616 98.6528C51.8862 98.4819 52.1727 98.3965 52.521 98.3965C52.757 98.3965 52.9678 98.4421 53.1533 98.5332C53.3405 98.6243 53.4854 98.7513 53.5879 98.9141C53.6904 99.0768 53.7417 99.2583 53.7417 99.4585H53.439C53.439 99.216 53.356 99.0215 53.1899 98.875C53.0239 98.7269 52.8009 98.6528 52.521 98.6528C52.2492 98.6528 52.0327 98.7139 51.8716 98.8359C51.7104 98.9564 51.6299 99.1143 51.6299 99.3096C51.6299 99.4902 51.7023 99.6375 51.8472 99.7515C51.992 99.8654 52.224 99.9663 52.543 100.054C52.862 100.14 53.1037 100.231 53.2681 100.325C53.4325 100.418 53.5562 100.529 53.6392 100.66C53.7222 100.79 53.7637 100.944 53.7637 101.121C53.7637 101.401 53.6514 101.626 53.4268 101.795C53.2038 101.964 52.9092 102.049 52.543 102.049C52.2923 102.049 52.062 102.004 51.8521 101.915C51.6437 101.825 51.485 101.7 51.376 101.539C51.2686 101.377 51.2148 101.193 51.2148 100.984H51.5151C51.5151 101.235 51.6087 101.433 51.7959 101.578C51.9831 101.722 52.2321 101.795 52.543 101.795C52.8197 101.795 53.0418 101.734 53.2095 101.612C53.3771 101.49 53.4609 101.328 53.4609 101.126ZM57.0474 102H56.7446V100.296H54.7134V102H54.4131V98.4453H54.7134V100.042H56.7446V98.4453H57.0474V102ZM60.5801 100.416C60.5801 100.743 60.5231 101.03 60.4092 101.277C60.2969 101.525 60.1357 101.715 59.9258 101.849C59.7158 101.982 59.4733 102.049 59.1982 102.049C58.7832 102.049 58.4479 101.901 58.1924 101.604C57.9368 101.307 57.8091 100.905 57.8091 100.401V100.035C57.8091 99.7108 57.866 99.4243 57.98 99.1753C58.0955 98.9246 58.2583 98.7326 58.4683 98.5991C58.6782 98.464 58.9199 98.3965 59.1934 98.3965C59.4668 98.3965 59.7077 98.4624 59.916 98.5942C60.126 98.7261 60.2879 98.9124 60.4019 99.1533C60.5158 99.3942 60.5752 99.6733 60.5801 99.9907V100.416ZM60.2798 100.03C60.2798 99.6017 60.1829 99.2664 59.9893 99.0239C59.7956 98.7814 59.5303 98.6602 59.1934 98.6602C58.863 98.6602 58.5993 98.7822 58.4023 99.0264C58.207 99.2689 58.1094 99.6082 58.1094 100.044V100.416C58.1094 100.837 58.207 101.172 58.4023 101.419C58.5977 101.665 58.863 101.788 59.1982 101.788C59.5384 101.788 59.8037 101.666 59.9941 101.424C60.1846 101.18 60.2798 100.84 60.2798 100.406V100.03ZM62.665 100.521H61.6323V102H61.3296V98.4453H62.4844C62.8636 98.4453 63.1598 98.5373 63.373 98.7212C63.5863 98.9051 63.6929 99.1623 63.6929 99.4927C63.6929 99.7205 63.6261 99.9215 63.4927 100.096C63.3592 100.27 63.1802 100.39 62.9556 100.457L63.8442 101.968V102H63.5244L62.665 100.521ZM61.6323 100.264H62.5527C62.805 100.264 63.0076 100.193 63.1606 100.049C63.3136 99.9061 63.3901 99.7205 63.3901 99.4927C63.3901 99.242 63.3104 99.0475 63.1509 98.9092C62.9914 98.7708 62.7676 98.7017 62.4795 98.7017H61.6323V100.264ZM66.7275 98.7017H65.5093V102H65.209V98.7017H63.9932V98.4453H66.7275V98.7017Z" fill="black"/>
<rect x="244.5" y="138" width="4" height="11" stroke="black"/>
<path d="M246.5 131.5V138.5" stroke="black"/>
<line x1="246.5" y1="149.5" x2="246.5" y2="156.5" stroke="black"/>
<line x1="134" y1="157" x2="208" y2="157" stroke="black"/>
<line x1="134" y1="131" x2="177.2" y2="131" stroke="black"/>
<path d="M250.817 146.145H253.89V146.5H250.308V146.182L253.261 141.882H250.396V141.523H253.78V141.824L250.817 146.145Z" fill="black"/>
<path d="M149.817 145.645H152.89V146H149.308V145.682L152.261 141.382H149.396V141.023H152.78V141.324L149.817 145.645Z" fill="black"/>
<path d="M255.752 148.246H257.507V148.5H255.449V144.945H255.752V148.246Z" fill="black"/>
<path d="M153.22 145.64C153.22 145.386 153.269 145.158 153.366 144.954C153.465 144.751 153.605 144.593 153.784 144.48C153.964 144.367 154.169 144.31 154.396 144.31C154.748 144.31 155.033 144.433 155.251 144.681C155.469 144.926 155.578 145.253 155.578 145.66V145.721C155.578 145.976 155.528 146.207 155.429 146.412C155.332 146.615 155.193 146.772 155.014 146.883C154.835 146.993 154.631 147.049 154.401 147.049C154.051 147.049 153.767 146.926 153.547 146.68C153.329 146.433 153.22 146.106 153.22 145.699V145.64ZM153.513 145.721C153.513 146.036 153.594 146.296 153.757 146.5C153.921 146.701 154.136 146.802 154.401 146.802C154.665 146.802 154.878 146.701 155.041 146.5C155.205 146.296 155.288 146.028 155.288 145.696V145.64C155.288 145.438 155.25 145.254 155.175 145.086C155.1 144.918 154.995 144.789 154.86 144.698C154.725 144.605 154.571 144.559 154.396 144.559C154.136 144.559 153.924 144.661 153.759 144.866C153.595 145.07 153.513 145.337 153.513 145.667V145.721Z" fill="black"/>
<line x1="207.8" y1="157" x2="239.8" y2="157" stroke="black"/>
<circle cx="239" cy="131" r="0.85" stroke="black" stroke-width="0.3"/>
<circle cx="207" cy="131" r="0.85" stroke="black" stroke-width="0.3"/>
<circle cx="178" cy="131" r="0.85" stroke="black" stroke-width="0.3"/>
<circle cx="178" cy="106" r="0.85" stroke="black" stroke-width="0.3"/>
<circle cx="207" cy="106" r="0.85" stroke="black" stroke-width="0.3"/>
<line x1="239.7" y1="131" x2="247" y2="131" stroke="black"/>
<line x1="239.7" y1="157" x2="247" y2="157" stroke="black"/>
<line x1="207.7" y1="131" x2="238.2" y2="131" stroke="black"/>
<path d="M237.978 127.106C238.036 127.047 238.036 126.953 237.978 126.894L237.023 125.939C236.965 125.881 236.87 125.881 236.811 125.939C236.753 125.998 236.753 126.093 236.811 126.151L237.66 127L236.811 127.849C236.753 127.907 236.753 128.002 236.811 128.061C236.87 128.119 236.965 128.119 237.023 128.061L237.978 127.106ZM209 127.15H237.872V126.85H209V127.15Z" fill="black"/>
<path d="M208.066 126.894C208.007 126.953 208.007 127.047 208.066 127.106L209.02 128.061C209.079 128.119 209.174 128.119 209.232 128.061C209.291 128.002 209.291 127.907 209.232 127.849L208.384 127L209.232 126.151C209.291 126.093 209.291 125.998 209.232 125.939C209.174 125.881 209.079 125.881 209.02 125.939L208.066 126.894ZM208.172 127.15L237.932 127.15V126.85L208.172 126.85V127.15Z" fill="black"/>
<path d="M222.369 122.117C222.369 121.542 222.497 121.086 222.752 120.746C223.009 120.404 223.358 120.233 223.798 120.233C224.297 120.233 224.677 120.431 224.939 120.825V118.75H225.346V124H224.963L224.946 123.508C224.684 123.882 224.299 124.068 223.791 124.068C223.365 124.068 223.021 123.897 222.759 123.556C222.499 123.212 222.369 122.748 222.369 122.165V122.117ZM222.783 122.188C222.783 122.66 222.877 123.033 223.066 123.306C223.256 123.577 223.522 123.713 223.866 123.713C224.37 123.713 224.728 123.491 224.939 123.046V121.31C224.728 120.829 224.372 120.589 223.873 120.589C223.529 120.589 223.261 120.724 223.07 120.996C222.878 121.264 222.783 121.662 222.783 122.188Z" fill="black"/>
<line x1="178" y1="130.2" x2="178" y2="106.8" stroke="black"/>
<line x1="207" y1="130.2" x2="207" y2="106.8" stroke="black"/>
<path d="M174.106 106.894C174.047 106.835 173.953 106.835 173.894 106.894L172.939 107.849C172.881 107.907 172.881 108.002 172.939 108.061C172.998 108.119 173.093 108.119 173.151 108.061L174 107.212L174.849 108.061C174.907 108.119 175.002 108.119 175.061 108.061C175.119 108.002 175.119 107.907 175.061 107.849L174.106 106.894ZM174.15 130V107H173.85V130H174.15Z" fill="black"/>
<path d="M173.894 130.106C173.953 130.165 174.047 130.165 174.106 130.106L175.061 129.151C175.119 129.093 175.119 128.998 175.061 128.939C175.002 128.881 174.907 128.881 174.849 128.939L174 129.788L173.151 128.939C173.093 128.881 172.998 128.881 172.939 128.939C172.881 128.998 172.881 129.093 172.939 129.151L173.894 130.106ZM174.15 130V107H173.85V130H174.15Z" fill="black"/>
<path d="M170.991 122H170.581V116.75H170.991V122Z" fill="black"/>
<path d="M189.076 100.416C189.076 100.743 189.019 101.03 188.905 101.277C188.793 101.525 188.632 101.715 188.422 101.849C188.212 101.982 187.969 102.049 187.694 102.049C187.279 102.049 186.944 101.901 186.688 101.604C186.433 101.307 186.305 100.905 186.305 100.401V100.035C186.305 99.7108 186.362 99.4243 186.476 99.1753C186.592 98.9246 186.754 98.7326 186.964 98.5991C187.174 98.464 187.416 98.3965 187.689 98.3965C187.963 98.3965 188.204 98.4624 188.412 98.5942C188.622 98.7261 188.784 98.9124 188.898 99.1533C189.012 99.3942 189.071 99.6733 189.076 99.9907V100.416ZM188.776 100.03C188.776 99.6017 188.679 99.2664 188.485 99.0239C188.292 98.7814 188.026 98.6602 187.689 98.6602C187.359 98.6602 187.095 98.7822 186.898 99.0264C186.703 99.2689 186.605 99.6082 186.605 100.044V100.416C186.605 100.837 186.703 101.172 186.898 101.419C187.094 101.665 187.359 101.788 187.694 101.788C188.035 101.788 188.3 101.666 188.49 101.424C188.681 101.18 188.776 100.84 188.776 100.406V100.03ZM190.133 100.552V102H189.833V98.4453H191.044C191.413 98.4453 191.705 98.5397 191.918 98.7285C192.133 98.9173 192.24 99.1769 192.24 99.5073C192.24 99.841 192.137 100.099 191.93 100.281C191.725 100.462 191.427 100.552 191.037 100.552H190.133ZM190.133 100.298H191.044C191.335 100.298 191.557 100.229 191.71 100.091C191.863 99.9525 191.94 99.7596 191.94 99.5122C191.94 99.2664 191.863 99.0711 191.71 98.9263C191.559 98.7798 191.343 98.7049 191.063 98.7017H190.133V100.298ZM194.877 100.296H193.214V101.746H195.126V102H192.914V98.4453H195.114V98.7017H193.214V100.042H194.877V100.296ZM198.407 102H198.107L196.063 98.958V102H195.761V98.4453H196.063L198.109 101.49V98.4453H198.407V102Z" fill="black"/>
</svg>
