<svg width="127" height="37" viewBox="0 0 127 37" fill="none" xmlns="http://www.w3.org/2000/svg">
<line x1="9" y1="0.5" x2="122" y2="0.5" stroke="black"/>
<line x1="9" y1="26.5" x2="122" y2="26.5" stroke="black"/>
<rect x="63.5" y="7.5" width="4" height="11" stroke="black"/>
<line x1="65.5" y1="26" x2="65.5" y2="19" stroke="black"/>
<line x1="65.5" y1="1" x2="65.5" y2="7" stroke="black"/>
<path d="M69.8169 15.6445H72.8896V16H69.3076V15.6821L72.2607 11.3823H69.3965V11.0234H72.7803V11.3242L69.8169 15.6445Z" fill="black"/>
<path d="M73.752 17.7461H75.5073V18H73.4492V14.4453H73.752V17.7461Z" fill="black"/>
<path d="M107.583 23.7461H109.778V24H107.22V23.7729L109.329 20.7017H107.283V20.4453H109.7V20.6602L107.583 23.7461Z" fill="black"/>
<path d="M20.5835 23.7461H22.7783V24H20.2197V23.7729L22.3291 20.7017H20.2832V20.4453H22.7002V20.6602L20.5835 23.7461Z" fill="black"/>
<path d="M111.846 24.0493C111.846 24.2456 111.812 24.418 111.743 24.5664C111.676 24.7148 111.579 24.8291 111.453 24.9092C111.327 24.9893 111.182 25.0293 111.017 25.0293C110.768 25.0293 110.566 24.9404 110.413 24.7627C110.26 24.584 110.183 24.3433 110.183 24.0405V23.8208C110.183 23.6265 110.217 23.4546 110.286 23.3052C110.355 23.1548 110.453 23.0396 110.579 22.9595C110.705 22.8784 110.85 22.8379 111.014 22.8379C111.178 22.8379 111.322 22.8774 111.447 22.9565C111.573 23.0356 111.67 23.1475 111.739 23.292C111.807 23.4365 111.843 23.604 111.846 23.7944V24.0493ZM111.666 23.8179C111.666 23.561 111.607 23.3599 111.491 23.2144C111.375 23.0688 111.216 22.9961 111.014 22.9961C110.815 22.9961 110.657 23.0693 110.539 23.2158C110.422 23.3613 110.363 23.5649 110.363 23.8267V24.0493C110.363 24.3022 110.422 24.5029 110.539 24.6514C110.656 24.7988 110.815 24.8726 111.017 24.8726C111.221 24.8726 111.38 24.7998 111.494 24.6543C111.608 24.5078 111.666 24.3042 111.666 24.0435V23.8179Z" fill="black"/>
<path d="M24.8457 24.0493C24.8457 24.2456 24.8115 24.418 24.7432 24.5664C24.6758 24.7148 24.5791 24.8291 24.4531 24.9092C24.3271 24.9893 24.1816 25.0293 24.0166 25.0293C23.7676 25.0293 23.5664 24.9404 23.4131 24.7627C23.2598 24.584 23.1831 24.3433 23.1831 24.0405V23.8208C23.1831 23.6265 23.2173 23.4546 23.2856 23.3052C23.355 23.1548 23.4526 23.0396 23.5786 22.9595C23.7046 22.8784 23.8496 22.8379 24.0137 22.8379C24.1777 22.8379 24.3223 22.8774 24.4473 22.9565C24.5732 23.0356 24.6704 23.1475 24.7388 23.292C24.8071 23.4365 24.8428 23.604 24.8457 23.7944V24.0493ZM24.6655 23.8179C24.6655 23.561 24.6074 23.3599 24.4912 23.2144C24.375 23.0688 24.2158 22.9961 24.0137 22.9961C23.8154 22.9961 23.6572 23.0693 23.5391 23.2158C23.4219 23.3613 23.3633 23.5649 23.3633 23.8267V24.0493C23.3633 24.3022 23.4219 24.5029 23.5391 24.6514C23.6562 24.7988 23.8154 24.8726 24.0166 24.8726C24.2207 24.8726 24.3799 24.7998 24.4941 24.6543C24.6084 24.5078 24.6655 24.3042 24.6655 24.0435V23.8179Z" fill="black"/>
<rect x="92.5" y="7.5" width="4" height="11" stroke="#5D6D7E"/>
<line x1="94.5" y1="26" x2="94.5" y2="19" stroke="#5D6D7E"/>
<line x1="94.5" y1="1" x2="94.5" y2="7" stroke="#5D6D7E"/>
<path d="M98.8169 15.6445H101.89V16H98.3076V15.6821L101.261 11.3823H98.3965V11.0234H101.78V11.3242L98.8169 15.6445ZM102.645 12.2437L102.402 12.0659C102.607 11.7902 102.713 11.5008 102.72 11.1978V10.75H103.124V11.0952C103.124 11.5715 102.964 11.9543 102.645 12.2437Z" fill="#5D6D7E"/>
<path d="M101.752 17.7461H103.507V18H101.449V14.4453H101.752V17.7461Z" fill="#5D6D7E"/>
<rect x="34.5" y="7.5" width="4" height="11" stroke="#5D6D7E"/>
<line x1="36.5" y1="26" x2="36.5" y2="19" stroke="#5D6D7E"/>
<line x1="36.5" y1="1" x2="36.5" y2="7" stroke="#5D6D7E"/>
<path d="M40.8169 15.6445H43.8896V16H40.3076V15.6821L43.2607 11.3823H40.3965V11.0234H43.7803V11.3242L40.8169 15.6445ZM44.645 12.2437L44.4023 12.0659C44.6074 11.7902 44.7134 11.5008 44.7202 11.1978V10.75H45.1235V11.0952C45.1235 11.5715 44.964 11.9543 44.645 12.2437Z" fill="#5D6D7E"/>
<path d="M45.752 17.7461H47.5073V18H45.4492V14.4453H45.752V17.7461Z" fill="#5D6D7E"/>
<path d="M3.01514 14.5776C2.91097 14.7257 2.7474 14.8413 2.52441 14.9243C2.30306 15.0073 2.05485 15.0488 1.77979 15.0488C1.50146 15.0488 1.25407 14.9821 1.0376 14.8486C0.821126 14.7152 0.653483 14.5264 0.534668 14.2822C0.415853 14.0381 0.355632 13.7581 0.354004 13.4424V12.9932C0.354004 12.5 0.478516 12.111 0.727539 11.8262C0.976562 11.5397 1.31104 11.3965 1.73096 11.3965C2.09717 11.3965 2.39176 11.4901 2.61475 11.6772C2.83773 11.8628 2.97038 12.1191 3.0127 12.4463H2.7124C2.66846 12.1859 2.56185 11.9889 2.39258 11.8555C2.22493 11.7204 2.00521 11.6528 1.7334 11.6528C1.40137 11.6528 1.13851 11.7708 0.944824 12.0068C0.751139 12.2428 0.654297 12.5757 0.654297 13.0054V13.4253C0.654297 13.6955 0.69987 13.9347 0.791016 14.1431C0.883789 14.3498 1.01562 14.5101 1.18652 14.624C1.35905 14.738 1.5568 14.7949 1.77979 14.7949C2.03857 14.7949 2.26074 14.7542 2.44629 14.6729C2.56673 14.6191 2.65625 14.5565 2.71484 14.4849V13.5669H1.76025V13.313H3.01514V14.5776ZM5.83008 13.2959H4.16748V14.7461H6.0791V15H3.86719V11.4453H6.06689V11.7017H4.16748V13.042H5.83008V13.2959ZM9.36035 15H9.06006L7.0166 11.958V15H6.71387V11.4453H7.0166L9.0625 14.4897V11.4453H9.36035V15ZM12.2266 13.2959H10.564V14.7461H12.4756V15H10.2637V11.4453H12.4634V11.7017H10.564V13.042H12.2266V13.2959ZM14.4385 13.5205H13.4058V15H13.103V11.4453H14.2578C14.637 11.4453 14.9333 11.5373 15.1465 11.7212C15.3597 11.9051 15.4663 12.1623 15.4663 12.4927C15.4663 12.7205 15.3996 12.9215 15.2661 13.0957C15.1326 13.2699 14.9536 13.3903 14.729 13.457L15.6177 14.9683V15H15.2979L14.4385 13.5205ZM13.4058 13.2642H14.3262C14.5785 13.2642 14.7811 13.1925 14.9341 13.0493C15.0871 12.9061 15.1636 12.7205 15.1636 12.4927C15.1636 12.242 15.0838 12.0475 14.9243 11.9092C14.7648 11.7708 14.541 11.7017 14.2529 11.7017H13.4058V13.2642ZM18.2031 14.0039H16.5894L16.2231 15H15.9082L17.2534 11.4453H17.5391L18.8843 15H18.5718L18.2031 14.0039ZM16.6821 13.7476H18.1079L17.395 11.8115L16.6821 13.7476ZM21.5039 11.7017H20.2856V15H19.9854V11.7017H18.7695V11.4453H21.5039V11.7017ZM24.6387 13.4155C24.6387 13.7427 24.5817 14.0299 24.4678 14.2773C24.3555 14.5247 24.1943 14.7152 23.9844 14.8486C23.7744 14.9821 23.5319 15.0488 23.2568 15.0488C22.8418 15.0488 22.5065 14.9007 22.251 14.6045C21.9954 14.3066 21.8677 13.9054 21.8677 13.4009V13.0347C21.8677 12.7108 21.9246 12.4243 22.0386 12.1753C22.1541 11.9246 22.3169 11.7326 22.5269 11.5991C22.7368 11.464 22.9785 11.3965 23.252 11.3965C23.5254 11.3965 23.7663 11.4624 23.9746 11.5942C24.1846 11.7261 24.3465 11.9124 24.4604 12.1533C24.5744 12.3942 24.6338 12.6733 24.6387 12.9907V13.4155ZM24.3384 13.0298C24.3384 12.6017 24.2415 12.2664 24.0479 12.0239C23.8542 11.7814 23.5889 11.6602 23.252 11.6602C22.9215 11.6602 22.6579 11.7822 22.4609 12.0264C22.2656 12.2689 22.168 12.6082 22.168 13.0444V13.4155C22.168 13.8371 22.2656 14.1715 22.4609 14.4189C22.6562 14.6647 22.9215 14.7876 23.2568 14.7876C23.597 14.7876 23.8623 14.6663 24.0527 14.4238C24.2432 14.1797 24.3384 13.8403 24.3384 13.4058V13.0298ZM26.7236 13.5205H25.6909V15H25.3882V11.4453H26.543C26.9222 11.4453 27.2184 11.5373 27.4316 11.7212C27.6449 11.9051 27.7515 12.1623 27.7515 12.4927C27.7515 12.7205 27.6847 12.9215 27.5513 13.0957C27.4178 13.2699 27.2388 13.3903 27.0142 13.457L27.9028 14.9683V15H27.583L26.7236 13.5205ZM25.6909 13.2642H26.6113C26.8636 13.2642 27.0662 13.1925 27.2192 13.0493C27.3722 12.9061 27.4487 12.7205 27.4487 12.4927C27.4487 12.242 27.369 12.0475 27.2095 11.9092C27.05 11.7708 26.8262 11.7017 26.5381 11.7017H25.6909V13.2642Z" fill="black"/>
<path d="M114.752 14.7461H116.507V15H114.449V11.4453H114.752V14.7461ZM119.552 13.4155C119.552 13.7427 119.495 14.0299 119.381 14.2773C119.269 14.5247 119.107 14.7152 118.897 14.8486C118.688 14.9821 118.445 15.0488 118.17 15.0488C117.755 15.0488 117.42 14.9007 117.164 14.6045C116.909 14.3066 116.781 13.9054 116.781 13.4009V13.0347C116.781 12.7108 116.838 12.4243 116.952 12.1753C117.067 11.9246 117.23 11.7326 117.44 11.5991C117.65 11.464 117.892 11.3965 118.165 11.3965C118.438 11.3965 118.679 11.4624 118.888 11.5942C119.098 11.7261 119.26 11.9124 119.374 12.1533C119.487 12.3942 119.547 12.6733 119.552 12.9907V13.4155ZM119.251 13.0298C119.251 12.6017 119.155 12.2664 118.961 12.0239C118.767 11.7814 118.502 11.6602 118.165 11.6602C117.835 11.6602 117.571 11.7822 117.374 12.0264C117.179 12.2689 117.081 12.6082 117.081 13.0444V13.4155C117.081 13.8371 117.179 14.1715 117.374 14.4189C117.569 14.6647 117.835 14.7876 118.17 14.7876C118.51 14.7876 118.775 14.6663 118.966 14.4238C119.156 14.1797 119.251 13.8403 119.251 13.4058V13.0298ZM122.174 14.0039H120.56L120.194 15H119.879L121.224 11.4453H121.51L122.855 15H122.542L122.174 14.0039ZM120.653 13.7476H122.079L121.366 11.8115L120.653 13.7476ZM123.38 15V11.4453H124.374C124.665 11.4453 124.926 11.512 125.157 11.6455C125.388 11.7773 125.568 11.967 125.697 12.2144C125.827 12.4618 125.892 12.7433 125.892 13.0591V13.3862C125.892 13.7036 125.828 13.9852 125.699 14.231C125.571 14.4767 125.389 14.6663 125.155 14.7998C124.922 14.9333 124.654 15 124.352 15H123.38ZM123.68 11.7017V14.7461H124.354C124.728 14.7461 125.029 14.6224 125.255 14.375C125.481 14.126 125.594 13.7899 125.594 13.3667V13.0542C125.594 12.6457 125.483 12.3185 125.26 12.0728C125.037 11.827 124.743 11.7033 124.378 11.7017H123.68Z" fill="black"/>
<path d="M35.8232 29.8232C35.7256 29.9209 35.7256 30.0791 35.8232 30.1768L37.4142 31.7678C37.5118 31.8654 37.6701 31.8654 37.7678 31.7678C37.8654 31.6701 37.8654 31.5118 37.7678 31.4142L36.3536 30L37.7678 28.5858C37.8654 28.4882 37.8654 28.3299 37.7678 28.2322C37.6701 28.1346 37.5118 28.1346 37.4142 28.2322L35.8232 29.8232ZM36 30.25L65 30.25V29.75L36 29.75V30.25Z" fill="black"/>
<path d="M95.1768 30.1768C95.2744 30.0791 95.2744 29.9209 95.1768 29.8232L93.5858 28.2322C93.4882 28.1346 93.3299 28.1346 93.2322 28.2322C93.1346 28.3299 93.1346 28.4882 93.2322 28.5858L94.6464 30L93.2322 31.4142C93.1346 31.5118 93.1346 31.6701 93.2322 31.7678C93.3299 31.8654 93.4882 31.8654 93.5858 31.7678L95.1768 30.1768ZM66 30.25L95 30.25V29.75L66 29.75V30.25Z" fill="black"/>
<path d="M50.3164 34.3857C50.3164 33.8936 50.4258 33.502 50.6445 33.2109C50.8652 32.918 51.1641 32.7715 51.541 32.7715C51.9688 32.7715 52.2949 32.9404 52.5195 33.2783V31.5H52.8682V36H52.54L52.5254 35.5781C52.3008 35.8984 51.9707 36.0586 51.5352 36.0586C51.1699 36.0586 50.875 35.9121 50.6504 35.6191C50.4277 35.3242 50.3164 34.9268 50.3164 34.4268V34.3857ZM50.6709 34.4473C50.6709 34.8516 50.752 35.1709 50.9141 35.4053C51.0762 35.6377 51.3047 35.7539 51.5996 35.7539C52.0312 35.7539 52.3379 35.5635 52.5195 35.1826V33.6943C52.3379 33.2822 52.0332 33.0762 51.6055 33.0762C51.3105 33.0762 51.0811 33.1924 50.917 33.4248C50.7529 33.6553 50.6709 33.9961 50.6709 34.4473Z" fill="black"/>
<path d="M79.3164 34.3857C79.3164 33.8936 79.4258 33.502 79.6445 33.2109C79.8652 32.918 80.1641 32.7715 80.541 32.7715C80.9688 32.7715 81.2949 32.9404 81.5195 33.2783V31.5H81.8682V36H81.54L81.5254 35.5781C81.3008 35.8984 80.9707 36.0586 80.5352 36.0586C80.1699 36.0586 79.875 35.9121 79.6504 35.6191C79.4277 35.3242 79.3164 34.9268 79.3164 34.4268V34.3857ZM79.6709 34.4473C79.6709 34.8516 79.752 35.1709 79.9141 35.4053C80.0762 35.6377 80.3047 35.7539 80.5996 35.7539C81.0312 35.7539 81.3379 35.5635 81.5195 35.1826V33.6943C81.3379 33.2822 81.0332 33.0762 80.6055 33.0762C80.3105 33.0762 80.0811 33.1924 79.917 33.4248C79.7529 33.6553 79.6709 33.9961 79.6709 34.4473Z" fill="black"/>
</svg>
