<svg width="107" height="89" viewBox="0 0 107 89" fill="none" xmlns="http://www.w3.org/2000/svg">
<line y1="6.5" x2="96" y2="6.5" stroke="black"/>
<line x1="84.25" y1="4" x2="84.25" y2="7" stroke="black" stroke-width="0.5"/>
<line x1="84.25" x2="84.25" y2="3" stroke="black" stroke-width="0.5"/>
<path d="M36.5835 86.7461H38.7783V87H36.2197V86.7729L38.3291 83.7017H36.2832V83.4453H38.7002V83.6602L36.5835 86.7461Z" fill="black"/>
<path d="M40.8457 87.0493C40.8457 87.2456 40.8115 87.418 40.7432 87.5664C40.6758 87.7148 40.5791 87.8291 40.4531 87.9092C40.3271 87.9893 40.1816 88.0293 40.0166 88.0293C39.7676 88.0293 39.5664 87.9404 39.4131 87.7627C39.2598 87.584 39.1831 87.3433 39.1831 87.0405V86.8208C39.1831 86.6265 39.2173 86.4546 39.2856 86.3052C39.355 86.1548 39.4526 86.0396 39.5786 85.9595C39.7046 85.8784 39.8496 85.8379 40.0137 85.8379C40.1777 85.8379 40.3223 85.8774 40.4473 85.9565C40.5732 86.0356 40.6704 86.1475 40.7388 86.292C40.8071 86.4365 40.8428 86.604 40.8457 86.7944V87.0493ZM40.6655 86.8179C40.6655 86.561 40.6074 86.3599 40.4912 86.2144C40.375 86.0688 40.2158 85.9961 40.0137 85.9961C39.8154 85.9961 39.6572 86.0693 39.5391 86.2158C39.4219 86.3613 39.3633 86.5649 39.3633 86.8267V87.0493C39.3633 87.3022 39.4219 87.5029 39.5391 87.6514C39.6562 87.7988 39.8154 87.8726 40.0166 87.8726C40.2207 87.8726 40.3799 87.7998 40.4941 87.6543C40.6084 87.5078 40.6655 87.3042 40.6655 87.0435V86.8179Z" fill="black"/>
<path d="M60.5835 86.7461H62.7783V87H60.2197V86.7729L62.3291 83.7017H60.2832V83.4453H62.7002V83.6602L60.5835 86.7461Z" fill="black"/>
<path d="M64.8457 87.0493C64.8457 87.2456 64.8115 87.418 64.7432 87.5664C64.6758 87.7148 64.5791 87.8291 64.4531 87.9092C64.3271 87.9893 64.1816 88.0293 64.0166 88.0293C63.7676 88.0293 63.5664 87.9404 63.4131 87.7627C63.2598 87.584 63.1831 87.3433 63.1831 87.0405V86.8208C63.1831 86.6265 63.2173 86.4546 63.2856 86.3052C63.355 86.1548 63.4526 86.0396 63.5786 85.9595C63.7046 85.8784 63.8496 85.8379 64.0137 85.8379C64.1777 85.8379 64.3223 85.8774 64.4473 85.9565C64.5732 86.0356 64.6704 86.1475 64.7388 86.292C64.8071 86.4365 64.8428 86.604 64.8457 86.7944V87.0493ZM64.6655 86.8179C64.6655 86.561 64.6074 86.3599 64.4912 86.2144C64.375 86.0688 64.2158 85.9961 64.0137 85.9961C63.8154 85.9961 63.6572 86.0693 63.5391 86.2158C63.4219 86.3613 63.3633 86.5649 63.3633 86.8267V87.0493C63.3633 87.3022 63.4219 87.5029 63.5391 87.6514C63.6562 87.7988 63.8154 87.8726 64.0166 87.8726C64.2207 87.8726 64.3799 87.7998 64.4941 87.6543C64.6084 87.5078 64.6655 87.3042 64.6655 87.0435V86.8179Z" fill="black"/>
<line y1="32.5" x2="96" y2="32.5" stroke="black"/>
<rect x="93.5" y="14.5" width="4" height="10" stroke="black"/>
<line x1="95.5" y1="7" x2="95.5" y2="14" stroke="black"/>
<line x1="95.5" y1="25" x2="95.5" y2="32" stroke="black"/>
<line x1="84.25" y1="28" x2="84.25" y2="31" stroke="black" stroke-width="0.5"/>
<line x1="84.25" y1="24" x2="84.25" y2="27" stroke="black" stroke-width="0.5"/>
<line x1="84.25" y1="20" x2="84.25" y2="23" stroke="black" stroke-width="0.5"/>
<line x1="84.25" y1="16" x2="84.25" y2="19" stroke="black" stroke-width="0.5"/>
<line x1="84.25" y1="12" x2="84.25" y2="15" stroke="black" stroke-width="0.5"/>
<line x1="84.25" y1="8" x2="84.25" y2="11" stroke="black" stroke-width="0.5"/>
<line x1="84.25" y1="33" x2="84.25" y2="35" stroke="black" stroke-width="0.5"/>
<line x1="84.25" y1="36" x2="84.25" y2="39" stroke="black" stroke-width="0.5"/>
<path d="M22.8169 20.6445H25.8896V21H22.3076V20.6821L25.2607 16.3823H22.3965V16.0234H25.7803V16.3242L22.8169 20.6445Z" fill="black"/>
<path d="M26.2637 21.3682C26.2637 21.0635 26.3223 20.7891 26.4395 20.5449C26.5586 20.3008 26.7256 20.1113 26.9404 19.9766C27.1572 19.8398 27.4023 19.7715 27.6758 19.7715C28.0977 19.7715 28.4395 19.9199 28.7012 20.2168C28.9629 20.5117 29.0938 20.9033 29.0938 21.3916V21.4648C29.0938 21.7715 29.0342 22.0479 28.915 22.2939C28.7979 22.5381 28.6318 22.7266 28.417 22.8594C28.2021 22.9922 27.957 23.0586 27.6816 23.0586C27.2617 23.0586 26.9199 22.9111 26.6562 22.6162C26.3945 22.3193 26.2637 21.9268 26.2637 21.4385V21.3682ZM26.6152 21.4648C26.6152 21.8438 26.7129 22.1553 26.9082 22.3994C27.1055 22.6416 27.3633 22.7627 27.6816 22.7627C27.998 22.7627 28.2539 22.6416 28.4492 22.3994C28.6465 22.1553 28.7451 21.834 28.7451 21.4355V21.3682C28.7451 21.126 28.7002 20.9043 28.6104 20.7031C28.5205 20.502 28.3945 20.3467 28.2324 20.2373C28.0703 20.126 27.8848 20.0703 27.6758 20.0703C27.3633 20.0703 27.1084 20.1934 26.9111 20.4395C26.7139 20.6836 26.6152 21.0039 26.6152 21.4004V21.4648Z" fill="black"/>
<path d="M99.8169 25.6445H102.89V26H99.3076V25.6821L102.261 21.3823H99.3965V21.0234H102.78V21.3242L99.8169 25.6445Z" fill="black"/>
<path d="M29.5835 50.7461H31.7783V51H29.2197V50.7729L31.3291 47.7017H29.2832V47.4453H31.7002V47.6602L29.5835 50.7461Z" fill="black"/>
<path d="M35.5835 68.7461H37.7783V69H35.2197V68.7729L37.3291 65.7017H35.2832V65.4453H37.7002V65.6602L35.5835 68.7461Z" fill="black"/>
<path d="M104.752 27.7461H106.507V28H104.449V24.4453H104.752V27.7461Z" fill="black"/>
<path d="M32.4512 51.8477H33.5044V52H32.2695V49.8672H32.4512V51.8477Z" fill="black"/>
<path d="M39.8457 69.0493C39.8457 69.2456 39.8115 69.418 39.7432 69.5664C39.6758 69.7148 39.5791 69.8291 39.4531 69.9092C39.3271 69.9893 39.1816 70.0293 39.0166 70.0293C38.7676 70.0293 38.5664 69.9404 38.4131 69.7627C38.2598 69.584 38.1831 69.3433 38.1831 69.0405V68.8208C38.1831 68.6265 38.2173 68.4546 38.2856 68.3052C38.355 68.1548 38.4526 68.0396 38.5786 67.9595C38.7046 67.8784 38.8496 67.8379 39.0137 67.8379C39.1777 67.8379 39.3223 67.8774 39.4473 67.9565C39.5732 68.0356 39.6704 68.1475 39.7388 68.292C39.8071 68.4365 39.8428 68.604 39.8457 68.7944V69.0493ZM39.6655 68.8179C39.6655 68.561 39.6074 68.3599 39.4912 68.2144C39.375 68.0688 39.2158 67.9961 39.0137 67.9961C38.8154 67.9961 38.6572 68.0693 38.5391 68.2158C38.4219 68.3613 38.3633 68.5649 38.3633 68.8267V69.0493C38.3633 69.3022 38.4219 69.5029 38.5391 69.6514C38.6562 69.7988 38.8154 69.8726 39.0166 69.8726C39.2207 69.8726 39.3799 69.7998 39.4941 69.6543C39.6084 69.5078 39.6655 69.3042 39.6655 69.0435V68.8179Z" fill="black"/>
<path d="M39.4512 51.8477H40.5044V52H39.2695V49.8672H39.4512V51.8477Z" fill="black"/>
<path d="M47.4512 51.8477H48.5044V52H47.2695V49.8672H47.4512V51.8477Z" fill="black"/>
<path d="M55.1294 39.3848L55.1567 39.4907L55.1875 39.3848L56.7529 35.0234H57.2144L55.3618 40H54.9585L53.106 35.0234H53.564L55.1294 39.3848ZM60.7656 38.7764C60.7656 38.5007 60.6688 38.283 60.4751 38.1235C60.2814 37.9618 59.9271 37.8091 59.4121 37.6655C58.8971 37.5197 58.5212 37.3613 58.2842 37.1904C57.9469 36.9489 57.7783 36.6322 57.7783 36.2402C57.7783 35.8597 57.9344 35.5509 58.2466 35.314C58.561 35.0747 58.9621 34.9551 59.4497 34.9551C59.7801 34.9551 60.0752 35.0189 60.335 35.1465C60.597 35.2741 60.7998 35.4518 60.9434 35.6797C61.0869 35.9076 61.1587 36.1616 61.1587 36.4419H60.7349C60.7349 36.1024 60.6187 35.8301 60.3862 35.625C60.1538 35.4176 59.8416 35.314 59.4497 35.314C59.0692 35.314 58.7661 35.3994 58.5405 35.5703C58.3149 35.7389 58.2021 35.96 58.2021 36.2334C58.2021 36.4863 58.3035 36.6925 58.5063 36.8521C58.7091 37.0116 59.0339 37.1528 59.4805 37.2759C59.9271 37.3966 60.2655 37.5231 60.4956 37.6553C60.7257 37.7852 60.8989 37.9412 61.0151 38.1235C61.1313 38.3058 61.1895 38.5212 61.1895 38.7695C61.1895 39.1615 61.0322 39.4759 60.7178 39.7129C60.4056 39.9499 59.9932 40.0684 59.4805 40.0684C59.1296 40.0684 58.8071 40.0057 58.5132 39.8804C58.2215 39.755 57.9993 39.5796 57.8467 39.354C57.6963 39.1284 57.6211 38.8698 57.6211 38.5781H58.0415C58.0415 38.929 58.1725 39.2059 58.4346 39.4087C58.6966 39.6115 59.0452 39.7129 59.4805 39.7129C59.8678 39.7129 60.1789 39.6274 60.4136 39.4565C60.6483 39.2856 60.7656 39.0589 60.7656 38.7764ZM63.0181 38.6567L63.1719 39.4292L63.3599 38.6909L64.4399 35.0234H64.8193L65.8857 38.6909L66.0703 39.436L66.2344 38.6567L67.1333 35.0234H67.564L66.2891 40H65.8857L64.7578 36.1069L64.6313 35.6147L64.5083 36.1069L63.353 40H62.9497L61.6782 35.0234H62.1089L63.0181 38.6567ZM70.2334 37.9287H68.7876V40H68.3638V35.0234H69.9805C70.5114 35.0234 70.9261 35.1522 71.2246 35.4097C71.5231 35.6672 71.6724 36.0272 71.6724 36.4897C71.6724 36.8088 71.5789 37.0902 71.3921 37.334C71.2052 37.5778 70.9546 37.7464 70.6401 37.8398L71.8843 39.9556V40H71.4365L70.2334 37.9287ZM68.7876 37.5698H70.0762C70.4294 37.5698 70.7131 37.4696 70.9272 37.269C71.1414 37.0685 71.2485 36.8088 71.2485 36.4897C71.2485 36.1388 71.1369 35.8665 70.9136 35.6729C70.6903 35.4792 70.377 35.3823 69.9736 35.3823H68.7876V37.5698Z" fill="black"/>
<path d="M79.1768 20.1768C79.2744 20.0791 79.2744 19.9209 79.1768 19.8232L77.5858 18.2322C77.4882 18.1346 77.3299 18.1346 77.2322 18.2322C77.1346 18.3299 77.1346 18.4882 77.2322 18.5858L78.6464 20L77.2322 21.4142C77.1346 21.5118 77.1346 21.6701 77.2322 21.7678C77.3299 21.8654 77.4882 21.8654 77.5858 21.7678L79.1768 20.1768ZM73 20.25H79V19.75H73V20.25Z" fill="black"/>
<line x1="73.25" y1="20" x2="73.25" y2="41" stroke="black" stroke-width="0.5"/>
<path d="M35.3999 48.9761H33.3638V48.7173H35.3999V48.9761ZM35.3999 49.9795H33.3638V49.7207H35.3999V49.9795ZM37.5459 49.5205H36.5132V51H36.2104V47.4453H37.3652C37.7445 47.4453 38.0407 47.5373 38.2539 47.7212C38.4671 47.9051 38.5737 48.1623 38.5737 48.4927C38.5737 48.7205 38.507 48.9215 38.3735 49.0957C38.2401 49.2699 38.061 49.3903 37.8364 49.457L38.7251 50.9683V51H38.4053L37.5459 49.5205ZM36.5132 49.2642H37.4336C37.6859 49.2642 37.8885 49.1925 38.0415 49.0493C38.1945 48.9061 38.271 48.7205 38.271 48.4927C38.271 48.242 38.1912 48.0475 38.0317 47.9092C37.8722 47.7708 37.6484 47.7017 37.3604 47.7017H36.5132V49.2642Z" fill="black"/>
<path d="M41.5381 49.1934H42.6196V49.4668H41.5381V50.6436H41.2427V49.4668H40.1831V49.1934H41.2427V48.0557H41.5381V49.1934ZM43.5181 48.3584V51.3149C43.5181 51.5591 43.4595 51.7454 43.3423 51.874C43.2251 52.0026 43.0526 52.0669 42.8247 52.0669C42.7368 52.0669 42.6514 52.0514 42.5684 52.0205L42.5732 51.7788C42.6449 51.8 42.7181 51.8105 42.793 51.8105C43.0827 51.8105 43.2275 51.6437 43.2275 51.3101V48.3584H43.5181ZM43.374 47.3965C43.4375 47.3965 43.4871 47.416 43.5229 47.4551C43.5588 47.4925 43.5767 47.5389 43.5767 47.5942C43.5767 47.6496 43.5588 47.696 43.5229 47.7334C43.4871 47.7708 43.4375 47.7896 43.374 47.7896C43.3122 47.7896 43.2633 47.7708 43.2275 47.7334C43.1934 47.696 43.1763 47.6496 43.1763 47.5942C43.1763 47.5389 43.1934 47.4925 43.2275 47.4551C43.2633 47.416 43.3122 47.3965 43.374 47.3965ZM45.4956 48.9492L46.4966 47.4453H46.8555L45.6787 49.1982L46.8921 51H46.5308L45.4956 49.4473L44.4556 51H44.0991L45.3149 49.1982L44.1357 47.4453H44.4946L45.4956 48.9492Z" fill="black"/>
<path d="M30.6016 63.6074C30.5397 63.596 30.4738 63.5903 30.4038 63.5903C30.2215 63.5903 30.0669 63.6416 29.9399 63.7441C29.8146 63.8451 29.7251 63.9924 29.6714 64.186V66H29.3809V63.3584H29.6665L29.6714 63.7783C29.826 63.4658 30.0742 63.3096 30.416 63.3096C30.4974 63.3096 30.5617 63.3201 30.6089 63.3413L30.6016 63.6074Z" fill="black"/>
<path d="M31.4512 66.8477H32.5044V67H31.2695V64.8672H31.4512V66.8477Z" fill="black"/>
<path d="M38.4512 62.8477H39.5044V63H38.2695V60.8672H38.4512V62.8477Z" fill="black"/>
<path d="M34.3999 63.9761H32.3638V63.7173H34.3999V63.9761ZM34.3999 64.9795H32.3638V64.7207H34.3999V64.9795Z" fill="black"/>
<path d="M37.1533 64.2466H35.0024V64H37.1533V64.2466ZM39.3115 64.2466H37.1606V64H39.3115V64.2466Z" fill="black"/>
<path d="M36.7773 60.5205H35.7446V62H35.4419V58.4453H36.5967C36.9759 58.4453 37.2721 58.5373 37.4854 58.7212C37.6986 58.9051 37.8052 59.1623 37.8052 59.4927C37.8052 59.7205 37.7384 59.9215 37.605 60.0957C37.4715 60.2699 37.2925 60.3903 37.0679 60.457L37.9565 61.9683V62H37.6367L36.7773 60.5205ZM35.7446 60.2642H36.665C36.9173 60.2642 37.12 60.1925 37.2729 60.0493C37.4259 59.9061 37.5024 59.7205 37.5024 59.4927C37.5024 59.242 37.4227 59.0475 37.2632 58.9092C37.1037 58.7708 36.8799 58.7017 36.5918 58.7017H35.7446V60.2642Z" fill="black"/>
<path d="M29.2637 82.6548C29.2637 82.2414 29.3548 81.9142 29.5371 81.6733C29.721 81.4308 29.9701 81.3096 30.2842 81.3096C30.6439 81.3096 30.9173 81.4528 31.1045 81.7393L31.1191 81.3584H31.3926V83.9463C31.3926 84.2865 31.2974 84.5558 31.1069 84.7544C30.9165 84.953 30.6585 85.0522 30.333 85.0522C30.1491 85.0522 29.9733 85.0107 29.8057 84.9277C29.6396 84.8464 29.5086 84.7373 29.4126 84.6006L29.5762 84.4248C29.7829 84.6787 30.0286 84.8057 30.3135 84.8057C30.5576 84.8057 30.748 84.7332 30.8848 84.5884C31.0215 84.4451 31.0923 84.2458 31.0972 83.9902V83.6582C30.91 83.9186 30.6374 84.0488 30.2793 84.0488C29.9733 84.0488 29.7275 83.9268 29.542 83.6826C29.3564 83.4385 29.2637 83.1089 29.2637 82.6938V82.6548ZM29.5591 82.7061C29.5591 83.043 29.6266 83.3091 29.7617 83.5044C29.8968 83.6981 30.0872 83.7949 30.333 83.7949C30.6927 83.7949 30.9474 83.6338 31.0972 83.3115V82.0835C31.0288 81.9142 30.9303 81.7856 30.8018 81.6978C30.6732 81.6082 30.5186 81.5635 30.3379 81.5635C30.0921 81.5635 29.9009 81.6603 29.7642 81.854C29.6274 82.0461 29.5591 82.3301 29.5591 82.7061Z" fill="black"/>
<path d="M32.4512 84.8477H33.5044V85H32.2695V82.8672H32.4512V84.8477Z" fill="black"/>
<path d="M39.4512 80.8477H40.5044V81H39.2695V78.8672H39.4512V80.8477Z" fill="black"/>
<path d="M35.3999 81.9761H33.3638V81.7173H35.3999V81.9761ZM35.3999 82.9795H33.3638V82.7207H35.3999V82.9795Z" fill="black"/>
<path d="M38.1533 82.2466H36.0024V82H38.1533V82.2466ZM40.3115 82.2466H38.1606V82H40.3115V82.2466Z" fill="black"/>
<path d="M39.0151 79.5776C38.911 79.7257 38.7474 79.8413 38.5244 79.9243C38.3031 80.0073 38.0549 80.0488 37.7798 80.0488C37.5015 80.0488 37.2541 79.9821 37.0376 79.8486C36.8211 79.7152 36.6535 79.5264 36.5347 79.2822C36.4159 79.0381 36.3556 78.7581 36.354 78.4424V77.9932C36.354 77.5 36.4785 77.111 36.7275 76.8262C36.9766 76.5397 37.311 76.3965 37.731 76.3965C38.0972 76.3965 38.3918 76.4901 38.6147 76.6772C38.8377 76.8628 38.9704 77.1191 39.0127 77.4463H38.7124C38.6685 77.1859 38.5618 76.9889 38.3926 76.8555C38.2249 76.7204 38.0052 76.6528 37.7334 76.6528C37.4014 76.6528 37.1385 76.7708 36.9448 77.0068C36.7511 77.2428 36.6543 77.5757 36.6543 78.0054V78.4253C36.6543 78.6955 36.6999 78.9347 36.791 79.1431C36.8838 79.3498 37.0156 79.5101 37.1865 79.624C37.359 79.738 37.5568 79.7949 37.7798 79.7949C38.0386 79.7949 38.2607 79.7542 38.4463 79.6729C38.5667 79.6191 38.6562 79.5565 38.7148 79.4849V78.5669H37.7603V78.313H39.0151V79.5776Z" fill="black"/>
<path d="M60.5835 68.7461H62.7783V69H60.2197V68.7729L62.3291 65.7017H60.2832V65.4453H62.7002V65.6602L60.5835 68.7461Z" fill="black"/>
<path d="M64.8457 69.0493C64.8457 69.2456 64.8115 69.418 64.7432 69.5664C64.6758 69.7148 64.5791 69.8291 64.4531 69.9092C64.3271 69.9893 64.1816 70.0293 64.0166 70.0293C63.7676 70.0293 63.5664 69.9404 63.4131 69.7627C63.2598 69.584 63.1831 69.3433 63.1831 69.0405V68.8208C63.1831 68.6265 63.2173 68.4546 63.2856 68.3052C63.355 68.1548 63.4526 68.0396 63.5786 67.9595C63.7046 67.8784 63.8496 67.8379 64.0137 67.8379C64.1777 67.8379 64.3223 67.8774 64.4473 67.9565C64.5732 68.0356 64.6704 68.1475 64.7388 68.292C64.8071 68.4365 64.8428 68.604 64.8457 68.7944V69.0493ZM64.6655 68.8179C64.6655 68.561 64.6074 68.3599 64.4912 68.2144C64.375 68.0688 64.2158 67.9961 64.0137 67.9961C63.8154 67.9961 63.6572 68.0693 63.5391 68.2158C63.4219 68.3613 63.3633 68.5649 63.3633 68.8267V69.0493C63.3633 69.3022 63.4219 69.5029 63.5391 69.6514C63.6562 69.7988 63.8154 69.8726 64.0166 69.8726C64.2207 69.8726 64.3799 69.7998 64.4941 69.6543C64.6084 69.5078 64.6655 69.3042 64.6655 69.0435V68.8179Z" fill="black"/>
<path d="M55.5073 82.7061C55.5073 83.1178 55.4162 83.445 55.2339 83.6875C55.0516 83.9284 54.8066 84.0488 54.499 84.0488C54.1312 84.0488 53.8529 83.9121 53.6641 83.6387L53.6519 84H53.3784V80.25H53.6689V81.7417C53.8545 81.4536 54.1296 81.3096 54.4941 81.3096C54.8066 81.3096 55.0532 81.4292 55.2339 81.6685C55.4162 81.9061 55.5073 82.2373 55.5073 82.6621V82.7061ZM55.2144 82.6548C55.2144 82.3065 55.1468 82.0379 55.0117 81.8491C54.8766 81.6587 54.6862 81.5635 54.4404 81.5635C54.2533 81.5635 54.0946 81.6099 53.9644 81.7026C53.8341 81.7938 53.7357 81.9281 53.6689 82.1055V83.2969C53.8154 83.6289 54.0742 83.7949 54.4453 83.7949C54.6862 83.7949 54.8742 83.6997 55.0093 83.5093C55.146 83.3188 55.2144 83.034 55.2144 82.6548Z" fill="black"/>
<path d="M56.4512 84.8477H57.5044V85H56.2695V82.8672H56.4512V84.8477Z" fill="black"/>
<path d="M63.4512 80.8477H64.5044V81H63.2695V78.8672H63.4512V80.8477Z" fill="black"/>
<path d="M59.3999 81.9761H57.3638V81.7173H59.3999V81.9761ZM59.3999 82.9795H57.3638V82.7207H59.3999V82.9795Z" fill="black"/>
<path d="M62.1533 82.2466H60.0024V82H62.1533V82.2466ZM64.3115 82.2466H62.1606V82H64.3115V82.2466Z" fill="black"/>
<path d="M60.4492 80V76.4453H61.499C61.8799 76.4453 62.1688 76.5243 62.3657 76.6821C62.5627 76.8384 62.6611 77.0695 62.6611 77.3755C62.6611 77.5594 62.6107 77.7197 62.5098 77.8564C62.4105 77.9915 62.2738 78.0884 62.0996 78.147C62.3063 78.1925 62.4723 78.2943 62.5977 78.4521C62.7246 78.61 62.7881 78.7923 62.7881 78.999C62.7881 79.3132 62.6864 79.5589 62.4829 79.7363C62.2811 79.9121 61.9995 80 61.6382 80H60.4492ZM60.7495 78.291V79.7461H61.6504C61.9076 79.7461 62.111 79.681 62.2607 79.5508C62.4121 79.4189 62.4878 79.2367 62.4878 79.0039C62.4878 78.7842 62.4154 78.6108 62.2705 78.4839C62.1273 78.3553 61.9287 78.291 61.6748 78.291H60.7495ZM60.7495 78.0396H61.5698C61.8205 78.0347 62.0142 77.9761 62.1509 77.8638C62.2892 77.7498 62.3584 77.5846 62.3584 77.3682C62.3584 77.1403 62.2868 76.9727 62.1436 76.8652C62.002 76.7562 61.7871 76.7017 61.499 76.7017H60.7495V78.0396Z" fill="black"/>
<path d="M54.2109 64.4302L54.9238 63.3584H55.2705L54.3745 64.6548L55.3096 66H54.9653L54.2134 64.8818L53.4614 66H53.1172L54.0498 64.6548L53.1538 63.3584H53.498L54.2109 64.4302Z" fill="black"/>
<path d="M56.4512 66.8477H57.5044V67H56.2695V64.8672H56.4512V66.8477Z" fill="black"/>
<path d="M63.4512 62.8477H64.5044V63H63.2695V60.8672H63.4512V62.8477Z" fill="black"/>
<path d="M59.3999 63.9761H57.3638V63.7173H59.3999V63.9761ZM59.3999 64.9795H57.3638V64.7207H59.3999V64.9795Z" fill="black"/>
<path d="M62.1533 64.2466H60.0024V64H62.1533V64.2466ZM64.3115 64.2466H62.1606V64H64.3115V64.2466Z" fill="black"/>
<path d="M61.5308 59.9492L62.5317 58.4453H62.8906L61.7139 60.1982L62.9272 62H62.5659L61.5308 60.4473L60.4907 62H60.1343L61.3501 60.1982L60.1709 58.4453H60.5298L61.5308 59.9492Z" fill="black"/>
<path d="M54.4917 49.3838L55.5781 47.4453H55.9248L54.6406 49.6621V51H54.3403V49.6621L53.0586 47.4453H53.415L54.4917 49.3838Z" fill="black"/>
<path d="M56.4512 51.8477H57.5044V52H56.2695V49.8672H56.4512V51.8477Z" fill="black"/>
<path d="M63.4512 51.8477H64.5044V52H63.2695V49.8672H63.4512V51.8477Z" fill="black"/>
<path d="M59.3999 48.9761H57.3638V48.7173H59.3999V48.9761ZM59.3999 49.9795H57.3638V49.7207H59.3999V49.9795ZM62.7837 50.5776C62.6795 50.7257 62.516 50.8413 62.293 50.9243C62.0716 51.0073 61.8234 51.0488 61.5483 51.0488C61.27 51.0488 61.0226 50.9821 60.8062 50.8486C60.5897 50.7152 60.422 50.5264 60.3032 50.2822C60.1844 50.0381 60.1242 49.7581 60.1226 49.4424V48.9932C60.1226 48.5 60.2471 48.111 60.4961 47.8262C60.7451 47.5397 61.0796 47.3965 61.4995 47.3965C61.8657 47.3965 62.1603 47.4901 62.3833 47.6772C62.6063 47.8628 62.7389 48.1191 62.7812 48.4463H62.481C62.437 48.1859 62.3304 47.9889 62.1611 47.8555C61.9935 47.7204 61.7738 47.6528 61.502 47.6528C61.1699 47.6528 60.9071 47.7708 60.7134 48.0068C60.5197 48.2428 60.4229 48.5757 60.4229 49.0054V49.4253C60.4229 49.6955 60.4684 49.9347 60.5596 50.1431C60.6523 50.3498 60.7842 50.5101 60.9551 50.624C61.1276 50.738 61.3254 50.7949 61.5483 50.7949C61.8071 50.7949 62.0293 50.7542 62.2148 50.6729C62.3353 50.6191 62.4248 50.5565 62.4834 50.4849V49.5669H61.5288V49.313H62.7837V50.5776Z" fill="black"/>
<path d="M65.5381 49.1934H66.6196V49.4668H65.5381V50.6436H65.2427V49.4668H64.1831V49.1934H65.2427V48.0557H65.5381V49.1934ZM67.5181 48.3584V51.3149C67.5181 51.5591 67.4595 51.7454 67.3423 51.874C67.2251 52.0026 67.0526 52.0669 66.8247 52.0669C66.7368 52.0669 66.6514 52.0514 66.5684 52.0205L66.5732 51.7788C66.6449 51.8 66.7181 51.8105 66.793 51.8105C67.0827 51.8105 67.2275 51.6437 67.2275 51.3101V48.3584H67.5181ZM67.374 47.3965C67.4375 47.3965 67.4871 47.416 67.5229 47.4551C67.5588 47.4925 67.5767 47.5389 67.5767 47.5942C67.5767 47.6496 67.5588 47.696 67.5229 47.7334C67.4871 47.7708 67.4375 47.7896 67.374 47.7896C67.3122 47.7896 67.2633 47.7708 67.2275 47.7334C67.1934 47.696 67.1763 47.6496 67.1763 47.5942C67.1763 47.5389 67.1934 47.4925 67.2275 47.4551C67.2633 47.416 67.3122 47.3965 67.374 47.3965ZM68.4141 51V47.4453H69.4639C69.8447 47.4453 70.1336 47.5243 70.3306 47.6821C70.5275 47.8384 70.626 48.0695 70.626 48.3755C70.626 48.5594 70.5755 48.7197 70.4746 48.8564C70.3753 48.9915 70.2386 49.0884 70.0645 49.147C70.2712 49.1925 70.4372 49.2943 70.5625 49.4521C70.6895 49.61 70.7529 49.7923 70.7529 49.999C70.7529 50.3132 70.6512 50.5589 70.4478 50.7363C70.2459 50.9121 69.9644 51 69.603 51H68.4141ZM68.7144 49.291V50.7461H69.6152C69.8724 50.7461 70.0758 50.681 70.2256 50.5508C70.377 50.4189 70.4526 50.2367 70.4526 50.0039C70.4526 49.7842 70.3802 49.6108 70.2354 49.4839C70.0921 49.3553 69.8936 49.291 69.6396 49.291H68.7144ZM68.7144 49.0396H69.5347C69.7853 49.0347 69.979 48.9761 70.1157 48.8638C70.2541 48.7498 70.3232 48.5846 70.3232 48.3682C70.3232 48.1403 70.2516 47.9727 70.1084 47.8652C69.9668 47.7562 69.752 47.7017 69.4639 47.7017H68.7144V49.0396Z" fill="black"/>
</svg>
