<svg width="107" height="42" viewBox="0 0 107 42" fill="none" xmlns="http://www.w3.org/2000/svg">
<line y1="6.5" x2="96" y2="6.5" stroke="black"/>
<line y1="32.5" x2="96" y2="32.5" stroke="black"/>
<rect x="93.5" y="14.5" width="4" height="10" stroke="black"/>
<line x1="95.5" y1="7" x2="95.5" y2="14" stroke="black"/>
<line x1="95.5" y1="25" x2="95.5" y2="32" stroke="black"/>
<line x1="84.25" y1="4" x2="84.25" y2="7" stroke="black" stroke-width="0.5"/>
<line x1="84.25" x2="84.25" y2="3" stroke="black" stroke-width="0.5"/>
<line x1="84.25" y1="28" x2="84.25" y2="31" stroke="black" stroke-width="0.5"/>
<line x1="84.25" y1="24" x2="84.25" y2="27" stroke="black" stroke-width="0.5"/>
<line x1="84.25" y1="20" x2="84.25" y2="23" stroke="black" stroke-width="0.5"/>
<line x1="84.25" y1="16" x2="84.25" y2="19" stroke="black" stroke-width="0.5"/>
<line x1="84.25" y1="12" x2="84.25" y2="15" stroke="black" stroke-width="0.5"/>
<line x1="84.25" y1="8" x2="84.25" y2="11" stroke="black" stroke-width="0.5"/>
<line x1="84.25" y1="33" x2="84.25" y2="35" stroke="black" stroke-width="0.5"/>
<line x1="84.25" y1="36" x2="84.25" y2="39" stroke="black" stroke-width="0.5"/>
<path d="M22.8169 20.6445H25.8896V21H22.3076V20.6821L25.2607 16.3823H22.3965V16.0234H25.7803V16.3242L22.8169 20.6445Z" fill="black"/>
<path d="M26.2637 21.3682C26.2637 21.0635 26.3223 20.7891 26.4395 20.5449C26.5586 20.3008 26.7256 20.1113 26.9404 19.9766C27.1572 19.8398 27.4023 19.7715 27.6758 19.7715C28.0977 19.7715 28.4395 19.9199 28.7012 20.2168C28.9629 20.5117 29.0938 20.9033 29.0938 21.3916V21.4648C29.0938 21.7715 29.0342 22.0479 28.915 22.2939C28.7979 22.5381 28.6318 22.7266 28.417 22.8594C28.2021 22.9922 27.957 23.0586 27.6816 23.0586C27.2617 23.0586 26.9199 22.9111 26.6562 22.6162C26.3945 22.3193 26.2637 21.9268 26.2637 21.4385V21.3682ZM26.6152 21.4648C26.6152 21.8438 26.7129 22.1553 26.9082 22.3994C27.1055 22.6416 27.3633 22.7627 27.6816 22.7627C27.998 22.7627 28.2539 22.6416 28.4492 22.3994C28.6465 22.1553 28.7451 21.834 28.7451 21.4355V21.3682C28.7451 21.126 28.7002 20.9043 28.6104 20.7031C28.5205 20.502 28.3945 20.3467 28.2324 20.2373C28.0703 20.126 27.8848 20.0703 27.6758 20.0703C27.3633 20.0703 27.1084 20.1934 26.9111 20.4395C26.7139 20.6836 26.6152 21.0039 26.6152 21.4004V21.4648Z" fill="black"/>
<path d="M99.8169 25.6445H102.89V26H99.3076V25.6821L102.261 21.3823H99.3965V21.0234H102.78V21.3242L99.8169 25.6445Z" fill="black"/>
<path d="M104.752 27.7461H106.507V28H104.449V24.4453H104.752V27.7461Z" fill="black"/>
<path d="M55.1294 39.3848L55.1567 39.4907L55.1875 39.3848L56.7529 35.0234H57.2144L55.3618 40H54.9585L53.106 35.0234H53.564L55.1294 39.3848ZM60.7656 38.7764C60.7656 38.5007 60.6688 38.283 60.4751 38.1235C60.2814 37.9618 59.9271 37.8091 59.4121 37.6655C58.8971 37.5197 58.5212 37.3613 58.2842 37.1904C57.9469 36.9489 57.7783 36.6322 57.7783 36.2402C57.7783 35.8597 57.9344 35.5509 58.2466 35.314C58.561 35.0747 58.9621 34.9551 59.4497 34.9551C59.7801 34.9551 60.0752 35.0189 60.335 35.1465C60.597 35.2741 60.7998 35.4518 60.9434 35.6797C61.0869 35.9076 61.1587 36.1616 61.1587 36.4419H60.7349C60.7349 36.1024 60.6187 35.8301 60.3862 35.625C60.1538 35.4176 59.8416 35.314 59.4497 35.314C59.0692 35.314 58.7661 35.3994 58.5405 35.5703C58.3149 35.7389 58.2021 35.96 58.2021 36.2334C58.2021 36.4863 58.3035 36.6925 58.5063 36.8521C58.7091 37.0116 59.0339 37.1528 59.4805 37.2759C59.9271 37.3966 60.2655 37.5231 60.4956 37.6553C60.7257 37.7852 60.8989 37.9412 61.0151 38.1235C61.1313 38.3058 61.1895 38.5212 61.1895 38.7695C61.1895 39.1615 61.0322 39.4759 60.7178 39.7129C60.4056 39.9499 59.9932 40.0684 59.4805 40.0684C59.1296 40.0684 58.8071 40.0057 58.5132 39.8804C58.2215 39.755 57.9993 39.5796 57.8467 39.354C57.6963 39.1284 57.6211 38.8698 57.6211 38.5781H58.0415C58.0415 38.929 58.1725 39.2059 58.4346 39.4087C58.6966 39.6115 59.0452 39.7129 59.4805 39.7129C59.8678 39.7129 60.1789 39.6274 60.4136 39.4565C60.6483 39.2856 60.7656 39.0589 60.7656 38.7764ZM63.0181 38.6567L63.1719 39.4292L63.3599 38.6909L64.4399 35.0234H64.8193L65.8857 38.6909L66.0703 39.436L66.2344 38.6567L67.1333 35.0234H67.564L66.2891 40H65.8857L64.7578 36.1069L64.6313 35.6147L64.5083 36.1069L63.353 40H62.9497L61.6782 35.0234H62.1089L63.0181 38.6567ZM70.2334 37.9287H68.7876V40H68.3638V35.0234H69.9805C70.5114 35.0234 70.9261 35.1522 71.2246 35.4097C71.5231 35.6672 71.6724 36.0272 71.6724 36.4897C71.6724 36.8088 71.5789 37.0902 71.3921 37.334C71.2052 37.5778 70.9546 37.7464 70.6401 37.8398L71.8843 39.9556V40H71.4365L70.2334 37.9287ZM68.7876 37.5698H70.0762C70.4294 37.5698 70.7131 37.4696 70.9272 37.269C71.1414 37.0685 71.2485 36.8088 71.2485 36.4897C71.2485 36.1388 71.1369 35.8665 70.9136 35.6729C70.6903 35.4792 70.377 35.3823 69.9736 35.3823H68.7876V37.5698Z" fill="black"/>
<path d="M79.1768 20.1768C79.2744 20.0791 79.2744 19.9209 79.1768 19.8232L77.5858 18.2322C77.4882 18.1346 77.3299 18.1346 77.2322 18.2322C77.1346 18.3299 77.1346 18.4882 77.2322 18.5858L78.6464 20L77.2322 21.4142C77.1346 21.5118 77.1346 21.6701 77.2322 21.7678C77.3299 21.8654 77.4882 21.8654 77.5858 21.7678L79.1768 20.1768ZM73 20.25H79V19.75H73V20.25Z" fill="black"/>
<line x1="73.25" y1="20" x2="73.25" y2="41" stroke="black" stroke-width="0.5"/>
</svg>
